<svg width="72" height="90" viewBox="0 0 72 90" fill="none" xmlns="http://www.w3.org/2000/svg">
<path d="M36 8.61817C36.7336 8.61817 37.3283 8.02346 37.3283 7.2899V1.32827C37.3283 0.59471 36.7336 0 36 0C35.2663 0 34.6718 0.59471 34.6718 1.32827V7.2899C34.6718 8.02346 35.2663 8.61817 36 8.61817Z" fill="#645DDD"/>
<path d="M59.1387 10.3626L54.9231 14.5781C54.4044 15.0969 54.4044 15.9379 54.9231 16.4565C55.1826 16.7157 55.5226 16.8456 55.8625 16.8456C56.2023 16.8456 56.5424 16.7159 56.8018 16.4565L61.0174 12.2409C61.5361 11.7222 61.5361 10.8811 61.0174 10.3626C60.4985 9.84399 59.6576 9.84399 59.1387 10.3626Z" fill="#645DDD"/>
<path d="M15.1983 54.3029L10.9827 58.5184C10.4639 59.0372 10.4639 59.8782 10.9827 60.3968C11.242 60.6561 11.582 60.7859 11.9219 60.7859C12.2617 60.7859 12.6018 60.6562 12.861 60.3968L17.0766 56.1812C17.5953 55.6625 17.5953 54.8214 17.0766 54.3029C16.5581 53.7841 15.717 53.7841 15.1983 54.3029Z" fill="#645DDD"/>
<path d="M15.1983 16.4564C15.4575 16.7156 15.7976 16.8455 16.1374 16.8455C16.4773 16.8455 16.8173 16.7158 17.0766 16.4564C17.5953 15.9376 17.5953 15.0966 17.0766 14.578L12.861 10.3624C12.3423 9.84371 11.5012 9.84371 10.9827 10.3624C10.4639 10.8812 10.4639 11.7222 10.9827 12.2408L15.1983 16.4564Z" fill="#645DDD"/>
<path d="M56.8018 54.3029C56.2828 53.7841 55.442 53.7841 54.9232 54.3029C54.4045 54.8216 54.4045 55.6627 54.9232 56.1812L59.1388 60.3968C59.3983 60.6561 59.7383 60.7859 60.0782 60.7859C60.418 60.7859 60.7581 60.6562 61.0175 60.3968C61.5362 59.8781 61.5362 59.037 61.0175 58.5184L56.8018 54.3029Z" fill="#645DDD"/>
<path d="M7.91032 34.0513H1.94851C1.21495 34.0513 0.620239 34.646 0.620239 35.3795C0.620239 36.1131 1.21495 36.7078 1.94851 36.7078H7.91014C8.6437 36.7078 9.23841 36.1131 9.23841 35.3795C9.23859 34.646 8.64388 34.0513 7.91032 34.0513Z" fill="#645DDD"/>
<path d="M70.0514 34.0513H64.0897C63.356 34.0513 62.7615 34.646 62.7615 35.3795C62.7615 36.1131 63.356 36.7078 64.0897 36.7078H70.0514C70.7851 36.7078 71.3796 36.1131 71.3796 35.3795C71.3796 34.646 70.7851 34.0513 70.0514 34.0513Z" fill="#645DDD"/>
<path d="M46.6783 71.7618C47.412 71.7618 48.0065 71.1671 48.0065 70.4336C48.0065 69.7 47.412 69.1053 46.6783 69.1053H46.1983V64.6157L46.2236 64.4647C46.4948 62.8431 46.9816 61.2561 47.6707 59.7479C47.9755 59.0806 47.6815 58.2927 47.0144 57.9879C46.3471 57.6829 45.559 57.9769 45.2544 58.6442C44.5893 60.1002 44.0913 61.6216 43.7656 63.1773H28.1932C27.2614 58.6493 24.9235 54.5283 21.5501 51.5033C17.5649 47.9297 15.0527 43.0454 14.4764 37.7504C14.3971 37.0211 13.742 36.4945 13.0121 36.5735C12.2828 36.6529 11.7559 37.3085 11.8355 38.0378C12.4828 43.9849 15.3029 49.4694 19.7766 53.481C22.9014 56.2831 25.0137 60.1671 25.7245 64.4172L25.7578 64.6159V69.1053H25.3222C24.5886 69.1053 23.9939 69.7 23.9939 70.4336C23.9939 71.1671 24.5886 71.7618 25.3222 71.7618H25.7578V75.0334H25.3222C24.5886 75.0334 23.9939 75.6282 23.9939 76.3617C23.9939 77.0953 24.5886 77.69 25.3222 77.69H25.7578V79.9675C25.7578 81.5395 26.7585 82.8786 28.1546 83.3916C28.3478 86.164 29.9727 88.6091 32.4925 89.861C32.6824 89.9554 32.8839 90 33.0824 90C33.5709 90 34.0409 89.7296 34.2731 89.2624C34.5995 88.6053 34.3316 87.8082 33.6745 87.4818C32.1348 86.7167 31.1016 85.2781 30.8517 83.6181H41.1048C40.8551 85.2781 39.8219 86.7167 38.2822 87.4816C37.6251 87.808 37.3572 88.6053 37.6836 89.2622C37.9156 89.7292 38.3858 89.9997 38.8742 89.9997C39.0728 89.9997 39.2745 89.955 39.4642 89.8606C41.984 88.6087 43.6087 86.1636 43.8019 83.3914C45.1982 82.8784 46.1987 81.5393 46.1987 79.9673V77.6898H46.6786C47.4123 77.6898 48.0069 77.0951 48.0069 76.3615C48.0069 75.628 47.4123 75.0333 46.6786 75.0333H46.1987V71.7618H46.6783ZM28.4138 65.8337H43.5416V69.1053H28.4138V65.8337ZM43.5418 79.9673C43.5418 80.5155 43.0958 80.9614 42.5477 80.9614H29.4081C28.86 80.9614 28.414 80.5155 28.414 79.9673V77.6898H43.5418V79.9673ZM43.5418 75.0333H28.414V71.7618H43.5418V75.0333Z" fill="#645DDD"/>
<path d="M36 42.1926C39.7567 42.1926 42.8129 39.1363 42.8129 35.3796C42.8129 31.6229 39.7567 28.5667 36 28.5667C32.2433 28.5667 29.187 31.6229 29.187 35.3796C29.187 39.1363 32.2433 42.1926 36 42.1926ZM36 31.2232C38.2917 31.2232 40.1564 33.0877 40.1564 35.3796C40.1564 37.6715 38.2919 39.536 36 39.536C33.7081 39.536 31.8436 37.6715 31.8436 35.3796C31.8436 33.0877 33.7081 31.2232 36 31.2232Z" fill="#645DDD"/>
<path d="M21.3626 31.2371C20.1418 31.2371 19.1488 32.2301 19.1488 33.4509V37.3082C19.1488 38.5289 20.1418 39.5219 21.3626 39.5219H24.0138C24.1794 40.0007 24.3737 40.4693 24.5959 40.9253L22.7206 42.8006C21.8574 43.6638 21.8574 45.0683 22.7206 45.9313L25.448 48.6587C26.3112 49.5219 27.7156 49.5219 28.5788 48.6587L30.4541 46.7835C30.9102 47.0058 31.3788 47.2 31.8575 47.3656V50.0169C31.8575 51.2376 32.8505 52.2306 34.0713 52.2306H37.9284C39.1492 52.2306 40.1422 51.2376 40.1422 50.0169V47.3656C40.6209 47.2 41.0895 47.0058 41.5456 46.7835L43.4209 48.6587C43.8389 49.0768 44.395 49.3072 44.9863 49.3072C45.5776 49.3072 46.1336 49.077 46.5519 48.6588L49.2793 45.9313C50.1421 45.0681 50.1421 43.6638 49.2793 42.8006L47.4039 40.9253C47.6262 40.4693 47.8207 40.0007 47.9859 39.5219H50.6373C51.8581 39.5219 52.8511 38.5289 52.8511 37.3082V33.4509C52.8511 32.2301 51.8581 31.2371 50.6373 31.2371H47.9859C47.8205 30.7584 47.6262 30.2899 47.4039 29.8337L49.2793 27.9584C50.1421 27.0952 50.1421 25.6909 49.2793 24.8277L46.5517 22.1002C46.1336 21.6822 45.5776 21.452 44.9863 21.452C44.395 21.452 43.839 21.6822 43.4209 22.1004L41.5456 23.9757C41.0895 23.7534 40.6209 23.559 40.1422 23.3936V20.7423C40.1422 19.5216 39.1492 18.5286 37.9284 18.5286H34.0713C32.8505 18.5286 31.8575 19.5216 31.8575 20.7423V23.3936C31.3788 23.559 30.9102 23.7534 30.4541 23.9757L28.5788 22.1004C27.7156 21.2372 26.3112 21.2372 25.448 22.1004L22.7206 24.8277C21.8574 25.6909 21.8574 27.0954 22.7206 27.9586L24.5959 29.8339C24.3737 30.2899 24.1792 30.7586 24.0136 31.2373H21.3626V31.2371ZM27.173 28.6539L24.9121 26.3932L27.0134 24.2918L29.2741 26.5527C29.7038 26.982 30.3691 27.0656 30.8916 26.7555C31.7123 26.2683 32.5946 25.9022 33.5141 25.6677C34.1025 25.5177 34.514 24.9878 34.514 24.3806V21.1849H37.4857V24.3806C37.4857 24.9877 37.8972 25.5176 38.4858 25.6677C39.4051 25.9022 40.2876 26.2681 41.1083 26.7555C41.6306 27.0658 42.2963 26.9818 42.7258 26.5527L44.9865 24.2918L47.0878 26.3932L44.8269 28.654C44.3976 29.0833 44.314 29.7494 44.6241 30.2715C45.1113 31.092 45.4772 31.9744 45.7117 32.8937C45.8617 33.482 46.3916 33.8938 46.9989 33.8938H50.1947V36.8656H46.9989C46.3916 36.8656 45.8619 37.2773 45.7117 37.8657C45.4772 38.7852 45.1113 39.6673 44.6241 40.4879C44.314 41.01 44.3976 41.6759 44.8269 42.1053L47.0878 44.3662L44.9865 46.4676L42.7258 44.2068C42.2961 43.7774 41.6304 43.6936 41.1083 44.0039C40.2878 44.4911 39.4054 44.857 38.4858 45.0916C37.8974 45.2416 37.4857 45.7715 37.4857 46.3786V49.5743H34.514V46.3786C34.514 45.7715 34.1025 45.2416 33.5141 45.0916C32.5946 44.857 31.7121 44.4909 30.8916 44.0039C30.3693 43.6938 29.7038 43.7775 29.2741 44.2068L27.0134 46.4676L24.9121 44.3662L27.1728 42.1053C27.6023 41.676 27.6857 41.01 27.3758 40.4879C26.8885 39.6675 26.5226 38.7852 26.2878 37.8655C26.1378 37.2772 25.6079 36.8656 25.0008 36.8656H21.8052V33.8938H25.0008C25.6079 33.8938 26.1378 33.4822 26.2878 32.8939C26.5225 31.9744 26.8885 31.0919 27.3758 30.2713C27.6859 29.7491 27.6023 29.0832 27.173 28.6539Z" fill="#645DDD"/>
<path d="M53.2899 18.2926C48.7676 13.7172 42.7369 11.1531 36.3086 11.073C30.3512 11.0015 24.5745 13.1531 20.0338 17.1388C15.5341 21.0885 12.6412 26.4783 11.8878 32.3152C11.7939 33.0428 12.3077 33.7087 13.0352 33.8025C13.7622 33.8964 14.4287 33.3826 14.5225 32.6551C15.193 27.4596 17.7727 22.6582 21.7862 19.1353C25.8328 15.5831 30.9844 13.6605 36.2753 13.7292C42.0007 13.8006 47.3722 16.0843 51.4002 20.1598C55.4318 24.2388 57.652 29.644 57.652 35.3795C57.652 41.4644 55.068 47.304 50.5631 51.4007C49.8694 52.0317 49.2095 52.7105 48.6018 53.4188C48.1242 53.9756 48.1881 54.814 48.7449 55.2918C48.9954 55.5068 49.303 55.6122 49.6092 55.6122C49.9832 55.6122 50.3552 55.4551 50.6178 55.1489C51.1544 54.5235 51.7374 53.9237 52.3504 53.3662C57.4081 48.7668 60.3087 42.211 60.3087 35.3795C60.3085 28.9404 57.816 22.8721 53.2899 18.2926Z" fill="#645DDD"/>
</svg>
