<svg width="80" height="80" viewBox="0 0 80 80" fill="none" xmlns="http://www.w3.org/2000/svg">
<g clip-path="url(#clip0)">
<path d="M73.6 29.2059H68.8322V28.6704C68.8322 27.3376 67.7479 26.2534 66.415 26.2534H57.0116C56.3635 26.2534 55.8381 26.7787 55.8381 27.427C55.8381 28.0752 56.3635 28.6005 57.0116 28.6005H66.415C66.4537 28.6005 66.4851 28.6318 66.4851 28.6704V42.9792C66.4851 43.6275 67.0106 44.1528 67.6587 44.1528C68.3068 44.1528 68.8322 43.6275 68.8322 42.9792V31.5529H73.6C73.7587 31.5529 73.8878 31.682 73.8878 31.8407V72.7826C73.8878 75.4681 71.703 77.6529 69.0175 77.6529H10.9827C8.29719 77.6529 6.11238 75.4681 6.11238 72.7826V31.8407C6.11238 31.682 6.24147 31.5529 6.40013 31.5529H11.3244V71.6898C11.3244 73.3446 12.6707 74.691 14.3257 74.691H65.8308C67.4858 74.691 68.832 73.3448 68.832 71.6898V47.9846C68.832 47.3363 68.3066 46.811 67.6585 46.811C67.0104 46.811 66.485 47.3363 66.485 47.9846V64.8726H47.4982C45.0391 64.8726 42.8197 65.9125 41.2519 67.5736V52.3936C41.2519 51.7454 40.7264 51.2201 40.0783 51.2201C39.4302 51.2201 38.9048 51.7454 38.9048 52.3936V67.5738C37.3369 65.9127 35.1174 64.8728 32.6585 64.8728H27.3259C26.6778 64.8728 26.1524 65.3981 26.1524 66.0463C26.1524 66.6946 26.6778 67.2199 27.3259 67.2199H32.6585C35.7195 67.2199 38.2715 69.4338 38.802 72.344H14.3257C13.9649 72.344 13.6715 72.0506 13.6715 71.6898V67.2199H22.3204C22.9685 67.2199 23.494 66.6946 23.494 66.0463C23.494 65.3981 22.9685 64.8728 22.3204 64.8728H13.6715V28.6704C13.6715 28.6318 13.7029 28.6005 13.7416 28.6005H23.145C23.7931 28.6005 24.3186 28.0752 24.3186 27.427C24.3186 26.7787 23.7931 26.2534 23.145 26.2534H13.7416C12.4088 26.2534 11.3244 27.3378 11.3244 28.6704V29.2059H6.40013C4.9473 29.2059 3.76532 30.3878 3.76532 31.8407V72.7826C3.76532 76.7622 7.00302 79.9999 10.9827 79.9999H69.0172C72.9968 79.9999 76.2345 76.7622 76.2345 72.7826V31.8407C76.2347 30.3878 75.0529 29.2059 73.6 29.2059ZM47.4982 67.2197H66.485V71.6898C66.485 72.0506 66.1916 72.344 65.8308 72.344H41.3548C41.8851 69.4336 44.4371 67.2197 47.4982 67.2197Z" fill="#645DDD"/>
<path d="M24.4319 16.4656C25.0761 16.5254 25.6495 16.0527 25.7104 15.4074C26.046 11.8486 27.6893 8.55364 30.338 6.12959C33.0032 3.69052 36.4623 2.34706 40.0783 2.34706C48.0369 2.34706 54.5117 8.82183 54.5117 16.7803C54.5117 19.775 53.6028 22.6468 51.8833 25.0859C51.8736 25.0997 51.8642 25.1137 51.855 25.1278L44.3453 36.819C44.2237 37.0084 44.1591 37.2283 44.1591 37.4534V38.9736C44.1591 39.2822 43.9081 39.5332 43.5996 39.5332H43.5229L44.2705 26.8473H45.6074C47.5204 26.8473 49.0767 25.291 49.0767 23.3782V23.2358C49.0767 21.3229 47.5204 19.7667 45.6074 19.7667C43.7734 19.7667 42.2522 21.2009 42.1442 23.0317L42.0577 24.5002H37.9424L37.8558 23.0317C37.748 21.2009 36.2267 19.7667 34.3927 19.7667C32.4796 19.7667 30.9234 21.3229 30.9234 23.2358V23.3782C30.9234 25.291 32.4796 26.8473 34.3927 26.8473H35.7295L36.4767 39.525C36.2065 39.4856 35.9976 39.2546 35.9976 38.9736V37.4534C35.9976 37.2283 35.933 37.0084 35.8115 36.819L28.3017 25.1278C28.2926 25.1137 28.2833 25.0997 28.2736 25.0859C27.1937 23.554 26.4333 21.8518 26.0138 20.0262C25.8684 19.3946 25.2379 19.0004 24.6071 19.1455C23.9755 19.2908 23.5811 19.9205 23.7264 20.5521C24.2127 22.6675 25.0922 24.6406 26.3405 26.417L33.6508 37.7974V38.9733C33.6508 40.1583 34.3645 41.1783 35.3839 41.6303V43.6149C35.3839 45.7031 37.0827 47.4019 39.171 47.4019H40.9867C43.0748 47.4019 44.7737 45.7031 44.7737 43.6149V41.6303C45.793 41.1783 46.5068 40.1584 46.5068 38.9733V37.7974L53.817 26.417C55.8073 23.5847 56.8592 20.2528 56.8592 16.7801C56.8586 7.5275 49.3309 0 40.0783 0C35.8743 0 31.8524 1.56205 28.7534 4.39824C25.6746 7.21628 23.7641 11.0476 23.3738 15.1871C23.3128 15.8325 23.7866 16.4049 24.4319 16.4656ZM44.4872 23.1697C44.5221 22.5775 45.0142 22.1136 45.6074 22.1136C46.2262 22.1136 46.7296 22.6169 46.7296 23.2356V23.378C46.7296 23.9967 46.2262 24.5001 45.6074 24.5001H44.4088L44.4872 23.1697ZM34.3927 24.5001C33.7738 24.5001 33.2705 23.9967 33.2705 23.378V23.2356C33.2705 22.6169 33.7738 22.1136 34.3927 22.1136C34.986 22.1136 35.4779 22.5775 35.5128 23.1697L35.5912 24.5001H34.3927ZM41.9194 26.8471L41.1719 39.533H38.8283L38.0808 26.8471H41.9194ZM42.426 43.615C42.426 44.409 41.7801 45.055 40.986 45.055H39.1703C38.3764 45.055 37.7303 44.409 37.7303 43.615V41.8801H42.4259V43.615H42.426Z" fill="#645DDD"/>
<path d="M60.6345 8.91131C60.9094 8.91131 61.1855 8.81523 61.4083 8.61965L63.9688 6.37147C64.4559 5.94399 64.5039 5.20232 64.0764 4.71538C63.6489 4.22844 62.9074 4.18025 62.4203 4.60773L59.8598 6.8559C59.3728 7.28338 59.3247 8.02506 59.7522 8.51199C59.9842 8.77627 60.3086 8.91131 60.6345 8.91131Z" fill="#645DDD"/>
<path d="M59.8599 15.9888L62.4203 18.2372C62.6432 18.4329 62.9192 18.5288 63.1942 18.5288C63.5202 18.5288 63.8445 18.3938 64.0766 18.1295C64.5042 17.6426 64.456 16.9011 63.9691 16.4734L61.4086 14.2251C60.9215 13.7973 60.1801 13.8457 59.7525 14.3327C59.3247 14.8197 59.3728 15.561 59.8599 15.9888Z" fill="#645DDD"/>
<path d="M16.1877 6.37116L18.7482 8.61934C18.971 8.81508 19.247 8.911 19.522 8.911C19.8479 8.911 20.1723 8.77596 20.4043 8.51168C20.8319 8.02475 20.7837 7.28307 20.2967 6.8556L17.7362 4.60742C17.2492 4.17963 16.5076 4.22798 16.0801 4.71507C15.6524 5.20201 15.7006 5.94353 16.1877 6.37116Z" fill="#645DDD"/>
<path d="M16.9624 18.5289C17.2373 18.5289 17.5133 18.4328 17.7363 18.2372L20.2968 15.9889C20.7837 15.5613 20.8319 14.8197 20.4043 14.3328C19.9768 13.8459 19.2353 13.7977 18.7482 14.2252L16.1877 16.4735C15.7008 16.9011 15.6526 17.6426 16.0802 18.1296C16.3121 18.3939 16.6363 18.5289 16.9624 18.5289Z" fill="#645DDD"/>
<path d="M29.6954 40.7065C29.6954 40.0582 29.1699 39.533 28.5218 39.533H16.9619C16.3138 39.533 15.7884 40.0582 15.7884 40.7065C15.7884 41.3547 16.3138 41.88 16.9619 41.88H28.5218C29.1699 41.88 29.6954 41.3547 29.6954 40.7065Z" fill="#645DDD"/>
<path d="M32.0969 45.5024H19.0818C18.4337 45.5024 17.9083 46.0277 17.9083 46.676C17.9083 47.3242 18.4337 47.8495 19.0818 47.8495H32.0969C32.745 47.8495 33.2704 47.3242 33.2704 46.676C33.2704 46.0277 32.745 45.5024 32.0969 45.5024Z" fill="#645DDD"/>
<path d="M32.0969 51.2202H19.0818C18.4337 51.2202 17.9083 51.7455 17.9083 52.3937C17.9083 53.042 18.4337 53.5673 19.0818 53.5673H32.0969C32.745 53.5673 33.2704 53.042 33.2704 52.3937C33.2704 51.7455 32.745 51.2202 32.0969 51.2202Z" fill="#645DDD"/>
<path d="M32.0969 56.9377H19.0818C18.4337 56.9377 17.9083 57.463 17.9083 58.1113C17.9083 58.7595 18.4337 59.2848 19.0818 59.2848H32.0969C32.745 59.2848 33.2704 58.7595 33.2704 58.1113C33.2704 57.463 32.745 56.9377 32.0969 56.9377Z" fill="#645DDD"/>
<path d="M64.3682 40.7065C64.3682 40.0582 63.8428 39.533 63.1947 39.533H51.6348C50.9867 39.533 50.4612 40.0582 50.4612 40.7065C50.4612 41.3547 50.9867 41.88 51.6348 41.88H63.1947C63.8428 41.88 64.3682 41.3547 64.3682 40.7065Z" fill="#645DDD"/>
<path d="M61.0747 45.5024H48.0596C47.4115 45.5024 46.886 46.0277 46.886 46.676C46.886 47.3242 47.4115 47.8495 48.0596 47.8495H61.0747C61.7228 47.8495 62.2482 47.3242 62.2482 46.676C62.2482 46.0277 61.7228 45.5024 61.0747 45.5024Z" fill="#645DDD"/>
<path d="M61.0747 51.2202H48.0596C47.4115 51.2202 46.886 51.7455 46.886 52.3937C46.886 53.042 47.4115 53.5673 48.0596 53.5673H61.0747C61.7228 53.5673 62.2482 53.042 62.2482 52.3937C62.2482 51.7455 61.7228 51.2202 61.0747 51.2202Z" fill="#645DDD"/>
<path d="M61.0747 56.9377H48.0596C47.4115 56.9377 46.886 57.463 46.886 58.1113C46.886 58.7595 47.4115 59.2848 48.0596 59.2848H61.0747C61.7228 59.2848 62.2482 58.7595 62.2482 58.1113C62.2482 57.463 61.7228 56.9377 61.0747 56.9377Z" fill="#645DDD"/>
</g>
<defs>
<clipPath id="clip0">
<rect width="80" height="80" fill="white"/>
</clipPath>
</defs>
</svg>
