<svg width="80" height="80" viewBox="0 0 80 80" fill="none" xmlns="http://www.w3.org/2000/svg">
<path d="M56.7089 0H10.7714C8.18667 0 6.08386 2.10281 6.08386 4.6875V20.625C6.08386 21.488 6.78355 22.1875 7.64636 22.1875C8.50918 22.1875 9.20886 21.488 9.20886 20.625V4.6875C9.20886 3.82594 9.9098 3.125 10.7714 3.125H56.7089C57.5704 3.125 58.2714 3.82594 58.2714 4.6875V62.8125C58.2714 63.6741 57.5704 64.375 56.7089 64.375H10.7714C9.9098 64.375 9.20886 63.6741 9.20886 62.8125V33.802C9.20886 32.9391 8.50918 32.2395 7.64636 32.2395C6.78355 32.2395 6.08386 32.9391 6.08386 33.802V62.8125C6.08386 65.3972 8.18667 67.5 10.7714 67.5H56.7089C59.2936 67.5 61.3964 65.3972 61.3964 62.8125V4.6875C61.3964 2.10281 59.2936 0 56.7089 0Z" fill="#645DDD"/>
<path d="M8.75089 26.5156C8.46042 26.225 8.0573 26.0593 7.64636 26.0593C7.23542 26.0593 6.8323 26.225 6.54167 26.5156C6.25089 26.8078 6.08386 27.2109 6.08386 27.6203C6.08386 28.0328 6.25105 28.4343 6.54167 28.7265C6.8323 29.0171 7.23542 29.1843 7.64636 29.1843C8.05714 29.1843 8.46027 29.0171 8.75089 28.7265C9.04167 28.4359 9.20886 28.0328 9.20886 27.6203C9.20886 27.2093 9.04152 26.8078 8.75089 26.5156Z" fill="#645DDD"/>
<path d="M15.0103 71.0921C14.7197 70.8015 14.3183 70.6343 13.9056 70.6343C13.4947 70.6343 13.0916 70.8015 12.8011 71.0921C12.5103 71.3827 12.3431 71.7858 12.3431 72.1968C12.3431 72.6093 12.5105 73.0108 12.8011 73.3015C13.0916 73.5937 13.4947 73.7593 13.9056 73.7593C14.3183 73.7593 14.7197 73.5937 15.0103 73.3015C15.3011 73.0108 15.4681 72.6093 15.4681 72.1968C15.4681 71.7858 15.301 71.3827 15.0103 71.0921Z" fill="#645DDD"/>
<path d="M66.0938 6.25977C65.2309 6.25977 64.5312 6.9593 64.5312 7.82227V69.0723C64.5312 69.9338 63.8303 70.6348 62.9688 70.6348H20.1562C19.2934 70.6348 18.5938 71.3343 18.5938 72.1973C18.5938 73.0602 19.2934 73.7598 20.1562 73.7598H62.9688C65.5534 73.7598 67.6562 71.6569 67.6562 69.0723V7.82227C67.6562 6.9593 66.9566 6.25977 66.0938 6.25977Z" fill="#645DDD"/>
<path d="M72.3536 12.5C71.4908 12.5 70.7911 13.1995 70.7911 14.0625V75.3125C70.7911 76.1741 70.0902 76.875 69.2286 76.875H20.1661C19.3033 76.875 18.6036 77.5745 18.6036 78.4375C18.6036 79.3005 19.3033 80 20.1661 80H69.2286C71.8133 80 73.9161 77.8972 73.9161 75.3125V14.0625C73.9161 13.1995 73.2164 12.5 72.3536 12.5Z" fill="#645DDD"/>
<path d="M31.3964 11.5625H16.3964C15.5335 11.5625 14.8339 12.262 14.8339 13.125V28.125C14.8339 28.988 15.5335 29.6875 16.3964 29.6875H31.3964C32.2592 29.6875 32.9589 28.988 32.9589 28.125V13.125C32.9589 12.262 32.2592 11.5625 31.3964 11.5625ZM29.8339 26.5625H17.9589V14.6875H29.8339V26.5625Z" fill="#645DDD"/>
<path d="M26.3689 36.7815C25.7586 36.1715 24.7695 36.1714 24.159 36.7815L20.0055 40.9351L18.0742 39.0037C17.464 38.3936 16.475 38.3937 15.8644 39.0037C15.2542 39.6139 15.2542 40.6033 15.8644 41.2134L18.9006 44.2497C19.1937 44.5426 19.5911 44.7073 20.0055 44.7073C20.42 44.7073 20.8172 44.5426 21.1104 44.2497L26.3689 38.9912C26.979 38.3811 26.979 37.3917 26.3689 36.7815Z" fill="#645DDD"/>
<path d="M51.9693 38.9062H33.7401C32.8773 38.9062 32.1776 39.6058 32.1776 40.4688C32.1776 41.3317 32.8773 42.0312 33.7401 42.0312H51.9693C52.8322 42.0312 53.5318 41.3317 53.5318 40.4688C53.5318 39.6058 52.8322 38.9062 51.9693 38.9062Z" fill="#645DDD"/>
<path d="M51.0839 11.5625H40.1464C39.2836 11.5625 38.5839 12.262 38.5839 13.125C38.5839 13.988 39.2836 14.6875 40.1464 14.6875H51.0839C51.9467 14.6875 52.6464 13.988 52.6464 13.125C52.6464 12.262 51.9467 11.5625 51.0839 11.5625Z" fill="#645DDD"/>
<path d="M51.0839 19.0625H40.1464C39.2836 19.0625 38.5839 19.762 38.5839 20.625C38.5839 21.488 39.2836 22.1875 40.1464 22.1875H51.0839C51.9467 22.1875 52.6464 21.488 52.6464 20.625C52.6464 19.762 51.9467 19.0625 51.0839 19.0625Z" fill="#645DDD"/>
<path d="M51.0839 26.5625H40.1464C39.2836 26.5625 38.5839 27.262 38.5839 28.125C38.5839 28.988 39.2836 29.6875 40.1464 29.6875H51.0839C51.9467 29.6875 52.6464 28.988 52.6464 28.125C52.6464 27.262 51.9467 26.5625 51.0839 26.5625Z" fill="#645DDD"/>
<path d="M26.3689 48.7139C25.7586 48.1039 24.7695 48.1038 24.159 48.7139L20.0055 52.8675L18.0742 50.9361C17.464 50.3259 16.475 50.3261 15.8644 50.9361C15.2542 51.5462 15.2542 52.5356 15.8644 53.1458L18.9006 56.182C19.1937 56.475 19.5911 56.6397 20.0055 56.6397C20.42 56.6397 20.8172 56.475 21.1104 56.182L26.3689 50.9236C26.979 50.3134 26.979 49.3241 26.3689 48.7139Z" fill="#645DDD"/>
<path d="M51.9693 50.7812H33.7401C32.8773 50.7812 32.1776 51.4808 32.1776 52.3438C32.1776 53.2067 32.8773 53.9062 33.7401 53.9062H51.9693C52.8322 53.9062 53.5318 53.2067 53.5318 52.3438C53.5318 51.4808 52.8322 50.7812 51.9693 50.7812Z" fill="#645DDD"/>
</svg>
