<svg width="75" height="75" viewBox="0 0 75 75" fill="none" xmlns="http://www.w3.org/2000/svg">
<path d="M37.5 65.332C38.309 65.332 38.9648 64.6762 38.9648 63.8672C38.9648 63.0582 38.309 62.4023 37.5 62.4023C36.691 62.4023 36.0352 63.0582 36.0352 63.8672C36.0352 64.6762 36.691 65.332 37.5 65.332Z" fill="#645DDD"/>
<path d="M61.5246 19.6053L38.0871 9.35134C37.7128 9.18757 37.2872 9.18757 36.9129 9.35134C22.5406 15.6392 13.5006 19.5943 13.4856 19.6007C13.4711 19.6135 12.5977 19.9559 12.5977 20.9473V29.9884C10.8927 30.593 9.66797 32.2212 9.66797 34.1309V39.9903C9.66797 40.7993 10.3239 41.4552 11.1328 41.4552H16.9922C17.8011 41.4552 18.457 40.7993 18.457 39.9903V34.1309C18.457 32.2214 17.2323 30.593 15.5273 29.9884V23.1871L24.3164 27.0323V37.0606C24.3164 37.6398 24.6577 38.1647 25.1871 38.3996C25.4682 38.5243 32.1346 41.4552 37.5 41.4552C42.8654 41.4552 49.5318 38.5243 49.8129 38.3996C50.3423 38.1647 50.6836 37.6398 50.6836 37.0606V27.0323L61.5246 22.2894C62.058 22.0562 62.4023 21.5295 62.4023 20.9473C62.4023 20.3652 62.0578 19.8386 61.5246 19.6053ZM15.5273 38.5255H12.5977V34.1309C12.5977 33.3232 13.2548 32.6661 14.0625 32.6661C14.8702 32.6661 15.5273 33.3232 15.5273 34.1309V38.5255ZM47.7539 36.0824C45.8521 36.8397 41.2025 38.5255 37.5 38.5255C33.8058 38.5255 29.1497 36.8388 27.2461 36.0818V28.314L36.9129 32.5433C37.2869 32.707 37.7128 32.7071 38.0871 32.5433L47.7539 28.314V36.0824ZM37.5 29.6024C34.6983 28.3766 20.5213 22.1741 17.7171 20.9473L37.5 12.2923L57.2829 20.9473C54.7075 22.074 39.0003 28.946 37.5 29.6024Z" fill="#645DDD"/>
<path d="M67.6758 29.7363H55.0781C54.2692 29.7363 53.6133 30.3921 53.6133 31.2012C53.6133 32.0102 54.2692 32.666 55.0781 32.666H67.6758C68.4847 32.666 69.1406 32.0102 69.1406 31.2012C69.1406 30.3921 68.4847 29.7363 67.6758 29.7363Z" fill="#645DDD"/>
<path d="M67.6758 35.5957H55.0781C54.2692 35.5957 53.6133 36.2515 53.6133 37.0605C53.6133 37.8696 54.2692 38.5254 55.0781 38.5254H67.6758C68.4847 38.5254 69.1406 37.8696 69.1406 37.0605C69.1406 36.2515 68.4847 35.5957 67.6758 35.5957Z" fill="#645DDD"/>
<path d="M37.5 2.92969C38.309 2.92969 38.9648 2.27385 38.9648 1.46484C38.9648 0.655833 38.309 0 37.5 0C36.691 0 36.0352 0.655833 36.0352 1.46484C36.0352 2.27385 36.691 2.92969 37.5 2.92969Z" fill="#645DDD"/>
<path d="M73.5352 0H44.0918C43.2829 0 42.627 0.655811 42.627 1.46484C42.627 2.27388 43.2829 2.92969 44.0918 2.92969H72.0703V47.7539H2.92969V2.92969H30.9082C31.7171 2.92969 32.373 2.27388 32.373 1.46484C32.373 0.655811 31.7171 0 30.9082 0H1.46484C0.655957 0 0 0.655811 0 1.46484V58.0078C0 58.8168 0.655957 59.4727 1.46484 59.4727H29.8736L27.4967 72.0703H22.8516C22.0427 72.0703 21.3867 72.7261 21.3867 73.5352C21.3867 74.3442 22.0427 75 22.8516 75H52.1484C52.9573 75 53.6133 74.3442 53.6133 73.5352C53.6133 72.7261 52.9573 72.0703 52.1484 72.0703H47.5033L45.1264 59.4727H73.5352C74.344 59.4727 75 58.8168 75 58.0078V1.46484C75 0.655811 74.344 0 73.5352 0ZM30.478 72.0703L32.8548 59.4727H42.145L44.5219 72.0703H30.478ZM72.0703 56.543C70.5221 56.543 3.09346 56.543 2.92969 56.543V50.6836H72.0703V56.543Z" fill="#645DDD"/>
</svg>
