<svg width="282" height="372" viewBox="0 0 282 372" fill="none" xmlns="http://www.w3.org/2000/svg">
<path d="M140.538 0.0629883L0 371.5H52.1108L140.538 137.772L228.983 371.5H281.094L140.538 0.0629883Z" fill="#EB5B1F"/>
<path d="M123.039 371.726L141.509 322.916L159.978 371.726H123.039Z" fill="#EB5B1F"/>
<path d="M140.539 181.91L68.8223 371.5H105.707L140.557 279.418L175.389 371.5H212.292L140.539 181.91Z" fill="#EB5B1F"/>
<path d="M140.547 0L177.674 98.2748L157.171 77.4804L140.547 98.2748L125.032 77.4804L103.421 98.2749L140.547 0Z" fill="#F8F8F8"/>
<path d="M140.047 0.284668V98.2748L157.138 77.4804L178.217 98.2748L140.047 0.284668Z" fill="#A5A5A5"/>
<circle cx="145.547" cy="118" r="12" fill="white"/>
<circle cx="145.547" cy="241" r="12" fill="white"/>
<circle cx="145.547" cy="358" r="12" fill="white"/>
<path d="M146.18 112.818H144.947L142.402 114.509V115.761L144.888 114.111H144.947V123H146.18V112.818Z" fill="#30373A"/>
<path d="M141.601 246H148.024V244.906H143.291V244.827L145.578 242.381C147.328 240.506 147.845 239.631 147.845 238.503C147.845 236.932 146.572 235.679 144.783 235.679C142.998 235.679 141.641 236.892 141.641 238.682H142.814C142.814 237.523 143.565 236.753 144.743 236.753C145.847 236.753 146.692 237.429 146.692 238.503C146.692 239.442 146.14 240.138 144.962 241.426L141.601 245.105V246Z" fill="#30373A"/>
<path d="M145.041 363.139C147.015 363.139 148.482 361.901 148.482 360.236C148.482 358.943 147.716 358.004 146.433 357.79V357.71C147.462 357.397 148.104 356.552 148.104 355.403C148.104 353.962 146.965 352.679 145.081 352.679C143.321 352.679 141.859 353.763 141.8 355.364H142.993C143.038 354.349 144.002 353.753 145.061 353.753C146.185 353.753 146.911 354.434 146.911 355.463C146.911 356.537 146.07 357.233 144.862 357.233H144.047V358.327H144.862C146.408 358.327 147.268 359.112 147.268 360.236C147.268 361.315 146.329 362.045 145.021 362.045C143.843 362.045 142.908 361.439 142.834 360.455H141.581C141.656 362.055 143.067 363.139 145.041 363.139Z" fill="#30373A"/>
</svg>
