<svg width="90" height="90" viewBox="0 0 90 90" fill="none" xmlns="http://www.w3.org/2000/svg">
<path d="M60.5065 48.6483L52.8456 45.2434C52.3044 45.0029 51.9549 44.4649 51.9549 43.8728V41.7691C54.5284 39.7186 56.1825 36.561 56.1825 33.0225V30.0611C57.0303 29.5927 57.5915 28.6874 57.5915 27.6735V27.3861C57.5915 21.2204 52.5752 16.2041 46.4095 16.2041H43.5914C37.4257 16.2041 32.4094 21.2204 32.4094 27.3861V29.9938C32.4094 30.885 32.793 31.6924 33.4614 32.209C33.5748 32.2966 33.6942 32.3735 33.8185 32.4402V33.0224C33.8185 36.5608 35.4724 39.7184 38.0457 41.7687V43.8727C38.0457 44.4647 37.696 45.0028 37.155 45.2432L29.4941 48.6481C26.9851 49.7631 25.3639 52.2578 25.3639 55.0033V72.4767C25.3639 73.2048 25.9542 73.7951 26.6823 73.7951C27.4103 73.7951 28.0006 73.2048 28.0006 72.4767V55.0035C28.0006 54.8507 28.0115 54.6997 28.0273 54.55L31.5574 58.08C32.1067 58.6295 32.4094 59.3599 32.4094 60.137V72.4769C32.4094 73.205 32.9997 73.7952 33.7278 73.7952C34.4558 73.7952 35.0461 73.205 35.0461 72.4769V60.137C35.0461 58.6557 34.4694 57.2632 33.4219 56.2157L29.2135 52.0071C29.5927 51.6137 30.0476 51.2876 30.5651 51.0575L38.0968 47.7101L43.6823 53.2956V72.4767C43.6823 73.2048 44.2725 73.7951 45.0006 73.7951C45.7287 73.7951 46.319 73.2048 46.319 72.4767V53.2958L51.9045 47.7103L59.436 51.0575C59.9535 51.2876 60.4084 51.6137 60.7876 52.0073L56.5792 56.2157C55.5317 57.2632 54.955 58.6557 54.955 60.137V72.4769C54.955 73.205 55.5452 73.7952 56.2733 73.7952C57.0014 73.7952 57.5917 73.205 57.5917 72.4769V60.137C57.5917 59.3601 57.8942 58.6295 58.4437 58.08L61.9736 54.5502C61.9894 54.6999 62.0003 54.8506 62.0003 55.0033V72.4767C62.0003 73.2048 62.5906 73.7951 63.3187 73.7951C64.0468 73.7951 64.637 73.2048 64.637 72.4767V55.0035C64.6365 52.258 63.0154 49.7633 60.5065 48.6483ZM45.0001 50.8853L40.0991 45.9841C40.4718 45.3571 40.6822 44.6317 40.6822 43.8728V43.3363C42.0116 43.895 43.4705 44.2045 45.0003 44.2045C46.5301 44.2045 47.9887 43.8952 49.318 43.3365V43.8728C49.318 44.6319 49.5284 45.3571 49.9013 45.9843L45.0001 50.8853ZM45.0003 41.5676C40.2885 41.5678 36.455 37.7344 36.455 33.0225V32.4296C37.2777 32.1035 38.0806 31.5846 38.8493 30.8754C39.3842 30.3816 39.4178 29.5475 38.9239 29.0124C38.4301 28.4775 37.5962 28.4439 37.0609 28.9377C36.4016 29.5465 35.7427 29.9397 35.1032 30.1067C35.0878 30.1107 35.0764 30.1125 35.0683 30.1132C35.0588 30.0947 35.0459 30.056 35.0459 29.994V27.3863C35.0459 22.6744 38.8794 18.841 43.5912 18.841H46.4093C51.1214 18.841 54.9546 22.6744 54.9546 27.3863V27.6737C54.9546 27.7164 54.929 27.7535 54.8952 27.7602C47.0007 29.3193 43.041 26.3808 41.7051 25.0449C41.1902 24.53 40.3554 24.53 39.8407 25.0449C39.3259 25.5597 39.3259 26.3945 39.8407 26.9092C43.9347 31.0032 49.9086 31.077 53.5456 30.64V33.0224C53.5456 37.7342 49.7121 41.5676 45.0003 41.5676Z" fill="#645DDD"/>
<path d="M23.7731 41.4774V38.6587C23.7731 35.2194 21.9857 32.1917 19.2926 30.4494C19.4588 29.9159 19.5457 29.357 19.5457 28.7951C19.5457 25.7372 17.058 23.2495 14.0001 23.2495C10.9422 23.2495 8.45457 25.7373 8.45457 28.7951C8.45457 29.3641 8.5407 29.9174 8.70734 30.4497C6.01437 32.1919 4.2272 35.2195 4.2272 38.6587V41.4768C4.2272 44.8074 5.90292 47.7524 8.45439 49.5176V52.4168C8.45439 52.9886 8.13675 53.5026 7.62541 53.7583L3.06545 56.0382C1.17457 56.9839 0 58.8845 0 60.9986V72.477C0 73.2051 0.590275 73.7953 1.31836 73.7953C2.04645 73.7953 2.63672 73.2051 2.63672 72.477V61.5688L4.78442 63.7165C5.33374 64.266 5.63644 64.9964 5.63644 65.7735V72.477C5.63644 73.2051 6.22671 73.7953 6.9548 73.7953C7.68289 73.7953 8.27316 73.2051 8.27316 72.477V65.7735C8.27316 64.2922 7.69625 62.8997 6.64894 61.8522L3.65977 58.863C3.64536 58.8486 3.62989 58.8361 3.61512 58.8226C3.80268 58.657 4.01309 58.5129 4.24477 58.3969L8.80472 56.117C9.03834 56.0001 9.25578 55.8621 9.45846 55.7088L12.6818 58.9323V72.4771C12.6818 73.2052 13.272 73.7955 14.0001 73.7955C14.7282 73.7955 15.3185 73.2052 15.3185 72.4771V58.9321L18.542 55.7086C18.7448 55.8621 18.9621 56.0001 19.1957 56.1168L20.4531 56.7456C20.6424 56.8403 20.8435 56.8852 21.0418 56.8852C21.5253 56.8852 21.991 56.618 22.222 56.1562C22.5477 55.5049 22.2837 54.713 21.6324 54.3875L20.375 53.7587C19.8635 53.5029 19.5459 52.9889 19.5459 52.4173V49.5181C22.0973 47.7529 23.7731 44.8077 23.7731 41.4774ZM14.0001 25.8862C15.6041 25.8862 16.909 27.1912 16.909 28.7951C16.909 28.9717 16.8931 29.1449 16.8629 29.3145C15.9569 29.0364 14.9959 28.8858 14.0001 28.8858C13.0057 28.8858 12.046 29.0359 11.1414 29.3133C11.111 29.1436 11.0913 28.9714 11.0913 28.7951C11.0913 27.1911 12.3961 25.8862 14.0001 25.8862ZM14.0001 31.5227C17.935 31.5227 21.1363 34.724 21.1363 38.6589V39.1367C15.6475 40.8171 12.3764 36.6418 12.2367 36.4588C12.0073 36.1531 11.6566 35.9619 11.2755 35.9348C10.8944 35.9081 10.52 36.0475 10.2498 36.3176C8.9914 37.5761 7.75882 38.183 6.86867 38.4761C6.96622 34.6254 10.1266 31.5227 14.0001 31.5227ZM14.0001 56.5215L10.9537 53.475C11.0426 53.135 11.0913 52.7806 11.0913 52.417V50.8077C12.0105 51.0949 12.9876 51.2498 14.0001 51.2498C15.0126 51.2498 15.9898 51.0949 16.909 50.8077V52.417C16.909 52.7806 16.9576 53.1352 17.0466 53.475L14.0001 56.5215ZM14.0001 48.613C10.0653 48.613 6.86392 45.4117 6.86392 41.4768V41.2037C7.91527 40.9621 9.4741 40.4009 11.1003 39.0931C11.6756 39.6359 12.4979 40.3017 13.545 40.8728C14.7836 41.5484 16.4941 42.1733 18.5835 42.1733C19.3775 42.1733 20.227 42.081 21.1251 41.869C20.9206 45.6223 17.8033 48.613 14.0001 48.613Z" fill="#645DDD"/>
<path d="M86.9347 53.2208L79.5566 49.5317C79.0452 49.2759 78.7276 48.7619 78.7276 48.1903V46.3219C80.4547 44.7886 81.5457 42.554 81.5457 40.0685V38.5678C81.5761 38.5678 81.606 38.5687 81.6364 38.5687C82.3645 38.5687 82.9548 37.9784 82.9548 37.2504V34.4322C82.9548 29.8204 79.2027 26.0684 74.5909 26.0684H71.7728C67.161 26.0684 63.4089 29.8204 63.4089 34.4322V37.2504C63.4089 37.9784 63.9992 38.5687 64.7273 38.5687C64.7382 38.5687 64.7698 38.5684 64.818 38.5664V40.0685C64.818 42.5542 65.9093 44.7888 67.6363 46.3221V48.1905C67.6363 48.7623 67.3187 49.2763 66.8071 49.5319C66.1559 49.8574 65.8919 50.6493 66.2176 51.3006C66.4486 51.7625 66.9142 52.0297 67.3978 52.0297C67.5959 52.0297 67.797 51.9849 67.9863 51.8903C68.2199 51.7734 68.4373 51.6354 68.64 51.4822L71.8635 54.7056V72.4777C71.8635 73.2058 72.4538 73.7961 73.1819 73.7961C73.91 73.7961 74.5002 73.2058 74.5002 72.4777V54.7053L77.7235 51.4818C77.9264 51.6353 78.1437 51.7733 78.3773 51.89L85.5166 55.4598L83.3512 57.6252C82.3039 58.6727 81.727 60.0652 81.727 61.5465V72.4773C81.727 73.2054 82.3172 73.7957 83.0453 73.7957C83.7734 73.7957 84.3637 73.2054 84.3637 72.4773V61.5465C84.3637 60.7696 84.6662 60.039 85.2157 59.4895L87.2669 57.4383C87.3291 57.6769 87.3632 57.9256 87.3632 58.1808V72.4773C87.3632 73.2054 87.9535 73.7957 88.6816 73.7957C89.4097 73.7957 89.9999 73.2054 89.9999 72.4773V58.1808C90.0001 56.0669 88.8256 54.1664 86.9347 53.2208ZM66.0455 35.6608V34.432H66.0457C66.0457 31.2741 68.6149 28.7049 71.7728 28.7049H74.5909C77.7488 28.7049 80.3181 31.2741 80.3181 34.432V35.8965C74.5871 35.5873 71.1286 33.3571 71.095 33.3352C70.8719 33.1865 70.6174 33.1137 70.3641 33.1137C70.0238 33.1137 69.6863 33.2452 69.4314 33.4999C68.17 34.7613 66.9341 35.3684 66.0455 35.6608ZM73.1819 52.2948L70.1354 49.2483C70.2243 48.9084 70.273 48.554 70.273 48.1903V47.9096C71.1794 48.2469 72.1593 48.4322 73.1819 48.4322C74.2044 48.4322 75.1844 48.2469 76.0907 47.9096V48.1903C76.0907 48.554 76.1392 48.9084 76.2283 49.2483L73.1819 52.2948ZM73.1819 45.7956C70.0239 45.7956 67.4547 43.2266 67.4547 40.0685V37.9431C68.3781 37.5741 69.4539 36.9876 70.5487 36.0549C71.9331 36.7752 74.8296 38.0203 78.909 38.4316V40.0685C78.909 43.2264 76.3398 45.7956 73.1819 45.7956Z" fill="#645DDD"/>
</svg>
