<svg width="60" height="60" viewBox="0 0 60 60" fill="none" xmlns="http://www.w3.org/2000/svg">
<g clip-path="url(#clip0)">
<path d="M54.0955 5.04852L36.595 0.0484729C36.3226 -0.0296932 36.0317 -0.0129349 35.77 0.0959351L5.76926 12.5963C5.3046 12.7907 5.00202 13.2451 5.00178 13.7489V46.2496C5.00178 46.9352 5.55387 47.4928 6.23931 47.4997C5.54895 47.5039 4.99276 48.0672 4.9971 48.7574C5.00038 49.2946 5.34656 49.7696 5.85681 49.9373L35.8576 59.9375C35.9852 59.9788 36.1184 59.9998 36.2526 60C36.3685 59.9993 36.4838 59.9824 36.5952 59.9499L54.0956 54.9498C54.6318 54.7969 55.0022 54.3074 55.0031 53.7497V6.24855C55.002 5.69096 54.6318 5.20134 54.0955 5.04852ZM6.81179 47.3672L14.312 43.6171C14.7349 43.4052 15.002 42.9727 15.002 42.4996V15.9763L37.5026 10.3512V52.2922L6.4417 47.5146C6.38299 47.5048 6.32369 47.4997 6.26416 47.4996C6.45436 47.4971 6.64151 47.4519 6.81179 47.3672Z" fill="#F4F4F4"/>
</g>
<defs>
<clipPath id="clip0">
<rect width="60" height="60" fill="white"/>
</clipPath>
</defs>
</svg>
