<svg width="60" height="60" viewBox="0 0 60 60" fill="none" xmlns="http://www.w3.org/2000/svg">
<path d="M55.9082 51.6213C58.1644 51.6213 60 49.7857 60 47.5294V5.85938C60 2.62852 57.3715 0 54.1406 0H5.85938C2.62852 0 0 2.62852 0 5.85938V47.5294C0 49.7857 1.83562 51.6213 4.09184 51.6213H5.39062V57.6562H1.17188C0.524648 57.6562 0 58.181 0 58.8281C0 59.4752 0.524648 60 1.17188 60H58.8281C59.4754 60 60 59.4752 60 58.8281C60 58.181 59.4754 57.6562 58.8281 57.6562H54.6094V51.6213H55.9082ZM2.34375 5.85938C2.34375 3.92086 3.92086 2.34375 5.85938 2.34375H54.1406C56.0791 2.34375 57.6562 3.92086 57.6562 5.85938V8.4375H2.46141C2.42168 8.4375 2.38242 8.43961 2.34375 8.44348V5.85938ZM12.8906 57.6562H7.73438V47.1094H12.8906V57.6562ZM26.0156 57.6562H20.8594V34.1522H26.0156V57.6562ZM39.1406 57.6562H33.9844V44.0625H39.1406V57.6562ZM53.4375 30.0586H45.9375C45.2903 30.0586 44.7656 30.5834 44.7656 31.2305V37.1483C44.7656 37.7954 45.2903 38.3202 45.9375 38.3202C46.5847 38.3202 47.1094 37.7954 47.1094 37.1483V32.4023H52.2656V57.6562H47.1094V45.0293C47.1094 44.3822 46.5847 43.8574 45.9375 43.8574C45.2903 43.8574 44.7656 44.3822 44.7656 45.0293V57.6562H41.4844V42.8906C41.4844 42.2435 40.9597 41.7188 40.3125 41.7188H32.8125C32.1653 41.7188 31.6406 42.2435 31.6406 42.8906V57.6562H28.3594V32.9803C28.3594 32.3332 27.8347 31.8084 27.1875 31.8084H19.6875C19.0403 31.8084 18.5156 32.3332 18.5156 32.9803V57.6562H15.2344V45.9375C15.2344 45.2904 14.7097 44.7656 14.0625 44.7656H6.5625C5.91527 44.7656 5.39062 45.2904 5.39062 45.9375V49.2776H4.09184C3.12785 49.2776 2.34375 48.4934 2.34375 47.5294V10.7753C2.38242 10.7791 2.42168 10.7812 2.46141 10.7812H57.6562V47.5294C57.6562 48.4934 56.872 49.2776 55.9082 49.2776H54.6094V31.2305C54.6094 30.5834 54.0847 30.0586 53.4375 30.0586Z" fill="#F4F4F4"/>
<path d="M52.5002 4.21875H26.0234C25.3762 4.21875 24.8516 4.74352 24.8516 5.39062C24.8516 6.03773 25.3762 6.5625 26.0234 6.5625H52.5002C53.1474 6.5625 53.6721 6.03773 53.6721 5.39062C53.6721 4.74352 53.1474 4.21875 52.5002 4.21875Z" fill="#F4F4F4"/>
<path d="M13.016 4.56211C12.798 4.34414 12.4957 4.21875 12.1875 4.21875C11.8793 4.21875 11.577 4.34402 11.359 4.56211C11.141 4.78008 11.0156 5.08242 11.0156 5.39062C11.0156 5.69883 11.141 6.00117 11.359 6.21902C11.577 6.43711 11.8793 6.5625 12.1875 6.5625C12.4957 6.5625 12.798 6.43711 13.016 6.21902C13.234 6.00117 13.3594 5.69883 13.3594 5.39062C13.3594 5.08242 13.234 4.78008 13.016 4.56211Z" fill="#F4F4F4"/>
<path d="M8.32852 4.56211C8.11055 4.34414 7.8082 4.21875 7.5 4.21875C7.1918 4.21875 6.88945 4.34402 6.67148 4.56211C6.45352 4.78008 6.32812 5.08242 6.32812 5.39062C6.32812 5.69883 6.45352 6.00117 6.67148 6.21902C6.88945 6.43711 7.1918 6.5625 7.5 6.5625C7.8082 6.5625 8.11055 6.43711 8.32852 6.21902C8.54648 6.00117 8.67188 5.69883 8.67188 5.39062C8.67188 5.08242 8.54648 4.78008 8.32852 4.56211Z" fill="#F4F4F4"/>
<path d="M17.7035 4.56211C17.4855 4.34414 17.1844 4.21875 16.875 4.21875C16.5668 4.21875 16.2645 4.34402 16.0465 4.56211C15.8285 4.78008 15.7031 5.08242 15.7031 5.39062C15.7031 5.69883 15.8285 6.00117 16.0465 6.21902C16.2645 6.43711 16.5668 6.5625 16.875 6.5625C17.1832 6.5625 17.4855 6.43711 17.7035 6.21902C17.9215 6.00117 18.0469 5.69883 18.0469 5.39062C18.0469 5.08242 17.9215 4.78008 17.7035 4.56211Z" fill="#F4F4F4"/>
<path d="M46.766 40.4964C46.548 40.2773 46.2457 40.1531 45.9375 40.1531C45.6293 40.1531 45.327 40.2774 45.109 40.4964C44.891 40.7144 44.7656 41.0167 44.7656 41.325C44.7656 41.6332 44.891 41.9355 45.109 42.1535C45.327 42.3713 45.6293 42.4968 45.9375 42.4968C46.2457 42.4968 46.548 42.3714 46.766 42.1535C46.984 41.9355 47.1094 41.6332 47.1094 41.325C47.1094 41.0156 46.984 40.7144 46.766 40.4964Z" fill="#F4F4F4"/>
<path d="M49.6872 15.9304C47.3609 15.9304 45.4684 17.8229 45.4684 20.1492C45.4684 21.0732 45.7679 21.9282 46.2736 22.6239L38.4895 30.4081C37.8854 30.0738 37.1914 29.8828 36.4533 29.8828C35.7883 29.8828 35.159 30.038 34.5989 30.3133L26.4709 22.1853C26.8053 21.5812 26.9963 20.8872 26.9963 20.1492C26.9963 17.8229 25.1038 15.9304 22.7775 15.9304C20.4513 15.9304 18.5588 17.8229 18.5588 20.1492C18.5588 20.9622 18.7906 21.7218 19.1907 22.3666L12.2704 29.2867C11.6663 28.9524 10.9723 28.7614 10.2344 28.7614C7.90809 28.7614 6.01562 30.6539 6.01562 32.9801C6.01562 35.3064 7.90809 37.1989 10.2344 37.1989C12.5607 37.1989 14.4531 35.3064 14.4531 32.9801C14.4531 32.2421 14.2621 31.5481 13.9278 30.944L20.9307 23.9411C21.4888 24.2141 22.1155 24.3678 22.7775 24.3678C23.5155 24.3678 24.2095 24.1768 24.8136 23.8425L32.862 31.8908C32.4646 32.5341 32.2346 33.2912 32.2346 34.1013C32.2346 36.4276 34.127 38.32 36.4533 38.32C38.7796 38.32 40.6721 36.4276 40.6721 34.1013C40.6721 33.3632 40.4811 32.6692 40.1467 32.0651L48.1395 24.0724C48.6191 24.2625 49.141 24.3679 49.6872 24.3679C52.0135 24.3679 53.9059 22.4755 53.9059 20.1492C53.9059 17.8229 52.0135 15.9304 49.6872 15.9304ZM10.2345 34.8554C9.20066 34.8554 8.35949 34.0142 8.35949 32.9804C8.35949 31.9466 9.20066 31.1054 10.2345 31.1054C11.2683 31.1054 12.1095 31.9466 12.1095 32.9804C12.1095 34.0142 11.2683 34.8554 10.2345 34.8554ZM22.7777 22.0242C21.7438 22.0242 20.9027 21.183 20.9027 20.1492C20.9027 19.1153 21.7438 18.2742 22.7777 18.2742C23.8115 18.2742 24.6527 19.1153 24.6527 20.1492C24.6527 21.183 23.8115 22.0242 22.7777 22.0242ZM36.4534 35.9765C35.4196 35.9765 34.5784 35.1353 34.5784 34.1015C34.5784 33.0677 35.4196 32.2265 36.4534 32.2265C37.4873 32.2265 38.3284 33.0677 38.3284 34.1015C38.3284 35.1353 37.4873 35.9765 36.4534 35.9765ZM49.6872 22.0242C48.6534 22.0242 47.8122 21.183 47.8122 20.1492C47.8122 19.1153 48.6534 18.2742 49.6872 18.2742C50.721 18.2742 51.5622 19.1153 51.5622 20.1492C51.5622 21.183 50.721 22.0242 49.6872 22.0242Z" fill="#F4F4F4"/>
<path d="M17.3822 15.1114C17.1631 14.8935 16.8619 14.7679 16.5537 14.7679C16.2443 14.7679 15.942 14.8933 15.724 15.1114C15.5061 15.3293 15.3818 15.6316 15.3818 15.9398C15.3818 16.248 15.5061 16.5504 15.724 16.7683C15.9432 16.9863 16.2443 17.1117 16.5537 17.1117C16.8619 17.1117 17.1631 16.9864 17.3822 16.7683C17.6002 16.5504 17.7256 16.248 17.7256 15.9398C17.7256 15.6316 17.6002 15.3293 17.3822 15.1114Z" fill="#F4F4F4"/>
<path d="M12.1875 14.7681H6.5625C5.91527 14.7681 5.39062 15.2928 5.39062 15.9399C5.39062 16.587 5.91527 17.1118 6.5625 17.1118H12.1875C12.8347 17.1118 13.3594 16.587 13.3594 15.9399C13.3594 15.2928 12.8347 14.7681 12.1875 14.7681Z" fill="#F4F4F4"/>
<path d="M12.1875 20.3931H6.5625C5.91527 20.3931 5.39062 20.9178 5.39062 21.5649C5.39062 22.2121 5.91527 22.7368 6.5625 22.7368H12.1875C12.8347 22.7368 13.3594 22.2121 13.3594 21.5649C13.3594 20.9178 12.8347 20.3931 12.1875 20.3931Z" fill="#F4F4F4"/>
</svg>
