<svg width="60" height="60" viewBox="0 0 60 60" fill="none" xmlns="http://www.w3.org/2000/svg">
<path d="M44.516 0.968506V2.90551H47.9884L28.0632 22.8307L18.39 13.1457L6.09473 25.4409L7.45299 26.811L18.39 15.8858L28.0632 25.5591L49.3585 4.27559V7.73622H51.2955V0.968506H44.516Z" fill="#F4F4F4"/>
<path d="M58.063 57.0945V14.5157H48.3898V57.0945H46.4528V20.3268H36.7795V57.1063H34.8425V33.874H25.1575V57.0945H23.2205V28.063H13.5472V57.0945H11.6102V43.5472H1.93701V57.0945H0V59.0315H60V57.0945H58.063ZM9.68504 57.0945H3.87402V45.4843H9.68504V57.0945ZM21.2953 57.0945H15.4843V30H21.2953V57.0945ZM32.9055 57.1063H27.0945V35.811H32.9055V57.1063ZM44.5157 57.1063H38.7047V22.2638H44.5157V57.1063ZM56.1378 57.0945H50.3268V16.4528H56.1378V57.0945Z" fill="#F4F4F4"/>
</svg>
