<svg width="60" height="60" viewBox="0 0 60 60" fill="none" xmlns="http://www.w3.org/2000/svg">
<path d="M15.765 49.6875H17.9859C18.3741 50.7759 19.4053 51.5625 20.6259 51.5625C22.1766 51.5625 23.4384 50.3006 23.4384 48.75C23.4384 47.1994 22.1766 45.9375 20.6259 45.9375C19.4053 45.9375 18.3741 46.7241 17.9859 47.8125H15.765C15.3769 46.7241 14.3456 45.9375 13.125 45.9375C11.5744 45.9375 10.3125 47.1994 10.3125 48.75C10.3125 50.3006 11.5744 51.5625 13.125 51.5625C14.3456 51.5625 15.3769 50.7759 15.765 49.6875ZM20.625 47.8125C21.1416 47.8125 21.5625 48.2325 21.5625 48.75C21.5625 49.2675 21.1416 49.6875 20.625 49.6875C20.1084 49.6875 19.6875 49.2675 19.6875 48.75C19.6875 48.2325 20.1084 47.8125 20.625 47.8125ZM12.1875 48.75C12.1875 48.2325 12.6084 47.8125 13.125 47.8125C13.6416 47.8125 14.0625 48.2325 14.0625 48.75C14.0625 49.2675 13.6416 49.6875 13.125 49.6875C12.6084 49.6875 12.1875 49.2675 12.1875 48.75Z" fill="#F4F4F4"/>
<path d="M47.985 45.9375C48.3731 47.0259 49.4044 47.8125 50.625 47.8125C52.1756 47.8125 53.4375 46.5506 53.4375 45C53.4375 43.4494 52.1756 42.1875 50.625 42.1875C49.4044 42.1875 48.3731 42.9741 47.985 44.0625H42.1875C41.67 44.0625 41.25 44.4816 41.25 45V49.86C40.1616 50.2481 39.375 51.2794 39.375 52.5C39.375 54.0506 40.6369 55.3125 42.1875 55.3125C43.7381 55.3125 45 54.0506 45 52.5C45 51.2794 44.2134 50.2481 43.125 49.86V45.9375H47.985ZM50.625 44.0625C51.1416 44.0625 51.5625 44.4825 51.5625 45C51.5625 45.5175 51.1416 45.9375 50.625 45.9375C50.1084 45.9375 49.6875 45.5175 49.6875 45C49.6875 44.4825 50.1084 44.0625 50.625 44.0625ZM42.1875 53.4375C41.6709 53.4375 41.25 53.0175 41.25 52.5C41.25 51.9825 41.6709 51.5625 42.1875 51.5625C42.7041 51.5625 43.125 51.9825 43.125 52.5C43.125 53.0175 42.7041 53.4375 42.1875 53.4375Z" fill="#F4F4F4"/>
<path d="M30 1.875C14.4919 1.875 1.875 14.4919 1.875 30C1.875 30.5184 2.295 30.9375 2.8125 30.9375H15.9375V33.9225C15.1434 34.2056 14.5181 34.8309 14.235 35.625H9.76312L7.22531 33.0872C7.05 32.9109 6.81094 32.8125 6.5625 32.8125H2.8125V34.6875H6.17438L8.71219 37.2253C8.8875 37.4016 9.12656 37.5 9.375 37.5H14.235C14.5181 38.2941 15.1434 38.9194 15.9375 39.2025V41.25H10.14C9.75187 40.1616 8.72062 39.375 7.5 39.375C5.94938 39.375 4.6875 40.6369 4.6875 42.1875C4.6875 43.7381 5.94938 45 7.5 45C8.72062 45 9.75187 44.2134 10.14 43.125H16.875C17.3925 43.125 17.8125 42.7059 17.8125 42.1875V39.2025C18.9009 38.8144 19.6875 37.7831 19.6875 36.5625C19.6875 35.3419 18.9009 34.3106 17.8125 33.9225V30.9375H21.5625V41.25C21.5625 41.4994 21.6609 41.7375 21.8372 41.9128L25.3125 45.3881V52.6725C24.2241 53.0606 23.4375 54.0919 23.4375 55.3125C23.4375 56.8631 24.6994 58.125 26.25 58.125C27.8006 58.125 29.0625 56.8631 29.0625 55.3125C29.0625 54.0919 28.2759 53.0606 27.1875 52.6725V45.3881L28.7878 43.7878C28.9641 43.6125 29.0625 43.3744 29.0625 43.125V38.265C30.1509 37.8769 30.9375 36.8456 30.9375 35.625C30.9375 34.4044 30.1509 33.3731 29.0625 32.985V30.9375H38.0494L35.8997 33.0872C35.7234 33.2625 35.625 33.5006 35.625 33.75V35.7975C34.5366 36.1856 33.75 37.2169 33.75 38.4375C33.75 39.6581 34.5366 40.6894 35.625 41.0775V43.6744L34.0247 45.2747C33.8484 45.45 33.75 45.6881 33.75 45.9375V51.735C32.6616 52.1231 31.875 53.1544 31.875 54.375C31.875 55.9256 33.1369 57.1875 34.6875 57.1875C36.2381 57.1875 37.5 55.9256 37.5 54.375C37.5 53.1544 36.7134 52.1231 35.625 51.735V46.3256L37.2253 44.7253C37.4016 44.55 37.5 44.3119 37.5 44.0625V41.0775C38.2941 40.7944 38.9194 40.1691 39.2025 39.375H44.0625C44.3109 39.375 44.55 39.2766 44.7253 39.1003L47.2631 36.5625H51.735C52.1231 37.6509 53.1544 38.4375 54.375 38.4375C55.9256 38.4375 57.1875 37.1756 57.1875 35.625C57.1875 34.4044 56.4009 33.3731 55.3125 32.985V30.9375H57.1875C57.705 30.9375 58.125 30.5184 58.125 30C58.125 14.4919 45.5081 1.875 30 1.875ZM7.5 43.125C6.98344 43.125 6.5625 42.705 6.5625 42.1875C6.5625 41.67 6.98344 41.25 7.5 41.25C8.01656 41.25 8.4375 41.67 8.4375 42.1875C8.4375 42.705 8.01656 43.125 7.5 43.125ZM16.875 37.5C16.3584 37.5 15.9375 37.08 15.9375 36.5625C15.9375 36.045 16.3584 35.625 16.875 35.625C17.3916 35.625 17.8125 36.045 17.8125 36.5625C17.8125 37.08 17.3916 37.5 16.875 37.5ZM34.6875 55.3125C34.1709 55.3125 33.75 54.8925 33.75 54.375C33.75 53.8575 34.1709 53.4375 34.6875 53.4375C35.2041 53.4375 35.625 53.8575 35.625 54.375C35.625 54.8925 35.2041 55.3125 34.6875 55.3125ZM52.7316 16.8862C51.2578 17.4694 49.6519 17.9897 47.9419 18.4453C47.1338 15.8925 46.0669 13.5431 44.7881 11.4637C45.81 11.2041 46.7653 10.9144 47.6569 10.6003C49.6528 12.4191 51.3703 14.5359 52.7316 16.8862ZM38.4309 29.0625C38.4075 26.7272 38.2987 24.3787 38.1056 22.0903C41.0991 21.7866 43.9772 21.3169 46.6528 20.6972C47.3278 23.3128 47.7253 26.1262 47.7956 29.0625H38.4309ZM34.3997 11.1075C32.9616 11.1966 31.4934 11.25 30 11.25C28.5066 11.25 27.0384 11.1966 25.6003 11.1075C26.9119 6.37219 28.5975 3.75 30 3.75C31.4025 3.75 33.0881 6.37219 34.3997 11.1075ZM33.5803 4.28344C36.6459 5.20875 39.4247 7.305 41.6991 10.2309C40.0125 10.5487 38.1975 10.7887 36.3084 10.9603C35.5791 8.19656 34.6678 5.88375 33.5803 4.28344ZM34.8675 12.9591C35.3616 15.105 35.7806 17.5903 36.0778 20.3897C34.0866 20.5425 32.0531 20.625 30 20.625C27.9469 20.625 25.9134 20.5425 23.9231 20.3897C24.2203 17.5903 24.6394 15.105 25.1334 12.9591C26.7216 13.0659 28.3491 13.125 30 13.125C31.6509 13.125 33.2784 13.0659 34.8675 12.9591ZM23.6916 10.9594C21.8025 10.7878 19.9875 10.5478 18.3009 10.23C20.5753 7.30312 23.3531 5.20781 26.4197 4.2825C25.3322 5.88375 24.4209 8.19656 23.6916 10.9594ZM23.2472 12.8006C22.7438 15.0806 22.3519 17.5969 22.0725 20.2256C19.1953 19.9341 16.4325 19.4859 13.8656 18.8953C14.6897 16.3041 15.7941 13.9453 17.1188 11.8988C19.0219 12.2925 21.0816 12.5944 23.2472 12.8006ZM21.8934 22.0903C21.7003 24.3787 21.5916 26.7272 21.5681 29.0625H12.2025C12.2728 26.1272 12.6703 23.3128 13.3453 20.6972C16.0219 21.3178 18.9 21.7866 21.8934 22.0903ZM23.7488 22.2553C25.7981 22.4147 27.8897 22.5 30 22.5C32.1103 22.5 34.2019 22.4147 36.2513 22.2553C36.4266 24.3713 36.5334 26.6437 36.555 29.0625H23.4441C23.4666 26.6447 23.5734 24.3713 23.7488 22.2553ZM37.9284 20.2256C37.6491 17.5969 37.2572 15.0806 36.7537 12.8006C38.9184 12.5944 40.9791 12.2925 42.8822 11.8997C44.2069 13.9472 45.3112 16.3059 46.1353 18.8962C43.5684 19.4859 40.8056 19.9341 37.9284 20.2256ZM45.9741 9.19219C45.2513 9.41531 44.4853 9.62062 43.6847 9.81C42.5372 8.22187 41.2556 6.83344 39.8662 5.67844C42.0675 6.57375 44.1178 7.7625 45.9741 9.19219ZM16.3144 9.80906C15.5138 9.61969 14.7487 9.41437 14.025 9.19125C15.8822 7.7625 17.9316 6.57281 20.1328 5.6775C18.7434 6.8325 17.4619 8.22188 16.3144 9.80906ZM12.3431 10.6012C13.2347 10.9153 14.1891 11.205 15.2119 11.4647C13.9331 13.5441 12.8663 15.8934 12.0581 18.4463C10.3491 17.9906 8.74219 17.4703 7.26844 16.8872C8.62969 14.5359 10.3472 12.4191 12.3431 10.6012ZM6.38812 18.5522C7.96781 19.1878 9.69375 19.7531 11.535 20.2453C10.8178 23.0072 10.3997 25.9734 10.3284 29.0634H3.76594C3.89906 25.305 4.83188 21.75 6.38812 18.5522ZM26.25 56.25C25.7334 56.25 25.3125 55.83 25.3125 55.3125C25.3125 54.795 25.7334 54.375 26.25 54.375C26.7666 54.375 27.1875 54.795 27.1875 55.3125C27.1875 55.83 26.7666 56.25 26.25 56.25ZM28.125 36.5625C27.6084 36.5625 27.1875 36.1425 27.1875 35.625C27.1875 35.1075 27.6084 34.6875 28.125 34.6875C28.6416 34.6875 29.0625 35.1075 29.0625 35.625C29.0625 36.1425 28.6416 36.5625 28.125 36.5625ZM27.1875 32.985C26.0991 33.3731 25.3125 34.4044 25.3125 35.625C25.3125 36.8456 26.0991 37.8769 27.1875 38.265V42.7369L26.25 43.6744L23.4375 40.8619V30.9375H27.1875V32.985ZM36.5625 39.375C36.0459 39.375 35.625 38.955 35.625 38.4375C35.625 37.92 36.0459 37.5 36.5625 37.5C37.0791 37.5 37.5 37.92 37.5 38.4375C37.5 38.955 37.0791 39.375 36.5625 39.375ZM54.375 36.5625C53.8584 36.5625 53.4375 36.1425 53.4375 35.625C53.4375 35.1075 53.8584 34.6875 54.375 34.6875C54.8916 34.6875 55.3125 35.1075 55.3125 35.625C55.3125 36.1425 54.8916 36.5625 54.375 36.5625ZM53.4375 32.985C52.6434 33.2681 52.0181 33.8934 51.735 34.6875H46.875C46.6266 34.6875 46.3875 34.7859 46.2122 34.9622L43.6744 37.5H39.2025C38.9194 36.7059 38.2941 36.0806 37.5 35.7975V34.1381L40.7006 30.9375H53.4375V32.985ZM49.6706 29.0625C49.5994 25.9725 49.1813 23.0063 48.4641 20.2444C50.3053 19.7531 52.0312 19.1869 53.6109 18.5513C55.1681 21.75 56.1009 25.305 56.2331 29.0625H49.6706Z" fill="#F4F4F4"/>
</svg>
