<svg width="60" height="60" viewBox="0 0 60 60" fill="none" xmlns="http://www.w3.org/2000/svg">
<path d="M30 9.375C31.0355 9.375 31.875 8.53553 31.875 7.5C31.875 6.46447 31.0355 5.625 30 5.625C28.9645 5.625 28.125 6.46447 28.125 7.5C28.125 8.53553 28.9645 9.375 30 9.375Z" fill="#F4F4F4"/>
<path d="M45 8.4375C46.0355 8.4375 46.875 7.59803 46.875 6.5625C46.875 5.52697 46.0355 4.6875 45 4.6875C43.9645 4.6875 43.125 5.52697 43.125 6.5625C43.125 7.59803 43.9645 8.4375 45 8.4375Z" fill="#F4F4F4"/>
<path d="M16.875 6.5625C17.9105 6.5625 18.75 5.72303 18.75 4.6875C18.75 3.65197 17.9105 2.8125 16.875 2.8125C15.8395 2.8125 15 3.65197 15 4.6875C15 5.72303 15.8395 6.5625 16.875 6.5625Z" fill="#F4F4F4"/>
<path d="M37.5 57.1875C38.5355 57.1875 39.375 56.348 39.375 55.3125C39.375 54.277 38.5355 53.4375 37.5 53.4375C36.4645 53.4375 35.625 54.277 35.625 55.3125C35.625 56.348 36.4645 57.1875 37.5 57.1875Z" fill="#F4F4F4"/>
<path d="M45.9375 51.5625C46.973 51.5625 47.8125 50.723 47.8125 49.6875C47.8125 48.652 46.973 47.8125 45.9375 47.8125C44.902 47.8125 44.0625 48.652 44.0625 49.6875C44.0625 50.723 44.902 51.5625 45.9375 51.5625Z" fill="#F4F4F4"/>
<path d="M16.875 57.1875C17.9105 57.1875 18.75 56.348 18.75 55.3125C18.75 54.277 17.9105 53.4375 16.875 53.4375C15.8395 53.4375 15 54.277 15 55.3125C15 56.348 15.8395 57.1875 16.875 57.1875Z" fill="#F4F4F4"/>
<path d="M52.0765 19.5952C53.0736 19.3156 53.6553 18.2807 53.3757 17.2836C53.0962 16.2865 52.0613 15.7049 51.0642 15.9844C50.0671 16.264 49.4854 17.2989 49.765 18.296C50.0445 19.2931 51.0794 19.8747 52.0765 19.5952Z" fill="#F4F4F4"/>
<path d="M55.8373 43.0309C56.8344 42.7513 57.416 41.7164 57.1365 40.7193C56.8569 39.7222 55.822 39.1405 54.8249 39.4201C53.8278 39.6996 53.2462 40.7346 53.5257 41.7317C53.8053 42.7287 54.8402 43.3104 55.8373 43.0309Z" fill="#F4F4F4"/>
<path d="M55.8304 28.0309C56.8275 27.7513 57.4092 26.7164 57.1296 25.7193C56.8501 24.7222 55.8152 24.1405 54.8181 24.4201C53.821 24.6996 53.2393 25.7346 53.5189 26.7317C53.7984 27.7287 54.8334 28.3104 55.8304 28.0309Z" fill="#F4F4F4"/>
<path d="M10.2459 18.3264C10.5254 17.3293 9.94374 16.2944 8.94665 16.0148C7.94957 15.7352 6.91465 16.3169 6.63509 17.314C6.35553 18.3111 6.9372 19.346 7.93429 19.6256C8.93137 19.9051 9.9663 19.3235 10.2459 18.3264Z" fill="#F4F4F4"/>
<path d="M4.76151 30C4.327 29.9823 3.89987 30.1163 3.55325 30.3789C3.20663 30.6415 2.96207 31.0165 2.86144 31.4395C2.76081 31.8626 2.81036 32.3075 3.00162 32.698C3.19288 33.0886 3.51394 33.4005 3.90986 33.5804C4.30577 33.7603 4.7519 33.797 5.17189 33.6842C5.59188 33.5714 5.9596 33.3162 6.2121 32.9621C6.4646 32.6081 6.58619 32.1772 6.55604 31.7434C6.52589 31.3096 6.34588 30.8997 6.04683 30.584C5.71085 30.2293 5.24968 30.0197 4.76151 30Z" fill="#F4F4F4"/>
<path d="M30.0003 30.9375H29.9628C29.7776 30.945 29.5989 31.0073 29.4491 31.1164C29.2993 31.2255 29.1852 31.3766 29.1212 31.5505C29.0572 31.7244 29.0461 31.9134 29.0895 32.0935C29.1328 32.2737 29.2286 32.437 29.3647 32.5628C29.5008 32.6885 29.6712 32.7711 29.8542 32.8002C30.0372 32.8292 30.2248 32.8033 30.3931 32.7258C30.5614 32.6483 30.703 32.5226 30.7999 32.3647C30.8969 32.2067 30.9449 32.0236 30.9378 31.8384C30.9283 31.5962 30.8254 31.367 30.6506 31.199C30.4758 31.0311 30.2427 30.9373 30.0003 30.9375Z" fill="#F4F4F4"/>
<path d="M33.75 28.125H26.25C26.0014 28.125 25.7629 28.2238 25.5871 28.3996C25.4113 28.5754 25.3125 28.8139 25.3125 29.0625V36.5625C25.3125 36.8111 25.4113 37.0496 25.5871 37.2254C25.7629 37.4012 26.0014 37.5 26.25 37.5H33.75C33.9986 37.5 34.2371 37.4012 34.4129 37.2254C34.5887 37.0496 34.6875 36.8111 34.6875 36.5625V29.0625C34.6875 28.8139 34.5887 28.5754 34.4129 28.3996C34.2371 28.2238 33.9986 28.125 33.75 28.125ZM32.0625 33.7837C31.7525 34.1151 31.3663 34.3658 30.9375 34.5141V36.5625H29.0625V34.5206C28.494 34.3182 28.0059 33.9379 27.6707 33.4362C27.3354 32.9344 27.1709 32.338 27.2014 31.7353C27.2319 31.1326 27.4559 30.5559 27.8401 30.0906C28.2244 29.6253 28.7484 29.2963 29.3344 29.1523C29.9204 29.0084 30.5372 29.0572 31.0933 29.2915C31.6494 29.5258 32.1151 29.9332 32.4214 30.4531C32.7277 30.9731 32.8582 31.5779 32.7935 32.1779C32.7289 32.7779 32.4725 33.341 32.0625 33.7837Z" fill="#F4F4F4"/>
<path d="M32.8125 25.3125C32.8125 24.5666 32.5162 23.8512 31.9887 23.3238C31.4613 22.7963 30.7459 22.5 30 22.5C29.2541 22.5 28.5387 22.7963 28.0113 23.3238C27.4838 23.8512 27.1875 24.5666 27.1875 25.3125V26.25H32.8125V25.3125Z" fill="#F4F4F4"/>
<path d="M41.25 38.4375V21.5625C41.25 20.8166 40.9537 20.1012 40.4262 19.5738C39.8988 19.0463 39.1834 18.75 38.4375 18.75H21.5625C20.8166 18.75 20.1012 19.0463 19.5738 19.5738C19.0463 20.1012 18.75 20.8166 18.75 21.5625V38.4375C18.75 39.1834 19.0463 39.8988 19.5738 40.4262C20.1012 40.9537 20.8166 41.25 21.5625 41.25H38.4375C39.1834 41.25 39.8988 40.9537 40.4262 40.4262C40.9537 39.8988 41.25 39.1834 41.25 38.4375ZM36.5625 36.5625C36.5625 37.3084 36.2662 38.0238 35.7387 38.5512C35.2113 39.0787 34.4959 39.375 33.75 39.375H26.25C25.5041 39.375 24.7887 39.0787 24.2613 38.5512C23.7338 38.0238 23.4375 37.3084 23.4375 36.5625V29.0625C23.4399 28.4829 23.6213 27.9182 23.957 27.4456C24.2926 26.973 24.766 26.6157 25.3125 26.4225V25.3125C25.3125 24.0693 25.8064 22.877 26.6854 21.9979C27.5645 21.1189 28.7568 20.625 30 20.625C31.2432 20.625 32.4355 21.1189 33.3146 21.9979C34.1936 22.877 34.6875 24.0693 34.6875 25.3125V26.4225C35.234 26.6157 35.7074 26.973 36.043 27.4456C36.3787 27.9182 36.5601 28.4829 36.5625 29.0625V36.5625Z" fill="#F4F4F4"/>
<path d="M30 6.5625C29.8146 6.5625 29.6333 6.61748 29.4792 6.7205C29.325 6.82351 29.2048 6.96993 29.1339 7.14123C29.0629 7.31254 29.0443 7.50104 29.0805 7.6829C29.1167 7.86475 29.206 8.0318 29.3371 8.16291C29.4682 8.29402 29.6352 8.38331 29.8171 8.41949C29.999 8.45566 30.1875 8.43709 30.3588 8.36614C30.5301 8.29518 30.6765 8.17502 30.7795 8.02085C30.8825 7.86668 30.9375 7.68542 30.9375 7.5C30.9375 7.25136 30.8387 7.0129 30.6629 6.83709C30.4871 6.66127 30.2486 6.5625 30 6.5625Z" fill="#F4F4F4"/>
<path d="M32.8125 14.0625H34.6875V16.875H32.8125V14.0625Z" fill="#F4F4F4"/>
<path d="M45 5.625C44.8146 5.625 44.6333 5.67998 44.4792 5.783C44.325 5.88601 44.2048 6.03243 44.1339 6.20373C44.0629 6.37504 44.0443 6.56354 44.0805 6.7454C44.1167 6.92725 44.206 7.0943 44.3371 7.22541C44.4682 7.35652 44.6352 7.44581 44.8171 7.48199C44.999 7.51816 45.1875 7.49959 45.3588 7.42864C45.5301 7.35768 45.6765 7.23752 45.7795 7.08335C45.8825 6.92918 45.9375 6.74792 45.9375 6.5625C45.9375 6.31386 45.8387 6.0754 45.6629 5.89959C45.4871 5.72377 45.2486 5.625 45 5.625Z" fill="#F4F4F4"/>
<path d="M25.3125 14.0625H27.1875V16.875H25.3125V14.0625Z" fill="#F4F4F4"/>
<path d="M32.8125 43.125H34.6875V45.9375H32.8125V43.125Z" fill="#F4F4F4"/>
<path d="M25.3125 43.125H27.1875V48.75H25.3125V43.125Z" fill="#F4F4F4"/>
<path d="M16.875 54.375C16.6896 54.375 16.5083 54.43 16.3542 54.533C16.2 54.636 16.0798 54.7824 16.0089 54.9537C15.9379 55.125 15.9193 55.3135 15.9555 55.4954C15.9917 55.6773 16.081 55.8443 16.2121 55.9754C16.3432 56.1065 16.5102 56.1958 16.6921 56.232C16.874 56.2682 17.0625 56.2496 17.2338 56.1786C17.4051 56.1077 17.5515 55.9875 17.6545 55.8333C17.7575 55.6792 17.8125 55.4979 17.8125 55.3125C17.8125 55.0639 17.7137 54.8254 17.5379 54.6496C17.3621 54.4738 17.1236 54.375 16.875 54.375Z" fill="#F4F4F4"/>
<path d="M51.5622 16.875H51.5247C51.3393 16.8823 51.1603 16.9444 51.0103 17.0534C50.8603 17.1625 50.746 17.3136 50.6819 17.4876C50.6177 17.6616 50.6066 17.8508 50.65 18.0311C50.6934 18.2114 50.7893 18.3748 50.9256 18.5006C51.016 18.5845 51.1221 18.6497 51.2378 18.6925C51.3535 18.7353 51.4764 18.7548 51.5997 18.75C51.7227 18.7452 51.8436 18.7161 51.9555 18.6646C52.0673 18.613 52.1679 18.5399 52.2515 18.4494C52.3351 18.359 52.4 18.2529 52.4426 18.1374C52.4852 18.0218 52.5046 17.899 52.4997 17.7759C52.4902 17.5337 52.3873 17.3045 52.2125 17.1365C52.0377 16.9686 51.8046 16.8748 51.5622 16.875Z" fill="#F4F4F4"/>
<path d="M43.125 32.8125H47.8125V34.6875H43.125V32.8125Z" fill="#F4F4F4"/>
<path d="M43.125 25.3125H45.9375V27.1875H43.125V25.3125Z" fill="#F4F4F4"/>
<path d="M8.4375 32.8125H16.875V34.6875H8.4375V32.8125Z" fill="#F4F4F4"/>
<path d="M9.30835 45.5261C9.58791 44.529 9.00624 43.4941 8.00915 43.2145C7.01207 42.935 5.97714 43.5166 5.69759 44.5137C5.41803 45.5108 5.9997 46.5457 6.99679 46.8253C7.99387 47.1048 9.0288 46.5232 9.30835 45.5261Z" fill="#F4F4F4"/>
<path d="M14.0625 29.0625H16.875V30.9375H14.0625V29.0625Z" fill="#F4F4F4"/>
<path d="M25.3125 10.3125H27.1875V12.1875H25.3125V10.3125Z" fill="#F4F4F4"/>
<path d="M49.6875 32.8125H51.5625V34.6875H49.6875V32.8125Z" fill="#F4F4F4"/>
<path d="M32.8125 47.8125H34.6875V49.6875H32.8125V47.8125Z" fill="#F4F4F4"/>
<path d="M25.3125 50.625H27.1875V52.5H25.3125V50.625Z" fill="#F4F4F4"/>
<path d="M10.3125 29.0625H12.1875V30.9375H10.3125V29.0625Z" fill="#F4F4F4"/>
<path d="M32.8125 10.3125H34.6875V12.1875H32.8125V10.3125Z" fill="#F4F4F4"/>
<path d="M47.8125 25.3125H49.6875V27.1875H47.8125V25.3125Z" fill="#F4F4F4"/>
<path d="M43.125 15.9375H45V17.8125H43.125V15.9375Z" fill="#F4F4F4"/>
<path d="M15 15.9375H16.875V17.8125H15V15.9375Z" fill="#F4F4F4"/>
<path d="M43.125 42.1875H45V44.0625H43.125V42.1875Z" fill="#F4F4F4"/>
<path d="M15 42.1875H16.875V44.0625H15V42.1875Z" fill="#F4F4F4"/>
<path d="M41.7806 8.4563L36.5625 13.6744V16.875H38.4375V14.4507L43.1063 9.78192C42.5591 9.4597 42.1029 9.00351 41.7806 8.4563Z" fill="#F4F4F4"/>
<path d="M29.0625 11.1178V16.875H30.9375V11.1178C30.3249 11.294 29.6751 11.294 29.0625 11.1178Z" fill="#F4F4F4"/>
<path d="M20.0942 6.5813C19.772 7.12851 19.3158 7.5847 18.7686 7.90692L21.5623 10.7007V16.875H23.4373V9.92442L20.0942 6.5813Z" fill="#F4F4F4"/>
<path d="M48.3431 19.7063L46.4869 21.5625H43.125V23.4375H47.2631L49.6688 21.0319C49.1215 20.7097 48.6654 20.2535 48.3431 19.7063Z" fill="#F4F4F4"/>
<path d="M47.5912 29.0624H43.125V30.9374H48.0338L52.5 28.7053C52.0781 28.2299 51.7851 27.6544 51.6487 27.0337L47.5912 29.0624Z" fill="#F4F4F4"/>
<path d="M53.4188 38.0306L51.9506 36.5625H43.125V38.4375H51.1744L52.0931 39.3563C52.4154 38.809 52.8715 38.3528 53.4188 38.0306Z" fill="#F4F4F4"/>
<path d="M42.3197 48.75H38.4375V43.125H36.5625V50.625H42.3197C42.1435 50.0124 42.1435 49.3626 42.3197 48.75Z" fill="#F4F4F4"/>
<path d="M34.9237 52.5984L30.9375 50.1056V43.125H29.0625V51.1444L33.9375 54.1941C34.1252 53.587 34.4646 53.0378 34.9237 52.5984Z" fill="#F4F4F4"/>
<path d="M23.4373 43.125H21.5623V49.2994L18.7686 52.0931C19.3158 52.4154 19.772 52.8715 20.0942 53.4188L23.4373 50.0756V43.125Z" fill="#F4F4F4"/>
<path d="M11.6862 36.5625L8.4668 41.3916C9.08288 41.5532 9.64735 41.8698 10.1065 42.3112L12.6893 38.4375H16.8752V36.5625H11.6862Z" fill="#F4F4F4"/>
<path d="M10.9106 25.3125L6.77344 28.7597C7.29852 29.1176 7.72402 29.6031 8.01 30.1706L11.5894 27.1875H16.875V25.3125H10.9106Z" fill="#F4F4F4"/>
<path d="M13.5129 21.5625L11.6567 19.7063C11.3345 20.2535 10.8783 20.7097 10.3311 21.0319L12.7367 23.4375H16.8748V21.5625H13.5129Z" fill="#F4F4F4"/>
</svg>
