<svg width="60" height="60" viewBox="0 0 60 60" fill="none" xmlns="http://www.w3.org/2000/svg">
<path d="M4.54576 33.7272H32.6367C33.1822 33.7272 33.5457 33.3635 33.5457 32.8182V23.7273C33.5457 23.1818 33.0912 22.8182 32.6367 22.8182H4.54576C4.00026 22.8182 3.63672 23.1819 3.63672 23.7273V32.8182C3.63672 33.3635 4.00026 33.7272 4.54576 33.7272ZM5.4548 24.6363H31.7275V31.909H5.4548V24.6363Z" fill="#F4F4F4"/>
<path d="M8.9088 35.3636H5.09068C4.54518 35.3636 4.18164 35.7273 4.18164 36.2727V40C4.18164 40.5455 4.54531 40.9091 5.09068 40.9091H8.81801C9.3635 40.9091 9.72705 40.5454 9.72705 40V36.1818C9.81796 35.7273 9.36338 35.3636 8.9088 35.3636ZM5.99972 39.091V37.0909H7.90884V39.091H5.99972Z" fill="#F4F4F4"/>
<path d="M8.9088 43H5.09068C4.54518 43 4.18164 43.3637 4.18164 43.909V47.7273C4.18164 48.2728 4.54531 48.6363 5.09068 48.6363H8.81801C9.3635 48.6363 9.72705 48.2727 9.72705 47.7273V43.909C9.81796 43.3637 9.36338 43 8.9088 43ZM5.99972 46.8182V44.8182H7.90884V46.8182H5.99972Z" fill="#F4F4F4"/>
<path d="M8.9088 50.6364H5.09068C4.54518 50.6364 4.18164 51 4.18164 51.5454V55.3636C4.18164 55.9091 4.54531 56.2727 5.09068 56.2727H8.81801C9.3635 56.2727 9.72705 55.909 9.72705 55.3636V51.5454C9.81796 51.0909 9.36338 50.6364 8.9088 50.6364ZM5.99972 54.4546V52.4546H7.90884V54.4546H5.99972Z" fill="#F4F4F4"/>
<path d="M16.6365 35.3636H12.8182C12.2727 35.3636 11.9092 35.7273 11.9092 36.2727V40C11.9092 40.5455 12.2728 40.9091 12.8182 40.9091H16.6365C17.182 40.9091 17.5455 40.5454 17.5455 40V36.1818C17.5456 35.7273 17.091 35.3636 16.6365 35.3636ZM15.7274 39.091H13.7274V37.0909H15.7274V39.091Z" fill="#F4F4F4"/>
<path d="M16.6365 43H12.8182C12.2727 43 11.9092 43.3637 11.9092 43.909V47.7273C11.9092 48.2728 12.2728 48.6363 12.8182 48.6363H16.6365C17.182 48.6363 17.5455 48.2727 17.5455 47.7273V43.909C17.5456 43.3637 17.091 43 16.6365 43ZM15.7274 46.8182H13.7274V44.8182H15.7274V46.8182Z" fill="#F4F4F4"/>
<path d="M16.6365 50.6364H12.8182C12.2727 50.6364 11.9092 51 11.9092 51.5454V55.3636C11.9092 55.9091 12.2728 56.2727 12.8182 56.2727H16.6365C17.182 56.2727 17.5455 55.909 17.5455 55.3636V51.5454C17.5456 51.0909 17.091 50.6364 16.6365 50.6364ZM15.7274 54.4546H13.7274V52.4546H15.7274V54.4546Z" fill="#F4F4F4"/>
<path d="M24.3639 35.3636H20.6366C20.0911 35.3636 19.7275 35.7273 19.7275 36.2727V40C19.7275 40.5455 20.0912 40.9091 20.6366 40.9091H24.3639C24.9094 40.9091 25.2729 40.5454 25.2729 40V36.1818C25.2731 35.7273 24.8185 35.3636 24.3639 35.3636ZM23.4549 39.091H21.5457V37.0909H23.4549V39.091Z" fill="#F4F4F4"/>
<path d="M24.3639 43H20.6366C20.0911 43 19.7275 43.3637 19.7275 43.909V47.7273C19.7275 48.2728 20.0912 48.6363 20.6366 48.6363H24.3639C24.9094 48.6363 25.2729 48.2727 25.2729 47.7273V43.909C25.2731 43.3637 24.8185 43 24.3639 43ZM23.4549 46.8182H21.5457V44.8182H23.4549V46.8182Z" fill="#F4F4F4"/>
<path d="M24.3639 50.6364H20.6366C20.0911 50.6364 19.7275 51 19.7275 51.5454V55.3636C19.7275 55.9091 20.0912 56.2727 20.6366 56.2727H24.3639C24.9094 56.2727 25.2729 55.909 25.2729 55.3636V51.5454C25.2731 51.0909 24.8185 50.6364 24.3639 50.6364ZM23.4549 54.4546H21.5457V52.4546H23.4549V54.4546Z" fill="#F4F4F4"/>
<path d="M31.9997 35.3636H28.2723C27.7268 35.3636 27.3633 35.7273 27.3633 36.2727V40C27.3633 40.5455 27.7269 40.9091 28.2723 40.9091H31.9997C32.5452 40.9091 32.9087 40.5454 32.9087 40V36.1818C32.9088 35.7273 32.5452 35.3636 31.9997 35.3636ZM31.0906 39.091H29.1815V37.0909H31.0906V39.091Z" fill="#F4F4F4"/>
<path d="M31.9997 43H28.2723C27.7268 43 27.3633 43.3637 27.3633 43.909V55.3636C27.3633 55.9091 27.7269 56.2727 28.2723 56.2727H31.9997C32.5452 56.2727 32.9087 55.909 32.9087 55.3636V43.909C32.9088 43.3637 32.5452 43 31.9997 43ZM31.0906 54.4546H29.1815V44.8182H31.0906V54.4546Z" fill="#F4F4F4"/>
<path d="M59.7273 15.8182L43.5455 0.272749C43.3637 0.0909162 43.0909 0 42.9091 0H11.6363C11.0908 0 10.7273 0.363665 10.7273 0.909041V18.909H0.909041C0.363544 18.909 0 19.2727 0 19.818V59.0908C0 59.6363 0.363665 59.9999 0.909041 59.9999C1.45442 59.9999 3.27262 59.9999 59.0908 59.9999C59.6363 59.9999 59.9999 59.6362 59.9999 59.0908C59.9999 55.2726 59.9999 67.3636 59.9999 16.4545C60 16.2727 59.9091 15.9091 59.7273 15.8182ZM43.8182 2.99999L56.8182 15.4546H43.8182V2.99999ZM35.3636 58.1818H1.8182V20.7273H35.3636V58.1818ZM58.1818 58.1818H37.1818V19.8182C37.1818 19.2727 36.8182 18.9091 36.2728 18.9091H12.5455V1.8182H42V16.4546C42 17.0001 42.3637 17.3637 42.9091 17.3637H58.1818C58.1818 48.5455 58.1818 57.7273 58.1818 58.1818Z" fill="#F4F4F4"/>
<path d="M35.7276 5.72717H17.4549C16.9094 5.72717 16.5459 6.09084 16.5459 6.63621C16.5459 7.18159 16.9096 7.54525 17.4549 7.54525H35.7276C36.2731 7.54525 36.6367 7.18159 36.6367 6.63621C36.6367 6.09084 36.2731 5.72717 35.7276 5.72717Z" fill="#F4F4F4"/>
<path d="M35.7276 11.0909H17.4549C16.9094 11.0909 16.5459 11.4546 16.5459 12C16.5459 12.5454 16.9096 12.909 17.4549 12.909H35.7276C36.2731 12.909 36.6367 12.5454 36.6367 12C36.6367 11.4546 36.2731 11.0909 35.7276 11.0909Z" fill="#F4F4F4"/>
<path d="M47.8181 38.3636C42.9999 38.3636 39.0908 42.2727 39.0908 47.1818C39.0908 52 42.9999 55.9999 47.8181 55.9999C52.6362 55.9999 56.5453 52.0909 56.5453 47.1818C56.5453 42.2728 52.6362 38.3636 47.8181 38.3636ZM47.8181 54.0909C43.9998 54.0909 40.9089 51 40.9089 47.0909C40.9089 43.1817 43.9998 40.0909 47.8181 40.0909C51.6363 40.0909 54.7272 43.1818 54.7272 47.0909C54.7272 50.9999 51.6363 54.0909 47.8181 54.0909Z" fill="#F4F4F4"/>
<path d="M50.546 47.2727C50.0914 46.8181 49.3642 46.4546 48.3641 46.2727V43.8182C49.0005 43.9092 49.6368 44.1819 50.1823 44.5455L51.0004 43.3637C50.1823 42.8182 49.2731 42.4546 48.3641 42.3637V41.7273H47.546V42.3637C46.7278 42.3637 46.0005 42.6365 45.5459 43.1818C45.0004 43.6364 44.7278 44.2727 44.7278 45C44.7278 45.7272 44.9096 46.2727 45.3642 46.7273C45.8188 47.091 46.546 47.4547 47.4552 47.6364V50.1818C46.7278 50.0909 45.9097 49.7272 45.2733 49.0909L44.3643 50.1818C45.2733 50.9999 46.3643 51.4545 47.5461 51.6363V52.5454H48.3642V51.6363C49.2732 51.6363 49.9097 51.3636 50.4552 50.8182C51.0007 50.3636 51.2733 49.7273 51.2733 49C51.2733 48.2728 51.0005 47.6364 50.546 47.2727ZM47.546 46C47.0914 45.8182 46.7277 45.7272 46.546 45.5454C46.3643 45.3636 46.2733 45.1818 46.2733 44.8182C46.2733 44.5455 46.3642 44.2727 46.6369 44.0909C46.8188 43.909 47.1824 43.8181 47.546 43.7272V46ZM49.2732 49.8182C49.0005 50.0001 48.7278 50.1819 48.2733 50.1819V47.8183C48.8188 48.0002 49.1823 48.182 49.3642 48.2729C49.546 48.4547 49.6369 48.7275 49.6369 49.0002C49.6369 49.3637 49.546 49.6364 49.2732 49.8182Z" fill="#F4F4F4"/>
<path d="M41.8182 31.0909C41.7273 31.0909 41.8182 31.0909 41.8182 31.1818L38.0909 39.0909C37.9091 39.4546 38 39.909 38.3637 40.1818C38.6364 40.4545 39.091 40.4545 39.4545 40.2727L46.6363 35.3636L46.7272 35.2727C46.7272 35.2727 46.8182 35.2727 46.8182 35.1818L56.8182 23.4545C58 22.0909 57.8182 20.0909 56.4545 18.9091C55.909 18.4545 55.1818 18.1819 54.3636 18.1819C53.4546 18.1819 52.5454 18.5455 51.9091 19.2728L41.909 31C41.9092 31 41.9092 31.0909 41.8182 31.0909ZM53.3636 20.4545C53.8182 19.9091 54.7273 19.8181 55.2728 20.2727C55.9092 20.8182 55.9092 21.6363 55.4546 22.2728L46 33.2728L43.9091 31.4546L53.3636 20.4545ZM44.6364 34.4546L41.1818 36.8181L43 32.9999L44.6364 34.4546Z" fill="#F4F4F4"/>
</svg>
