<svg width="60" height="60" viewBox="0 0 60 60" fill="none" xmlns="http://www.w3.org/2000/svg">
<path d="M57.3673 45.7031H53.4375V33.0516C53.4334 32.2511 53.2801 31.4583 52.9854 30.714C52.9569 30.643 52.9151 30.5726 52.8845 30.5025C52.5248 29.7126 52.0067 29.005 51.3623 28.4235C50.7179 27.8419 49.961 27.3989 49.1385 27.1219L48.31 26.8297C46.4327 26.1919 44.501 25.7272 42.5391 25.4414V23.3099C43.7197 22.6178 44.7115 21.6453 45.4267 20.4785C46.1419 19.3118 46.5586 17.9867 46.6397 16.6206C47.2239 16.3777 47.7012 15.9325 47.9841 15.3665C48.2669 14.8006 48.3365 14.1517 48.1801 13.5386C48.0994 13.2109 47.9437 12.9064 47.7252 12.6492C47.5066 12.3921 47.2313 12.1892 46.9209 12.0567L47.0616 10.0021C47.1496 8.79933 46.9866 7.59143 46.583 6.45503C46.1793 5.31862 45.5438 4.27854 44.7169 3.40079C43.8862 2.51243 42.8819 1.8042 41.7662 1.31999C40.6505 0.835786 39.4472 0.585937 38.231 0.585938C37.0148 0.585937 35.8115 0.835786 34.6958 1.31999C33.5802 1.8042 32.5758 2.51243 31.7452 3.40079C30.9181 4.27857 30.2826 5.31873 29.8789 6.45523C29.4753 7.59172 29.3124 8.79972 29.4005 10.0025L29.5426 12.0548C29.2314 12.187 28.9553 12.3899 28.7363 12.6475C28.5173 12.9051 28.3615 13.2103 28.2812 13.5388C28.1296 14.1555 28.2046 14.8061 28.4926 15.3722C28.7806 15.9382 29.2623 16.3819 29.8501 16.6223C29.9377 17.991 30.3606 19.3172 31.0815 20.4839C31.8025 21.6505 32.7994 22.622 33.9844 23.3125V25.4399C32.0082 25.7124 30.0635 26.1779 28.1781 26.8297L27.3273 27.122C26.923 27.2622 26.5331 27.4412 26.1632 27.6563H9.53461C8.2609 27.6563 7.26562 28.7452 7.26562 30.0189V42.3663C6.91406 42.41 6.5625 42.7051 6.5625 43.0634V44.3672C6.57177 44.8416 6.71272 45.3042 6.96961 45.7031H2.63273C2.24449 45.7031 1.875 46.0268 1.875 46.415V50.294C1.875 50.6822 2.24449 50.9761 2.63273 50.9761H4.57031V58.7105C4.56834 58.8019 4.58458 58.8927 4.61811 58.9778C4.65163 59.0628 4.70176 59.1403 4.76557 59.2058C4.82938 59.2712 4.90559 59.3233 4.98975 59.359C5.07391 59.3947 5.16433 59.4132 5.25574 59.4136H54.744C54.8354 59.4133 54.9258 59.3948 55.01 59.3591C55.0941 59.3235 55.1703 59.2714 55.2342 59.206C55.298 59.1406 55.3482 59.0632 55.3817 58.9782C55.4153 58.8932 55.4316 58.8023 55.4297 58.7109V50.9766H57.3673C57.7555 50.9766 58.125 50.6827 58.125 50.2944V46.4155C58.125 46.0268 57.7555 45.7031 57.3673 45.7031ZM43.9336 32.9922L44.6719 27.2647C45.7393 27.5039 46.7925 27.8024 47.8267 28.1589L48.6727 28.451C49.3118 28.6648 49.9002 29.0076 50.4013 29.4582C50.9025 29.9088 51.3057 30.4575 51.5859 31.0704C51.6101 31.1251 51.6571 31.1802 51.6768 31.2293C51.9068 31.8075 52.027 32.4235 52.0311 33.0457V45.7031H48.0469V37.9587C48.0469 37.7722 47.9728 37.5934 47.8409 37.4615C47.7091 37.3296 47.5302 37.2556 47.3438 37.2556C47.1573 37.2556 46.9784 37.3296 46.8466 37.4615C46.7147 37.5934 46.6406 37.7722 46.6406 37.9587V45.7031H41.8575L40.6773 34.5159L41.2058 32.7529L42.9462 33.5425C43.0464 33.5879 43.1558 33.6092 43.2657 33.6047C43.3756 33.6001 43.483 33.5699 43.5791 33.5163C43.6751 33.4627 43.7573 33.3873 43.819 33.2962C43.8806 33.2051 43.9201 33.1008 43.9341 32.9917L43.9336 32.9922ZM43.2901 26.9872L42.6606 31.8689L39.4645 30.4188L41.3364 28.6274C41.8431 28.1415 42.2043 27.5239 42.3793 26.844C42.6836 26.8874 42.9875 26.9341 43.2906 26.9872H43.2901ZM39.9129 32.1669L39.4441 33.7309L37.2353 33.6957L36.8307 32.0354L38.2274 31.4018L39.9129 32.1669ZM36.1111 27.6114C35.8832 27.3914 35.7019 27.1279 35.5782 26.8363C35.4544 26.5448 35.3906 26.2313 35.3906 25.9146V23.9729C36.3093 24.3101 37.2811 24.4793 38.2597 24.4724C39.2389 24.4691 40.2104 24.2997 41.1328 23.9714V25.9118C41.1283 26.2307 41.0598 26.5454 40.9314 26.8373C40.803 27.1292 40.6172 27.3923 40.3852 27.611L38.2383 29.6557L36.1111 27.6114ZM37.2969 35.1034L39.3281 35.1355L40.4434 45.7031H35.8692L37.2969 35.1034ZM32.7731 4.36008C33.4722 3.61278 34.3173 3.017 35.2561 2.6097C36.1949 2.20239 37.2073 1.99222 38.2306 1.99222C39.2539 1.99222 40.2663 2.20239 41.2051 2.6097C42.1439 3.017 42.989 3.61278 43.6881 4.36008C44.3828 5.09736 44.9167 5.97103 45.2558 6.92564C45.5949 7.88025 45.7318 8.89494 45.6579 9.90528L45.4793 12.4823V12.4868L45.1182 12.6549L44.9467 11.9531C44.3708 9.58903 42.9333 7.52501 40.9154 6.16524C40.7637 6.06281 40.578 6.0236 40.3978 6.05595C40.2176 6.08829 40.0571 6.18964 39.9505 6.33844C39.2701 7.28618 38.3505 8.03661 37.2856 8.51325C36.2207 8.9899 35.0485 9.17572 33.8884 9.0518L33.275 8.98629L33.2503 8.98383C33.1169 8.97286 32.9826 8.98828 32.8551 9.02921C32.7276 9.07015 32.6094 9.13579 32.5073 9.2224C32.4052 9.30901 32.3211 9.41489 32.2599 9.53399C32.1987 9.65309 32.1616 9.78308 32.1506 9.91653L31.9377 12.568C31.6515 12.5121 31.3023 12.4377 30.973 12.3627L30.8027 9.90528C30.7289 8.8949 30.8659 7.88019 31.2051 6.92558C31.5443 5.97098 32.0783 5.09732 32.7731 4.36008ZM31.2316 16.0938C31.2316 15.9282 31.1732 15.7678 31.0665 15.6411C30.9598 15.5143 30.8119 15.4293 30.6486 15.401C30.4797 15.3723 30.3186 15.309 30.1752 15.2152C30.0319 15.1214 29.9094 14.9991 29.8154 14.8559C29.7214 14.7127 29.6579 14.5516 29.6288 14.3828C29.5998 14.2139 29.6059 14.0409 29.6467 13.8745C29.6946 13.679 29.8172 13.5101 29.9882 13.4038C30.0811 13.494 30.1869 13.5701 30.302 13.6296C30.3526 13.6554 30.4061 13.6751 30.4614 13.6882C32.6203 14.1928 32.7286 14.1141 32.9897 13.9238C33.0725 13.8628 33.1414 13.7849 33.1918 13.6952C33.2421 13.6056 33.2728 13.5062 33.2818 13.4038L33.5209 10.4272L33.7389 10.4507C35.0268 10.5879 36.3288 10.4109 37.5333 9.9347C38.7378 9.45854 39.8089 8.69747 40.6548 7.71669C42.1111 8.87246 43.1405 10.4806 43.5805 12.287L43.9546 13.821C43.9792 13.922 44.0259 14.0163 44.0914 14.0971C44.1568 14.1778 44.2394 14.2431 44.3331 14.2881C44.4268 14.3332 44.5294 14.3569 44.6333 14.3575C44.7373 14.3581 44.8401 14.3357 44.9344 14.2918L46.2285 13.6894C46.2949 13.6585 46.3561 13.6174 46.4098 13.5675C46.4506 13.5292 46.4893 13.4887 46.5255 13.4461C46.6667 13.5522 46.7669 13.7037 46.8094 13.875C46.8501 14.0409 46.8563 14.2135 46.8276 14.3819C46.7989 14.5504 46.7359 14.7111 46.6425 14.8542C46.5491 14.9973 46.4273 15.1196 46.2847 15.2137C46.142 15.3078 45.9816 15.3715 45.8133 15.401C45.6507 15.4297 45.5034 15.515 45.3975 15.6417C45.2916 15.7684 45.2338 15.9285 45.2344 16.0936V16.106C45.2344 19.9441 42.0922 23.067 38.2332 23.067C36.3805 23.0694 34.6025 22.3364 33.2897 21.029C31.977 19.7216 31.2368 17.9466 31.2316 16.0938ZM34.0848 26.8426C34.2588 27.5221 34.6188 28.1397 35.1243 28.626L36.992 30.4182L33.7946 31.8689L33.1652 26.9875C33.471 26.934 33.7775 26.8857 34.0848 26.8426ZM32.2266 30.7031L32.5218 32.992C32.5358 33.1011 32.5752 33.2054 32.6368 33.2965C32.6985 33.3876 32.7807 33.463 32.8767 33.5166C32.9728 33.5701 33.0801 33.6004 33.19 33.605C33.2999 33.6095 33.4094 33.5882 33.5095 33.5428L35.5279 32.6271L35.9685 34.4357L34.4503 45.7031H32.5373C32.7895 45.3028 32.9253 44.8403 32.9297 44.3672V43.0634C32.9297 42.7051 32.5781 42.41 32.2266 42.3663V30.7031ZM31.7831 27.2645L32.0087 29.0133C31.8512 28.6489 31.6003 28.3326 31.2814 28.0964C30.9624 27.8601 30.5867 27.7123 30.1923 27.6679C30.7186 27.5189 31.2489 27.3845 31.7831 27.2646V27.2645ZM8.67188 30.0189C8.67188 29.5206 9.03633 29.0625 9.53461 29.0625H29.9721C30.4705 29.0625 30.8201 29.5206 30.8201 30.0189V42.3047H8.67188V30.0189ZM7.96875 43.7109H31.5234V44.3672C31.5171 44.7187 31.375 45.054 31.1269 45.3031C30.8788 45.5521 30.544 45.6955 30.1925 45.7031H9.31453C8.96151 45.6961 8.62477 45.5533 8.37418 45.3046C8.1236 45.0558 7.97841 44.7202 7.96875 44.3672V43.7109ZM54.0234 58.0078H5.97656V50.9766H54.0234V58.0078ZM56.7188 49.5703H3.28125V47.1094H47.2383C47.3083 47.1211 47.3799 47.1211 47.4499 47.1094H56.7188V49.5703Z" fill="#F4F4F4"/>
<path d="M19.7536 33.495C19.3444 33.495 18.9444 33.6163 18.6041 33.8437C18.2639 34.0711 17.9987 34.3942 17.8421 34.7723C17.6855 35.1504 17.6445 35.5664 17.7243 35.9678C17.8042 36.3691 18.0013 36.7378 18.2906 37.0271C18.58 37.3165 18.9487 37.5135 19.35 37.5934C19.7514 37.6732 20.1674 37.6322 20.5455 37.4756C20.9236 37.319 21.2467 37.0537 21.474 36.7135C21.7014 36.3732 21.8227 35.9732 21.8227 35.5639C21.8221 35.0154 21.6039 34.4895 21.216 34.1016C20.8281 33.7137 20.3022 33.4956 19.7536 33.495ZM19.7536 36.2267C19.6225 36.2267 19.4944 36.1879 19.3854 36.115C19.2764 36.0422 19.1914 35.9387 19.1413 35.8176C19.0911 35.6965 19.078 35.5632 19.1036 35.4346C19.1291 35.3061 19.1923 35.188 19.285 35.0953C19.3776 35.0026 19.4957 34.9394 19.6243 34.9139C19.7529 34.8883 19.8862 34.9014 20.0073 34.9516C20.1284 35.0017 20.2319 35.0867 20.3047 35.1957C20.3776 35.3047 20.4164 35.4328 20.4164 35.5639C20.4163 35.7397 20.3464 35.9081 20.2221 36.0324C20.0978 36.1567 19.9294 36.2266 19.7536 36.2267Z" fill="#F4F4F4"/>
<path d="M11.0156 30.8761C10.8291 30.8761 10.6503 30.9502 10.5184 31.082C10.3866 31.2139 10.3125 31.3927 10.3125 31.5792V32.1314C10.3125 32.3179 10.3866 32.4967 10.5184 32.6286C10.6503 32.7605 10.8291 32.8345 11.0156 32.8345C11.2021 32.8345 11.3809 32.7605 11.5128 32.6286C11.6447 32.4967 11.7188 32.3179 11.7188 32.1314V31.5792C11.7188 31.3927 11.6447 31.2139 11.5128 31.082C11.3809 30.9502 11.2021 30.8761 11.0156 30.8761Z" fill="#F4F4F4"/>
<path d="M11.0156 34.0681C10.8291 34.0681 10.6503 34.1422 10.5184 34.2741C10.3866 34.4059 10.3125 34.5848 10.3125 34.7712V39.9483C10.3125 40.1348 10.3866 40.3137 10.5184 40.4455C10.6503 40.5774 10.8291 40.6515 11.0156 40.6515C11.2021 40.6515 11.3809 40.5774 11.5128 40.4455C11.6447 40.3137 11.7188 40.1348 11.7188 39.9483V34.7712C11.7188 34.5848 11.6447 34.4059 11.5128 34.2741C11.3809 34.1422 11.2021 34.0681 11.0156 34.0681Z" fill="#F4F4F4"/>
</svg>
