<svg width="30" height="30" viewBox="0 0 30 30" fill="none" xmlns="http://www.w3.org/2000/svg">
<path fill-rule="evenodd" clip-rule="evenodd" d="M6.5625 3.28125C6.5625 5.09343 5.09343 6.5625 3.28125 6.5625C1.46907 6.5625 0 5.09343 0 3.28125C0 1.46907 1.46907 0 3.28125 0C5.09343 0 6.5625 1.46907 6.5625 3.28125ZM0 9.375H6.70875V30H0V9.375ZM24.9825 9.61687C24.9587 9.60937 24.9354 9.60167 24.9121 9.59396C24.8654 9.57854 24.8187 9.56312 24.7687 9.54937C24.6787 9.52875 24.5887 9.51188 24.4969 9.49687C24.1406 9.42562 23.7506 9.375 23.2931 9.375C19.3819 9.375 16.9013 12.2194 16.0837 13.3181V9.375H9.375V30H16.0837V18.75C16.0837 18.75 21.1537 11.6887 23.2931 16.875V30H30V16.0819C30 12.9656 27.8644 10.3687 24.9825 9.61687Z" fill="#30373A"/>
</svg>
