<svg width="30" height="30" viewBox="0 0 30 30" fill="none" xmlns="http://www.w3.org/2000/svg">
<path fill-rule="evenodd" clip-rule="evenodd" d="M9.375 0H20.625C25.8019 0 30 4.19812 30 9.375V20.625C30 25.8019 25.8019 30 20.625 30H9.375C4.19812 30 0 25.8019 0 20.625V9.375C0 4.19812 4.19812 0 9.375 0ZM20.625 27.1875C24.2437 27.1875 27.1875 24.2437 27.1875 20.625V9.375C27.1875 5.75625 24.2437 2.8125 20.625 2.8125H9.375C5.75625 2.8125 2.8125 5.75625 2.8125 9.375V20.625C2.8125 24.2437 5.75625 27.1875 9.375 27.1875H20.625ZM7.5 15C7.5 10.8581 10.8581 7.5 15 7.5C19.1419 7.5 22.5 10.8581 22.5 15C22.5 19.1419 19.1419 22.5 15 22.5C10.8581 22.5 7.5 19.1419 7.5 15ZM10.3125 15C10.3125 17.5837 12.4163 19.6875 15 19.6875C17.5837 19.6875 19.6875 17.5837 19.6875 15C19.6875 12.4144 17.5837 10.3125 15 10.3125C12.4163 10.3125 10.3125 12.4144 10.3125 15ZM24.062 6.9375C24.062 7.48944 23.6146 7.93687 23.0626 7.93687C22.5107 7.93687 22.0632 7.48944 22.0632 6.9375C22.0632 6.38556 22.5107 5.93812 23.0626 5.93812C23.6146 5.93812 24.062 6.38556 24.062 6.9375Z" fill="#30373A"/>
</svg>
