<svg width="30" height="30" viewBox="0 0 30 30" fill="none" xmlns="http://www.w3.org/2000/svg">
<path d="M30 5.38563C28.8844 5.875 27.6956 6.19937 26.4563 6.35687C27.7313 5.59562 28.7044 4.39937 29.1619 2.9575C27.9731 3.66625 26.6606 4.16688 25.2619 4.44625C24.1331 3.24438 22.5244 2.5 20.7694 2.5C17.3644 2.5 14.6231 5.26375 14.6231 8.65188C14.6231 9.13938 14.6644 9.60812 14.7656 10.0544C9.6525 9.805 5.12813 7.35437 2.08875 3.62125C1.55813 4.54188 1.24688 5.59562 1.24688 6.73C1.24688 8.86 2.34375 10.7481 3.97875 11.8413C2.99063 11.8225 2.02125 11.5356 1.2 11.0837C1.2 11.1025 1.2 11.1269 1.2 11.1512C1.2 14.14 3.33187 16.6225 6.1275 17.1944C5.62687 17.3313 5.08125 17.3969 4.515 17.3969C4.12125 17.3969 3.72375 17.3744 3.35063 17.2919C4.1475 19.7275 6.40875 21.5181 9.0975 21.5763C7.005 23.2131 4.34812 24.1994 1.47187 24.1994C0.9675 24.1994 0.48375 24.1769 0 24.115C2.72438 25.8719 5.95312 26.875 9.435 26.875C20.7525 26.875 26.94 17.5 26.94 9.37375C26.94 9.10188 26.9306 8.83938 26.9175 8.57875C28.1381 7.7125 29.1637 6.63063 30 5.38563Z" fill="#30373A"/>
</svg>
