<svg width="30" height="30" viewBox="0 0 30 30" fill="none" xmlns="http://www.w3.org/2000/svg">
<path fill-rule="evenodd" clip-rule="evenodd" d="M25.23 5.1725C27.0281 5.27375 27.9112 5.54 28.725 6.9875C29.5725 8.43313 30 10.9231 30 15.3088V15.3144V15.3237C30 19.6888 29.5725 22.1975 28.7269 23.6281C27.9131 25.0756 27.03 25.3381 25.2319 25.46C23.4337 25.5631 18.9169 25.625 15.0037 25.625C11.0831 25.625 6.56437 25.5631 4.76813 25.4581C2.97375 25.3363 2.09063 25.0737 1.26937 23.6262C0.43125 22.1956 0 19.6869 0 15.3219V15.3181V15.3125V15.3069C0 10.9231 0.43125 8.43313 1.26937 6.9875C2.09063 5.53813 2.97563 5.27375 4.77 5.17063C6.56437 5.05063 11.0831 5 15.0037 5C18.9169 5 23.4338 5.05063 25.23 5.1725ZM20.625 15.3125L11.25 9.6875V20.9375L20.625 15.3125Z" fill="#30373A"/>
</svg>
