<svg width="60" height="60" viewBox="0 0 60 60" fill="none" xmlns="http://www.w3.org/2000/svg">
<path d="M55.9082 51.6213C58.1644 51.6213 60 49.7857 60 47.5294V5.85938C60 2.62852 57.3715 0 54.1406 0H5.85938C2.62852 0 0 2.62852 0 5.85938V47.5294C0 49.7857 1.83562 51.6213 4.09184 51.6213H5.39062V57.6562H1.17188C0.524648 57.6562 0 58.181 0 58.8281C0 59.4752 0.524648 60 1.17188 60H58.8281C59.4754 60 60 59.4752 60 58.8281C60 58.181 59.4754 57.6562 58.8281 57.6562H54.6094V51.6213H55.9082ZM2.34375 5.85938C2.34375 3.92086 3.92086 2.34375 5.85938 2.34375H54.1406C56.0791 2.34375 57.6562 3.92086 57.6562 5.85938V8.4375H2.46141C2.42168 8.4375 2.38242 8.43961 2.34375 8.44348V5.85938ZM12.8906 57.6562H7.73438V47.1094H12.8906V57.6562ZM26.0156 57.6562H20.8594V34.1522H26.0156V57.6562ZM39.1406 57.6562H33.9844V44.0625H39.1406V57.6562ZM53.4375 30.0586H45.9375C45.2903 30.0586 44.7656 30.5834 44.7656 31.2305V37.1483C44.7656 37.7954 45.2903 38.3202 45.9375 38.3202C46.5847 38.3202 47.1094 37.7954 47.1094 37.1483V32.4023H52.2656V57.6562H47.1094V45.0293C47.1094 44.3822 46.5847 43.8574 45.9375 43.8574C45.2903 43.8574 44.7656 44.3822 44.7656 45.0293V57.6562H41.4844V42.8906C41.4844 42.2435 40.9597 41.7188 40.3125 41.7188H32.8125C32.1653 41.7188 31.6406 42.2435 31.6406 42.8906V57.6562H28.3594V32.9803C28.3594 32.3332 27.8347 31.8084 27.1875 31.8084H19.6875C19.0403 31.8084 18.5156 32.3332 18.5156 32.9803V57.6562H15.2344V45.9375C15.2344 45.2904 14.7097 44.7656 14.0625 44.7656H6.5625C5.91527 44.7656 5.39062 45.2904 5.39062 45.9375V49.2776H4.09184C3.12785 49.2776 2.34375 48.4934 2.34375 47.5294V10.7753C2.38242 10.7791 2.42168 10.7812 2.46141 10.7812H57.6562V47.5294C57.6562 48.4934 56.872 49.2776 55.9082 49.2776H54.6094V31.2305C54.6094 30.5834 54.0847 30.0586 53.4375 30.0586Z" fill="#F4F4F4"/>
<path d="M52.4999 4.21875H26.0231C25.3759 4.21875 24.8513 4.74352 24.8513 5.39062C24.8513 6.03773 25.3759 6.5625 26.0231 6.5625H52.4999C53.1471 6.5625 53.6718 6.03773 53.6718 5.39062C53.6718 4.74352 53.1471 4.21875 52.4999 4.21875Z" fill="#F4F4F4"/>
<path d="M13.016 4.56211C12.798 4.34414 12.4957 4.21875 12.1875 4.21875C11.8793 4.21875 11.577 4.34402 11.359 4.56211C11.141 4.78008 11.0156 5.08242 11.0156 5.39062C11.0156 5.69883 11.141 6.00117 11.359 6.21902C11.577 6.43711 11.8793 6.5625 12.1875 6.5625C12.4957 6.5625 12.798 6.43711 13.016 6.21902C13.234 6.00117 13.3594 5.69883 13.3594 5.39062C13.3594 5.08242 13.234 4.78008 13.016 4.56211Z" fill="#F4F4F4"/>
<path d="M8.32852 4.56211C8.11055 4.34414 7.8082 4.21875 7.5 4.21875C7.1918 4.21875 6.88945 4.34402 6.67148 4.56211C6.45352 4.78008 6.32812 5.08242 6.32812 5.39062C6.32812 5.69883 6.45352 6.00117 6.67148 6.21902C6.88945 6.43711 7.1918 6.5625 7.5 6.5625C7.8082 6.5625 8.11055 6.43711 8.32852 6.21902C8.54648 6.00117 8.67188 5.69883 8.67188 5.39062C8.67188 5.08242 8.54648 4.78008 8.32852 4.56211Z" fill="#F4F4F4"/>
<path d="M17.7035 4.56211C17.4855 4.34414 17.1844 4.21875 16.875 4.21875C16.5668 4.21875 16.2645 4.34402 16.0465 4.56211C15.8285 4.78008 15.7031 5.08242 15.7031 5.39062C15.7031 5.69883 15.8285 6.00117 16.0465 6.21902C16.2645 6.43711 16.5668 6.5625 16.875 6.5625C17.1832 6.5625 17.4855 6.43711 17.7035 6.21902C17.9215 6.00117 18.0469 5.69883 18.0469 5.39062C18.0469 5.08242 17.9215 4.78008 17.7035 4.56211Z" fill="#F4F4F4"/>
<path d="M49.6874 15.9304C47.3611 15.9304 45.4686 17.8229 45.4686 20.1492C45.4686 21.0732 45.768 21.9282 46.2738 22.6239L38.4896 30.4081C37.8855 30.0738 37.1916 29.8828 36.4535 29.8828C35.7885 29.8828 35.1592 30.038 34.5991 30.3133L26.4711 22.1853C26.8055 21.5812 26.9965 20.8872 26.9965 20.1492C26.9965 17.8229 25.104 15.9304 22.7777 15.9304C20.4514 15.9304 18.559 17.8229 18.559 20.1492C18.559 20.9622 18.7908 21.7218 19.1908 22.3666L12.2706 29.2867C11.6665 28.9524 10.9725 28.7614 10.2346 28.7614C7.90827 28.7614 6.01581 30.6539 6.01581 32.9801C6.01581 35.3064 7.90827 37.1989 10.2346 37.1989C12.5608 37.1989 14.4533 35.3064 14.4533 32.9801C14.4533 32.2421 14.2623 31.5481 13.928 30.944L20.9308 23.9411C21.489 24.2141 22.1157 24.3678 22.7777 24.3678C23.5157 24.3678 24.2096 24.1768 24.8137 23.8425L32.8622 31.8908C32.4648 32.5341 32.2348 33.2912 32.2348 34.1013C32.2348 36.4276 34.1272 38.32 36.4535 38.32C38.7798 38.32 40.6723 36.4276 40.6723 34.1013C40.6723 33.3632 40.4812 32.6692 40.1469 32.0651L48.1397 24.0724C48.6193 24.2625 49.1412 24.3679 49.6874 24.3679C52.0137 24.3679 53.9061 22.4755 53.9061 20.1492C53.9061 17.8229 52.0137 15.9304 49.6874 15.9304ZM10.2347 34.8554C9.20085 34.8554 8.35968 34.0142 8.35968 32.9804C8.35968 31.9466 9.20085 31.1054 10.2347 31.1054C11.2685 31.1054 12.1097 31.9466 12.1097 32.9804C12.1097 34.0142 11.2685 34.8554 10.2347 34.8554ZM22.7778 22.0242C21.744 22.0242 20.9028 21.183 20.9028 20.1492C20.9028 19.1153 21.744 18.2742 22.7778 18.2742C23.8117 18.2742 24.6528 19.1153 24.6528 20.1492C24.6528 21.183 23.8117 22.0242 22.7778 22.0242ZM36.4536 35.9765C35.4198 35.9765 34.5786 35.1353 34.5786 34.1015C34.5786 33.0677 35.4198 32.2265 36.4536 32.2265C37.4874 32.2265 38.3286 33.0677 38.3286 34.1015C38.3286 35.1353 37.4874 35.9765 36.4536 35.9765ZM49.6874 22.0242C48.6535 22.0242 47.8124 21.183 47.8124 20.1492C47.8124 19.1153 48.6535 18.2742 49.6874 18.2742C50.7212 18.2742 51.5624 19.1153 51.5624 20.1492C51.5624 21.183 50.7212 22.0242 49.6874 22.0242Z" fill="#F4F4F4"/>
<path d="M17.3825 15.1113C17.1634 14.8933 16.8622 14.7678 16.554 14.7678C16.2446 14.7678 15.9423 14.8932 15.7243 15.1113C15.5064 15.3292 15.3821 15.6315 15.3821 15.9397C15.3821 16.2479 15.5064 16.5502 15.7243 16.7682C15.9435 16.9862 16.2446 17.1116 16.554 17.1116C16.8622 17.1116 17.1634 16.9863 17.3825 16.7682C17.6005 16.5502 17.7259 16.2479 17.7259 15.9397C17.7259 15.6315 17.6005 15.3292 17.3825 15.1113Z" fill="#F4F4F4"/>
<path d="M12.1875 14.7681H6.5625C5.91527 14.7681 5.39062 15.2928 5.39062 15.9399C5.39062 16.587 5.91527 17.1118 6.5625 17.1118H12.1875C12.8347 17.1118 13.3594 16.587 13.3594 15.9399C13.3594 15.2928 12.8347 14.7681 12.1875 14.7681Z" fill="#F4F4F4"/>
<path d="M12.1875 20.3931H6.5625C5.91527 20.3931 5.39062 20.9178 5.39062 21.5649C5.39062 22.2121 5.91527 22.7368 6.5625 22.7368H12.1875C12.8347 22.7368 13.3594 22.2121 13.3594 21.5649C13.3594 20.9178 12.8347 20.3931 12.1875 20.3931Z" fill="#F4F4F4"/>
</svg>
