<svg width="57" height="57" viewBox="0 0 57 57" fill="none" xmlns="http://www.w3.org/2000/svg">
<path d="M50.625 30.9375V29.0625C51.1425 29.0625 51.5625 28.6428 51.5625 28.125V22.5C51.5625 21.9822 51.1425 21.5625 50.625 21.5625H45.5625L45.3809 20.8583C44.9663 19.2477 44.3225 17.7048 43.4681 16.2777L43.0931 15.6504L46.6875 12.0498C47.0493 11.6873 47.0493 11.0999 46.6875 10.7373L42.7061 6.75C42.3384 6.39954 41.7609 6.39954 41.3932 6.75L37.7922 10.351L37.1653 9.97596C35.736 9.12122 34.1917 8.47742 32.5789 8.0625L31.875 7.8794V2.8125C31.875 2.29468 31.4553 1.875 30.9375 1.875H25.3125C24.7947 1.875 24.375 2.29468 24.375 2.8125V7.875L23.6708 8.05701C22.0602 8.47119 20.5173 9.11499 19.0895 9.96826L18.4622 10.3436L14.8623 6.75C14.4943 6.39661 13.9131 6.39661 13.545 6.75L9.5625 10.7314C9.38745 10.9061 9.28894 11.1434 9.28894 11.3906C9.28894 11.6382 9.38745 11.8751 9.5625 12.0498L13.1635 15.6504L12.7885 16.2777C11.9344 17.7048 11.2903 19.2477 10.8761 20.8583L10.6923 21.5625H5.625C5.10718 21.5625 4.6875 21.9822 4.6875 22.5V28.125C4.6875 28.6428 5.10718 29.0625 5.625 29.0625V30.9375C4.0719 30.9375 2.8125 29.6781 2.8125 28.125V22.5C2.8125 20.9469 4.0719 19.6875 5.625 19.6875H9.25232C9.63904 18.3911 10.162 17.1394 10.8124 15.9536L8.23425 13.3755C7.70691 12.8492 7.41064 12.1351 7.41064 11.3906C7.41064 10.6461 7.70691 9.93201 8.23425 9.40613L12.2186 5.42175C13.3286 4.35938 15.0787 4.35938 16.1887 5.42175L18.7661 7.99878C19.9519 7.34876 21.204 6.82691 22.5 6.44055V2.8125C22.5 1.2594 23.7594 0 25.3125 0H30.9375C32.4906 0 33.75 1.2594 33.75 2.8125V6.44055C35.0464 6.82691 36.2977 7.34986 37.4839 7.99988L40.062 5.42175C41.1724 4.35938 42.9221 4.35938 44.0325 5.42175L48.0161 9.40503C48.5431 9.93128 48.839 10.6447 48.839 11.3895C48.839 12.1344 48.5431 12.8485 48.0161 13.3744L45.438 15.9525C46.088 17.139 46.6106 18.3911 46.9977 19.6875H50.625C52.1781 19.6875 53.4375 20.9469 53.4375 22.5V28.125C53.4375 29.6781 52.1781 30.9375 50.625 30.9375Z" fill="#F4F4F4"/>
<path d="M41.2501 25.3125H39.3751C39.3751 19.0994 34.3382 14.0625 28.1251 14.0625C21.9119 14.0625 16.8751 19.0994 16.8751 25.3125H15.0001C15.0001 18.0637 20.8763 12.1875 28.1251 12.1875C35.3735 12.1875 41.2501 18.0637 41.2501 25.3125Z" fill="#F4F4F4"/>
<path d="M28.1251 32.8125C25.0185 32.8125 22.5001 30.2937 22.5001 27.1875C22.5001 24.0809 25.0185 21.5625 28.1251 21.5625C31.232 21.5625 33.7501 24.0809 33.7501 27.1875C33.7468 30.293 31.2305 32.8092 28.1251 32.8125ZM28.1251 23.4375C26.0541 23.4375 24.3751 25.1166 24.3751 27.1875C24.3751 29.2584 26.0541 30.9375 28.1251 30.9375C30.196 30.9375 31.8751 29.2584 31.8751 27.1875C31.8751 25.1166 30.196 23.4375 28.1251 23.4375Z" fill="#F4F4F4"/>
<path d="M44.0626 36.5625C40.956 36.5625 38.4376 34.0437 38.4376 30.9375C38.4376 27.8309 40.956 25.3125 44.0626 25.3125C47.1691 25.3125 49.6876 27.8309 49.6876 30.9375C49.6843 34.043 47.168 36.5592 44.0626 36.5625ZM44.0626 27.1875C41.9916 27.1875 40.3126 28.8666 40.3126 30.9375C40.3126 33.0084 41.9916 34.6875 44.0626 34.6875C46.1335 34.6875 47.8126 33.0084 47.8126 30.9375C47.8126 28.8666 46.1335 27.1875 44.0626 27.1875Z" fill="#F4F4F4"/>
<path d="M12.1876 36.5625C9.08099 36.5625 6.56256 34.0437 6.56256 30.9375C6.56256 27.8309 9.08099 25.3125 12.1876 25.3125C15.2945 25.3125 17.8126 27.8309 17.8126 30.9375C17.8093 34.043 15.293 36.5592 12.1876 36.5625ZM12.1876 27.1875C10.1166 27.1875 8.43756 28.8666 8.43756 30.9375C8.43756 33.0084 10.1166 34.6875 12.1876 34.6875C14.2585 34.6875 15.9376 33.0084 15.9376 30.9375C15.9376 28.8666 14.2585 27.1875 12.1876 27.1875Z" fill="#F4F4F4"/>
<path d="M52.5615 38.9678C51.1644 38.0076 49.5081 37.4953 47.8125 37.5001H40.3125C39.8566 37.5041 39.4014 37.5455 38.952 37.6235C38.3522 36.6852 37.5718 35.8759 36.6563 35.2413C36.5189 35.1376 36.3746 35.0435 36.2241 34.9604C34.9127 34.1661 33.408 33.7479 31.875 33.7501H24.375C21.5079 33.7398 18.8364 35.2028 17.3005 37.6235C16.8501 37.5455 16.3942 37.5041 15.9375 37.5001H8.4375C6.74341 37.4953 5.0874 38.0069 3.69104 38.966C1.38318 40.5363 0.00146484 43.1463 0 45.9376V49.6876C0.00329588 52.2474 1.49268 54.5721 3.81775 55.6444C4.67615 56.0487 5.61401 56.2556 6.5625 56.2501H15.9375V54.3751H7.5V44.0626H5.625V54.2809C5.27197 54.2103 4.9292 54.096 4.60401 53.9418C2.94324 53.1761 1.87866 51.5161 1.875 49.6876V45.9376C1.8772 43.7652 2.95349 41.7346 4.74939 40.5129C5.83447 39.768 7.12097 39.3714 8.4375 39.3751H15.9375C16.1027 39.3751 16.262 39.3926 16.4231 39.4036C16.106 40.2979 15.9415 41.2391 15.9375 42.1876V51.5626C15.9408 54.1502 18.0377 56.2468 20.625 56.2501H23.4375V41.2501H21.5625V54.3751H20.625C19.0719 54.3751 17.8125 53.1157 17.8125 51.5626V42.1876C17.8125 38.5628 20.751 35.6251 24.375 35.6251H31.875C33.0813 35.6258 34.2634 35.9598 35.2921 36.5897C35.3873 36.6417 35.4789 36.7003 35.5657 36.7647C36.4442 37.3664 37.1653 38.1702 37.6677 39.1085C38.1727 40.0562 38.4375 41.1135 38.4375 42.1876V51.5626C38.4375 53.1157 37.1781 54.3751 35.625 54.3751H34.6875V41.2501H32.8125V56.2501H35.625C38.2127 56.2468 40.3092 54.1502 40.3125 51.5626V42.1876C40.3081 41.2391 40.1444 40.2983 39.8276 39.4036C39.9891 39.3926 40.1484 39.3751 40.3125 39.3751H47.8125C49.1298 39.3714 50.4174 39.7691 51.5032 40.5147C53.2976 41.7371 54.3724 43.7663 54.375 45.9376V49.6876C54.3717 51.5226 53.2991 53.1874 51.6303 53.9492C51.3098 54.1008 50.9722 54.2121 50.625 54.2809V44.0626H48.75V54.3751H40.3125V56.2501H49.6875C50.6305 56.2559 51.5629 56.0516 52.4165 55.6517C54.7493 54.5827 56.2464 52.2536 56.25 49.6876V45.9376C56.2485 43.1474 54.8679 40.5385 52.5615 38.9678V38.9678Z" fill="#F4F4F4"/>
</svg>
