<svg width="57" height="57" viewBox="0 0 57 57" fill="none" xmlns="http://www.w3.org/2000/svg">
<path d="M13.89 47.8125H16.1109C16.4991 48.9009 17.5303 49.6875 18.7509 49.6875C20.3016 49.6875 21.5634 48.4256 21.5634 46.875C21.5634 45.3244 20.3016 44.0625 18.7509 44.0625C17.5303 44.0625 16.4991 44.8491 16.1109 45.9375H13.89C13.5019 44.8491 12.4706 44.0625 11.25 44.0625C9.69937 44.0625 8.4375 45.3244 8.4375 46.875C8.4375 48.4256 9.69937 49.6875 11.25 49.6875C12.4706 49.6875 13.5019 48.9009 13.89 47.8125ZM18.75 45.9375C19.2666 45.9375 19.6875 46.3575 19.6875 46.875C19.6875 47.3925 19.2666 47.8125 18.75 47.8125C18.2334 47.8125 17.8125 47.3925 17.8125 46.875C17.8125 46.3575 18.2334 45.9375 18.75 45.9375ZM10.3125 46.875C10.3125 46.3575 10.7334 45.9375 11.25 45.9375C11.7666 45.9375 12.1875 46.3575 12.1875 46.875C12.1875 47.3925 11.7666 47.8125 11.25 47.8125C10.7334 47.8125 10.3125 47.3925 10.3125 46.875Z" fill="#F4F4F4"/>
<path d="M46.11 44.0625C46.4981 45.1509 47.5294 45.9375 48.75 45.9375C50.3006 45.9375 51.5625 44.6756 51.5625 43.125C51.5625 41.5744 50.3006 40.3125 48.75 40.3125C47.5294 40.3125 46.4981 41.0991 46.11 42.1875H40.3125C39.795 42.1875 39.375 42.6066 39.375 43.125V47.985C38.2866 48.3731 37.5 49.4044 37.5 50.625C37.5 52.1756 38.7619 53.4375 40.3125 53.4375C41.8631 53.4375 43.125 52.1756 43.125 50.625C43.125 49.4044 42.3384 48.3731 41.25 47.985V44.0625H46.11ZM48.75 42.1875C49.2666 42.1875 49.6875 42.6075 49.6875 43.125C49.6875 43.6425 49.2666 44.0625 48.75 44.0625C48.2334 44.0625 47.8125 43.6425 47.8125 43.125C47.8125 42.6075 48.2334 42.1875 48.75 42.1875ZM40.3125 51.5625C39.7959 51.5625 39.375 51.1425 39.375 50.625C39.375 50.1075 39.7959 49.6875 40.3125 49.6875C40.8291 49.6875 41.25 50.1075 41.25 50.625C41.25 51.1425 40.8291 51.5625 40.3125 51.5625Z" fill="#F4F4F4"/>
<path d="M28.125 0C12.6169 0 0 12.6169 0 28.125C0 28.6434 0.42 29.0625 0.9375 29.0625H14.0625V32.0475C13.2684 32.3306 12.6431 32.9559 12.36 33.75H7.88812L5.35031 31.2122C5.175 31.0359 4.93594 30.9375 4.6875 30.9375H0.9375V32.8125H4.29937L6.83719 35.3503C7.0125 35.5266 7.25156 35.625 7.5 35.625H12.36C12.6431 36.4191 13.2684 37.0444 14.0625 37.3275V39.375H8.265C7.87687 38.2866 6.84563 37.5 5.625 37.5C4.07437 37.5 2.8125 38.7619 2.8125 40.3125C2.8125 41.8631 4.07437 43.125 5.625 43.125C6.84563 43.125 7.87687 42.3384 8.265 41.25H15C15.5175 41.25 15.9375 40.8309 15.9375 40.3125V37.3275C17.0259 36.9394 17.8125 35.9081 17.8125 34.6875C17.8125 33.4669 17.0259 32.4356 15.9375 32.0475V29.0625H19.6875V39.375C19.6875 39.6244 19.7859 39.8625 19.9622 40.0378L23.4375 43.5131V50.7975C22.3491 51.1856 21.5625 52.2169 21.5625 53.4375C21.5625 54.9881 22.8244 56.25 24.375 56.25C25.9256 56.25 27.1875 54.9881 27.1875 53.4375C27.1875 52.2169 26.4009 51.1856 25.3125 50.7975V43.5131L26.9128 41.9128C27.0891 41.7375 27.1875 41.4994 27.1875 41.25V36.39C28.2759 36.0019 29.0625 34.9706 29.0625 33.75C29.0625 32.5294 28.2759 31.4981 27.1875 31.11V29.0625H36.1744L34.0247 31.2122C33.8484 31.3875 33.75 31.6256 33.75 31.875V33.9225C32.6616 34.3106 31.875 35.3419 31.875 36.5625C31.875 37.7831 32.6616 38.8144 33.75 39.2025V41.7994L32.1497 43.3997C31.9734 43.575 31.875 43.8131 31.875 44.0625V49.86C30.7866 50.2481 30 51.2794 30 52.5C30 54.0506 31.2619 55.3125 32.8125 55.3125C34.3631 55.3125 35.625 54.0506 35.625 52.5C35.625 51.2794 34.8384 50.2481 33.75 49.86V44.4506L35.3503 42.8503C35.5266 42.675 35.625 42.4369 35.625 42.1875V39.2025C36.4191 38.9194 37.0444 38.2941 37.3275 37.5H42.1875C42.4359 37.5 42.675 37.4016 42.8503 37.2253L45.3881 34.6875H49.86C50.2481 35.7759 51.2794 36.5625 52.5 36.5625C54.0506 36.5625 55.3125 35.3006 55.3125 33.75C55.3125 32.5294 54.5259 31.4981 53.4375 31.11V29.0625H55.3125C55.83 29.0625 56.25 28.6434 56.25 28.125C56.25 12.6169 43.6331 0 28.125 0ZM5.625 41.25C5.10844 41.25 4.6875 40.83 4.6875 40.3125C4.6875 39.795 5.10844 39.375 5.625 39.375C6.14156 39.375 6.5625 39.795 6.5625 40.3125C6.5625 40.83 6.14156 41.25 5.625 41.25ZM15 35.625C14.4834 35.625 14.0625 35.205 14.0625 34.6875C14.0625 34.17 14.4834 33.75 15 33.75C15.5166 33.75 15.9375 34.17 15.9375 34.6875C15.9375 35.205 15.5166 35.625 15 35.625ZM32.8125 53.4375C32.2959 53.4375 31.875 53.0175 31.875 52.5C31.875 51.9825 32.2959 51.5625 32.8125 51.5625C33.3291 51.5625 33.75 51.9825 33.75 52.5C33.75 53.0175 33.3291 53.4375 32.8125 53.4375ZM50.8566 15.0112C49.3828 15.5944 47.7769 16.1147 46.0669 16.5703C45.2588 14.0175 44.1919 11.6681 42.9131 9.58875C43.935 9.32906 44.8903 9.03938 45.7819 8.72531C47.7778 10.5441 49.4953 12.6609 50.8566 15.0112ZM36.5559 27.1875C36.5325 24.8522 36.4237 22.5037 36.2306 20.2153C39.2241 19.9116 42.1022 19.4419 44.7778 18.8222C45.4528 21.4378 45.8503 24.2513 45.9206 27.1875H36.5559ZM32.5247 9.2325C31.0866 9.32156 29.6184 9.375 28.125 9.375C26.6316 9.375 25.1634 9.32156 23.7253 9.2325C25.0369 4.49719 26.7225 1.875 28.125 1.875C29.5275 1.875 31.2131 4.49719 32.5247 9.2325ZM31.7053 2.40844C34.7709 3.33375 37.5497 5.43 39.8241 8.35594C38.1375 8.67375 36.3225 8.91375 34.4334 9.08531C33.7041 6.32156 32.7928 4.00875 31.7053 2.40844V2.40844ZM32.9925 11.0841C33.4866 13.23 33.9056 15.7153 34.2028 18.5147C32.2116 18.6675 30.1781 18.75 28.125 18.75C26.0719 18.75 24.0384 18.6675 22.0481 18.5147C22.3453 15.7153 22.7644 13.23 23.2584 11.0841C24.8466 11.1909 26.4741 11.25 28.125 11.25C29.7759 11.25 31.4034 11.1909 32.9925 11.0841V11.0841ZM21.8166 9.08437C19.9275 8.91281 18.1125 8.67281 16.4259 8.355C18.7003 5.42812 21.4781 3.33281 24.5447 2.4075C23.4572 4.00875 22.5459 6.32156 21.8166 9.08437ZM21.3722 10.9256C20.8688 13.2056 20.4769 15.7219 20.1975 18.3506C17.3203 18.0591 14.5575 17.6109 11.9906 17.0203C12.8147 14.4291 13.9191 12.0703 15.2438 10.0238C17.1469 10.4175 19.2066 10.7194 21.3722 10.9256V10.9256ZM20.0184 20.2153C19.8253 22.5037 19.7166 24.8522 19.6931 27.1875H10.3275C10.3978 24.2522 10.7953 21.4378 11.4703 18.8222C14.1469 19.4428 17.025 19.9116 20.0184 20.2153ZM21.8738 20.3803C23.9231 20.5397 26.0147 20.625 28.125 20.625C30.2353 20.625 32.3269 20.5397 34.3762 20.3803C34.5516 22.4963 34.6584 24.7688 34.68 27.1875H21.5691C21.5916 24.7697 21.6984 22.4963 21.8738 20.3803V20.3803ZM36.0534 18.3506C35.7741 15.7219 35.3822 13.2056 34.8787 10.9256C37.0434 10.7194 39.1041 10.4175 41.0072 10.0247C42.3319 12.0722 43.4362 14.4309 44.2603 17.0213C41.6934 17.6109 38.9306 18.0591 36.0534 18.3506ZM44.0991 7.31719C43.3763 7.54031 42.6103 7.74562 41.8097 7.935C40.6622 6.34687 39.3806 4.95844 37.9912 3.80344C40.1925 4.69875 42.2428 5.8875 44.0991 7.31719V7.31719ZM14.4394 7.93406C13.6388 7.74469 12.8738 7.53937 12.15 7.31625C14.0072 5.8875 16.0566 4.69781 18.2578 3.8025C16.8684 4.9575 15.5869 6.34688 14.4394 7.93406ZM10.4681 8.72625C11.3597 9.04031 12.3141 9.33 13.3369 9.58969C12.0581 11.6691 10.9913 14.0184 10.1831 16.5713C8.47406 16.1156 6.86719 15.5953 5.39344 15.0122C6.75469 12.6609 8.47219 10.5441 10.4681 8.72625V8.72625ZM4.51313 16.6772C6.09281 17.3128 7.81875 17.8781 9.66 18.3703C8.94281 21.1322 8.52469 24.0984 8.45344 27.1884H1.89094C2.02406 23.43 2.95688 19.875 4.51313 16.6772ZM24.375 54.375C23.8584 54.375 23.4375 53.955 23.4375 53.4375C23.4375 52.92 23.8584 52.5 24.375 52.5C24.8916 52.5 25.3125 52.92 25.3125 53.4375C25.3125 53.955 24.8916 54.375 24.375 54.375ZM26.25 34.6875C25.7334 34.6875 25.3125 34.2675 25.3125 33.75C25.3125 33.2325 25.7334 32.8125 26.25 32.8125C26.7666 32.8125 27.1875 33.2325 27.1875 33.75C27.1875 34.2675 26.7666 34.6875 26.25 34.6875ZM25.3125 31.11C24.2241 31.4981 23.4375 32.5294 23.4375 33.75C23.4375 34.9706 24.2241 36.0019 25.3125 36.39V40.8619L24.375 41.7994L21.5625 38.9869V29.0625H25.3125V31.11ZM34.6875 37.5C34.1709 37.5 33.75 37.08 33.75 36.5625C33.75 36.045 34.1709 35.625 34.6875 35.625C35.2041 35.625 35.625 36.045 35.625 36.5625C35.625 37.08 35.2041 37.5 34.6875 37.5ZM52.5 34.6875C51.9834 34.6875 51.5625 34.2675 51.5625 33.75C51.5625 33.2325 51.9834 32.8125 52.5 32.8125C53.0166 32.8125 53.4375 33.2325 53.4375 33.75C53.4375 34.2675 53.0166 34.6875 52.5 34.6875ZM51.5625 31.11C50.7684 31.3931 50.1431 32.0184 49.86 32.8125H45C44.7516 32.8125 44.5125 32.9109 44.3372 33.0872L41.7994 35.625H37.3275C37.0444 34.8309 36.4191 34.2056 35.625 33.9225V32.2631L38.8256 29.0625H51.5625V31.11ZM47.7956 27.1875C47.7244 24.0975 47.3062 21.1312 46.5891 18.3694C48.4303 17.8781 50.1563 17.3119 51.7359 16.6763C53.2931 19.875 54.2259 23.43 54.3581 27.1875H47.7956Z" fill="#F4F4F4"/>
</svg>
