<svg width="59" height="59" viewBox="0 0 59 59" fill="none" xmlns="http://www.w3.org/2000/svg">
<path d="M49.6877 24.375H47.8127C46.2621 24.375 45.0002 25.6369 45.0002 27.1875V27.5456L44.6477 27.7219C43.7084 28.1916 43.1252 29.1356 43.1252 30.1847C43.1252 30.9206 43.4121 31.6116 43.9315 32.1319L45.0002 33.2006V41.5912C45.0002 41.7234 44.9459 41.8528 44.8531 41.9466C44.7396 42.0591 44.5793 42.1116 44.4218 42.0881L43.8912 42.0066C43.5002 40.7175 42.4896 39.8597 41.6468 39.1528C40.8171 38.4572 40.3127 37.9978 40.3127 37.5C40.3127 36.2091 40.5274 35.3522 40.7534 34.4466C40.9971 33.4697 41.2502 32.4591 41.2502 30.9375C41.2502 28.4316 39.9565 26.5941 39.3752 25.8947V25.7812C39.3752 19.8366 34.5387 15 28.594 15C22.6493 15 17.8127 19.8366 17.8127 25.7812V32.2228C16.8124 32.79 15.0002 34.2647 15.0002 37.5C15.0002 39.0909 15.7127 40.4681 16.7093 41.625L13.7056 42.0872C13.5434 42.1116 13.3859 42.0581 13.2734 41.9456C13.1796 41.8519 13.1262 41.7225 13.1262 41.5903V33.1997L14.1949 32.1309C14.7134 31.6125 15.0002 30.9206 15.0002 30.1847C15.0002 29.1347 14.4171 28.1916 13.4777 27.7219L13.1252 27.5456V27.1875C13.1252 25.6369 11.8634 24.375 10.3127 24.375H8.43774C6.88712 24.375 5.62524 25.6369 5.62524 27.1875V42.5681C5.62524 44.3859 6.33306 46.0959 7.61931 47.3831C9.11556 48.8784 11.1781 49.5891 13.2781 49.3237L17.8127 48.7575V58.125H40.3127V48.7575L44.8474 49.3237C46.9456 49.59 49.009 48.8784 50.5062 47.3822C51.7924 46.0959 52.5002 44.3859 52.5002 42.5681V27.1875C52.5002 25.6369 51.2384 24.375 49.6877 24.375V24.375ZM45.4868 29.3991L46.8752 28.7044V27.1875C46.8752 26.6709 47.2952 26.25 47.8127 26.25H49.6877C50.2052 26.25 50.6252 26.6709 50.6252 27.1875V31.875H46.3259L45.2571 30.8063C45.0921 30.6403 45.0002 30.42 45.0002 30.1847C45.0002 29.85 45.1859 29.5491 45.4868 29.3991ZM19.0465 33.7022L19.6877 33.4884V25.7812C19.6877 20.8706 23.6834 16.875 28.594 16.875C33.5046 16.875 37.5002 20.8706 37.5002 25.7812V26.6381L37.7749 26.9128C37.7909 26.9288 39.3752 28.5413 39.3752 30.9375C39.3752 32.2284 39.1606 33.0853 38.9346 33.9909C38.6909 34.9678 38.4377 35.9784 38.4377 37.5C38.4377 38.9091 39.5027 39.8016 40.4421 40.5891C40.8602 40.9397 41.2652 41.28 41.5812 41.6503L33.7502 40.4456V38.6578C35.4621 37.2816 36.5627 35.175 36.5627 32.8125V25.3125H31.5049C29.479 25.3125 27.5177 24.7191 25.8321 23.595L25.3127 23.2481L21.5627 25.7484V32.8125C21.5627 35.5716 23.0646 37.98 25.2884 39.2831C25.2424 39.8372 25.1149 40.3847 24.7671 40.7653L24.1634 41.4281L24.7971 42.0619C25.699 42.9628 26.2427 43.5103 26.2493 44.9784L26.1893 45.7575C26.0065 46.9472 25.3109 48.78 22.9249 50.2547C22.3352 49.2609 21.4784 48.5062 20.7002 47.8219C20.3084 47.4769 19.9718 47.1703 19.6877 46.8769V46.875H19.6859C19.0943 46.2637 18.7502 45.7097 18.7502 45C18.7502 44.4375 18.8515 43.9913 18.9752 43.6509C20.9468 45.0497 22.9446 45.8156 23.1087 45.8775L23.7677 44.1216C21.8506 43.4034 16.8752 40.8122 16.8752 37.5C16.8752 34.5122 18.9659 33.7303 19.0465 33.7022V33.7022ZM29.0627 38.4375C25.9606 38.4375 23.4377 35.9147 23.4377 32.8125V26.7516L25.3277 25.4916C27.1971 26.6025 29.3187 27.1875 31.5049 27.1875H34.6877V32.8125C34.6877 35.9147 32.1649 38.4375 29.0627 38.4375ZM29.0627 40.3125C30.0574 40.3125 31.0062 40.1137 31.8752 39.7603V40.8619L28.6746 44.0625H28.0521C27.8637 42.7922 27.304 41.9822 26.6656 41.2922C26.8765 40.8872 27.0002 40.4597 27.0762 40.0369C27.7109 40.2113 28.3746 40.3125 29.0627 40.3125V40.3125ZM28.0577 45.9375H28.6746L29.6224 46.8853L30.8112 56.25H27.2627L28.054 45.9675C28.0549 45.9572 28.0559 45.9478 28.0577 45.9375V45.9375ZM30.3884 45L33.1399 42.2484L33.2918 42.2719L32.2681 46.8788L30.3884 45ZM8.43774 26.25H10.3127C10.8302 26.25 11.2502 26.6709 11.2502 27.1875V28.7044L12.6387 29.3991C12.9396 29.5491 13.1252 29.85 13.1252 30.1847C13.1252 30.4191 13.0334 30.6403 12.8684 30.8063L11.7996 31.875H7.50024V27.1875C7.50024 26.6709 7.92024 26.25 8.43774 26.25V26.25ZM13.0456 47.4637C11.5174 47.6522 10.0296 47.1412 8.94493 46.0575C8.01399 45.1247 7.50024 43.8853 7.50024 42.5681V33.75H11.2502V41.5912C11.2502 42.2259 11.4977 42.8231 11.9468 43.2722C12.4793 43.8056 13.2434 44.0541 13.9896 43.9406L17.0721 43.4662C16.9559 43.905 16.8752 44.4122 16.8752 45C16.8752 45.7387 17.0731 46.3697 17.3824 46.9284L13.0456 47.4637ZM19.6877 49.4316C20.5259 50.1741 21.2918 50.9016 21.6115 51.8588L21.9527 52.8844L22.9193 52.4006C24.1671 51.7772 25.1121 51.0637 25.8377 50.3259L25.3821 56.25H19.6877V49.4316ZM49.1806 46.0566C48.0959 47.1412 46.6062 47.6531 45.0799 47.4637L40.429 46.8825L38.4377 46.875V56.25H32.7012L31.7871 49.05L33.3574 50.6203L35.149 42.5578L44.1368 43.9406C44.8802 44.0541 45.6452 43.8047 46.1787 43.2722C46.6277 42.8231 46.8752 42.2259 46.8752 41.5912V33.75H50.6252V42.5681C50.6252 43.8853 50.1115 45.1247 49.1806 46.0566V46.0566Z" fill="#F4F4F4"/>
<path d="M29.0627 13.125C32.6806 13.125 35.6252 10.1812 35.6252 6.5625C35.6252 2.94375 32.6806 0 29.0627 0C25.4449 0 22.5002 2.94375 22.5002 6.5625C22.5002 10.1812 25.4449 13.125 29.0627 13.125ZM29.0627 1.875C31.6474 1.875 33.7502 3.97781 33.7502 6.5625C33.7502 9.14719 31.6474 11.25 29.0627 11.25C26.4781 11.25 24.3752 9.14719 24.3752 6.5625C24.3752 3.97781 26.4781 1.875 29.0627 1.875Z" fill="#F4F4F4"/>
<path d="M32.538 5.35028L31.2124 4.02466L28.1252 7.11185L26.913 5.89966L25.5874 7.22528L28.1252 9.7631L32.538 5.35028Z" fill="#F4F4F4"/>
<path d="M8.43782 22.5005C10.5059 22.5005 12.1878 20.8186 12.1878 18.7505V17.0705C12.1878 16.4433 12.4972 15.8546 12.9959 15.5339C15.425 13.9721 16.8753 11.3199 16.8753 8.43801C16.8753 6.03801 15.8478 3.74395 14.0572 2.14457C12.2684 0.545196 9.86469 -0.216054 7.45813 0.0558212C3.65938 0.486134 0.553443 3.54613 0.0706308 7.33363C-0.348432 10.6224 1.11876 13.7696 3.90032 15.5471C4.38594 15.8583 4.68782 16.4564 4.68782 17.1099V18.7505C4.68782 20.8186 6.36969 22.5005 8.43782 22.5005ZM8.43782 20.6255C7.40376 20.6255 6.56282 19.7846 6.56282 18.7505H10.3128C10.3128 19.7846 9.47188 20.6255 8.43782 20.6255ZM7.50032 8.43801C7.50032 7.92145 7.92032 7.50051 8.43782 7.50051C8.95532 7.50051 9.37532 7.92145 9.37532 8.43801C9.37532 8.95457 8.95532 9.37551 8.43782 9.37551C7.92032 9.37551 7.50032 8.95457 7.50032 8.43801ZM1.93157 7.57082C2.30563 4.62988 4.71969 2.25238 7.66907 1.91863C7.92969 1.88957 8.18844 1.87551 8.44532 1.87551C10.0634 1.87551 11.5897 2.45395 12.8084 3.54238C14.2006 4.78645 15.0003 6.57145 15.0003 8.43801C15.0003 10.6786 13.8725 12.7421 11.9825 13.9571C10.9906 14.5936 10.385 15.6746 10.325 16.8755H9.37532V11.078C10.4638 10.6899 11.2503 9.65863 11.2503 8.43801C11.2503 6.88738 9.98844 5.62551 8.43782 5.62551C6.88719 5.62551 5.62532 6.88738 5.62532 8.43801C5.62532 9.65863 6.41188 10.6899 7.50032 11.078V16.8755H6.54876C6.47938 15.6643 5.88219 14.588 4.90907 13.9674C2.74626 12.5846 1.60438 10.1339 1.93157 7.57082V7.57082Z" fill="#F4F4F4"/>
<path d="M58.1252 7.76156L55.8237 6.99375L56.9084 4.82437L53.3009 1.21688L51.1306 2.3025L50.3637 0H45.2627L44.4959 2.3025L42.3256 1.21688L38.7181 4.82437L39.8027 6.99375L37.5002 7.76156V12.8625L39.8018 13.6303L38.7171 15.7997L42.3246 19.4072L44.4949 18.3216L45.2618 20.625H50.3627L51.1296 18.3225L53.2999 19.4081L56.9074 15.8006L55.8227 13.6312L58.1252 12.8634V7.76156ZM56.2502 11.5116L54.0996 12.2287L53.9412 12.6422C53.8943 12.7622 53.8474 12.8813 53.7959 12.9975L53.614 13.4034L54.6274 15.4303L52.9315 17.1262L50.9046 16.1128L50.4987 16.2947C50.3834 16.3463 50.2662 16.3931 50.1471 16.4381L49.7299 16.5956L49.0118 18.75H46.6127L45.8946 16.5956L45.4774 16.4381C45.3584 16.3931 45.2412 16.3463 45.1259 16.2947L44.7199 16.1128L42.6931 17.1262L40.9971 15.4303L42.0106 13.4034L41.8287 12.9975C41.7762 12.8803 41.7302 12.7622 41.6834 12.6422L41.5249 12.2287L39.3752 11.5116V9.1125L41.5259 8.39531L41.6843 7.98187C41.7312 7.86187 41.7781 7.74281 41.8296 7.62656L42.0115 7.22062L40.9981 5.19375L42.694 3.49781L44.7209 4.51125L45.1268 4.32938C45.2421 4.27781 45.3593 4.23094 45.4784 4.18594L45.8956 4.02844L46.6137 1.875H49.0127L49.7309 4.02937L50.1481 4.18688C50.2671 4.23188 50.3843 4.27875 50.4996 4.33031L50.9056 4.51219L52.9324 3.49875L54.6284 5.19469L53.6149 7.22156L53.7968 7.6275C53.8493 7.74469 53.8952 7.86281 53.9421 7.98281L54.1006 8.39625L56.2502 9.11344V11.5116Z" fill="#F4F4F4"/>
<path d="M47.8127 5.625C45.2281 5.625 43.1252 7.72781 43.1252 10.3125C43.1252 12.8972 45.2281 15 47.8127 15C50.3974 15 52.5002 12.8972 52.5002 10.3125C52.5002 7.72781 50.3974 5.625 47.8127 5.625ZM47.8127 13.125C46.2621 13.125 45.0002 11.8631 45.0002 10.3125C45.0002 8.76187 46.2621 7.5 47.8127 7.5C49.3634 7.5 50.6252 8.76187 50.6252 10.3125C50.6252 11.8631 49.3634 13.125 47.8127 13.125Z" fill="#F4F4F4"/>
</svg>
