<svg width="51" height="60" viewBox="0 0 51 60" fill="none" xmlns="http://www.w3.org/2000/svg">
<path d="M49.0984 5.04852L31.598 0.0484729C31.3255 -0.0296932 31.0346 -0.0129349 30.773 0.0959351L0.772193 12.5963C0.307533 12.7907 0.00494729 13.2451 0.00471291 13.7489V46.2497C0.00471291 46.9352 0.556797 47.4928 1.24224 47.4997C0.551875 47.5039 -0.00431087 48.0672 2.51816e-05 48.7574C0.00330652 49.2946 0.349488 49.7696 0.859735 49.9373L30.8605 59.9375C30.9881 59.9788 31.1214 59.9998 31.2555 60C31.3714 59.9993 31.4868 59.9824 31.5981 59.9499L49.0985 54.9498C49.6348 54.7969 50.0051 54.3074 50.006 53.7497V6.24855C50.005 5.69096 49.6348 5.20134 49.0984 5.04852ZM1.81472 47.3672L9.31491 43.6171C9.73785 43.4052 10.0049 42.9727 10.0049 42.4996V15.9763L32.5055 10.3512V52.2922L1.44463 47.5146C1.38592 47.5048 1.32662 47.4997 1.26709 47.4996C1.45729 47.4971 1.64444 47.4519 1.81472 47.3672Z" fill="#F4F4F4"/>
</svg>
