<svg width="60" height="60" viewBox="0 0 60 60" fill="none" xmlns="http://www.w3.org/2000/svg">
<path d="M59.1458 15.7471C59.1457 15.7471 59.1457 15.7471 59.1455 15.7471L59.1436 15.7451L55.2707 15.1926C54.7264 15.115 54.348 14.6109 54.4255 14.0666C54.4627 13.805 54.6025 13.569 54.8138 13.4105L57.9439 11.0629C58.3838 10.733 58.4729 10.109 58.143 9.66908L54.5589 4.89029C54.229 4.45036 53.605 4.36126 53.1651 4.69117L50.036 7.03875C49.5979 7.37115 48.9734 7.28553 48.641 6.84748C48.4796 6.6348 48.4104 6.36611 48.449 6.10191L49.0026 2.2291C49.0806 1.68476 48.7026 1.18037 48.1584 1.10222C48.1581 1.10222 48.1577 1.1021 48.1573 1.1021L42.2475 0.257843C41.7033 0.17969 41.1987 0.557513 41.1205 1.10185C41.1205 1.10197 41.1205 1.10197 41.1205 1.1021L40.567 4.97491C40.4895 5.51925 39.9853 5.89769 39.441 5.82016C39.1794 5.78295 38.9434 5.6432 38.7849 5.43188L36.4383 2.30177C36.1084 1.86185 35.4844 1.77275 35.0445 2.10266L32.0528 4.34769C30.6993 4.20383 29.3343 4.20383 27.9808 4.34769C19.1169 5.36082 12.1659 12.4297 11.3019 21.3094C11.275 21.5912 11.265 21.8709 11.2511 22.1507H10.9524C10.48 22.1516 10.0732 22.4843 9.97872 22.9472L9.29077 26.2186L6.535 24.3181C6.13951 24.0452 5.60538 24.0938 5.26564 24.4336L2.27889 27.4203C1.93965 27.7599 1.89111 28.2933 2.1634 28.6887L4.05501 31.4395L0.78253 32.1274C0.324811 32.2277 -0.000993307 32.6336 2.27544e-06 33.1021V37.0844C-0.00024662 37.5553 0.329664 37.962 0.790494 38.0591L4.06297 38.7471L2.17137 41.4978C1.89908 41.8932 1.94761 42.4266 2.28685 42.7662L5.2736 45.753C5.61334 46.0927 6.14747 46.1414 6.54297 45.8685L9.29376 43.9719L9.98171 47.2443C10.0762 47.7072 10.483 48.0399 10.9554 48.0408H14.9377C15.4086 48.0411 15.8153 47.7111 15.9124 47.2503L16.6003 43.9778L19.3511 45.8694C19.7465 46.1417 20.2799 46.0932 20.6195 45.754L22.1656 44.2028V47.0402C22.1701 48.4566 22.9289 49.7632 24.1568 50.469V56.0005C24.1568 58.1999 25.9398 59.9828 28.1391 59.9828H32.1215C34.3208 59.9828 36.1038 58.1999 36.1038 56.0005V50.469C37.3317 49.7632 38.0905 48.4566 38.095 47.0402V43.0997C38.122 41.4417 38.9894 39.911 40.3977 39.0358C41.2239 38.4998 42.0075 37.9006 42.7413 37.2437L41.4132 35.7603C40.7568 36.3487 40.0554 36.8849 39.3155 37.3642C37.3387 38.6049 36.1286 40.7658 36.1038 43.0997V47.0402C36.1038 48.14 35.2124 49.0314 34.1126 49.0314H26.148C25.0482 49.0314 24.1568 48.14 24.1568 47.0402V43.0171C24.1338 40.7274 22.9427 38.6082 20.9988 37.398C13.108 32.4398 10.7305 22.0236 15.6888 14.1328C18.7651 9.23687 24.134 6.25697 29.9162 6.23631C29.9014 6.27178 29.8884 6.308 29.8774 6.34483C29.8405 6.60617 29.9089 6.87162 30.0676 7.08256L32.4142 10.2117C32.6616 10.5319 32.6853 10.9717 32.4739 11.3168C32.2703 11.664 31.8767 11.8534 31.4783 11.7956L27.6055 11.2421C27.0612 11.1641 26.5568 11.542 26.4786 12.0862C26.4786 12.0866 26.4785 12.087 26.4785 12.0873L25.6333 18.0001C25.5552 18.5443 25.9332 19.0488 26.4774 19.127C26.4778 19.127 26.4781 19.1271 26.4785 19.1271L30.3513 19.6807C30.8957 19.7582 31.2741 20.2623 31.1966 20.8067C31.1594 21.0682 31.0196 21.3042 30.8083 21.4627L27.6792 23.8093C27.2393 24.1392 27.1501 24.7632 27.4801 25.2031L31.0642 29.9819C31.3941 30.4219 32.018 30.511 32.458 30.1811L35.5881 27.8345C36.0284 27.5052 36.6524 27.5952 36.9816 28.0356C37.1392 28.2463 37.207 28.5108 37.1701 28.7713L36.6175 32.6441C36.5394 33.1883 36.9172 33.693 37.4615 33.7711C37.4616 33.7711 37.4616 33.7711 37.4618 33.7711L43.3755 34.6164C43.4221 34.6224 43.469 34.6253 43.5159 34.6253C44.0116 34.626 44.4321 34.2618 44.5025 33.7711L45.0551 29.8983C45.1326 29.354 45.6367 28.9755 46.1811 29.0531C46.4427 29.0903 46.6786 29.23 46.8372 29.4413L49.1847 32.5705C49.5147 33.0104 50.1386 33.0995 50.5786 32.7696L55.3574 29.1855C55.7973 28.8556 55.8864 28.2316 55.5565 27.7917L53.2099 24.6625C52.9636 24.3418 52.9398 23.9028 53.1502 23.5575C53.3494 23.2056 53.7466 23.015 54.1457 23.0796L58.0185 23.6321C58.5628 23.7103 59.0674 23.3323 59.1455 22.7881C59.1455 22.788 59.1455 22.788 59.1455 22.7879L59.9898 16.8741C60.068 16.3298 59.6901 15.8253 59.1458 15.7471ZM26.148 51.0226H34.1126V53.0137H26.148V51.0226V51.0226ZM26.148 55.0049H34.1126V56.0005C34.1126 57.1002 33.2212 57.9917 32.1215 57.9917H28.1391C27.0394 57.9917 26.148 57.1002 26.148 56.0005V55.0049V55.0049ZM18.2221 37.8361C18.7657 38.2806 19.3337 38.6945 19.9236 39.0756C20.8643 39.6701 21.5724 40.5695 21.9297 41.6233L19.7942 43.7548L17.7263 42.3292C16.8209 41.7052 15.581 41.9334 14.9569 42.8389C14.8073 43.0561 14.7023 43.3007 14.648 43.5587L14.1263 46.0447H11.7598L11.2381 43.5627C11.0116 42.4866 9.9557 41.7978 8.8796 42.0243C8.62162 42.0785 8.37695 42.1835 8.15979 42.3331L6.09097 43.7548L4.27702 41.9449L5.7017 39.878C6.3263 38.9729 6.09881 37.7329 5.19371 37.1083C4.97642 36.9584 4.73151 36.8531 4.47315 36.7987L1.99117 36.276V33.9105L4.47315 33.3878C5.54888 33.1597 6.23608 32.1028 6.00797 31.0269C5.95383 30.7717 5.85017 30.5296 5.7027 30.3145L4.27702 28.2417L6.09097 26.4317L8.16079 27.8574C9.06664 28.4807 10.3065 28.2517 10.9299 27.3459C11.0792 27.129 11.184 26.8846 11.2381 26.6268L11.4124 25.7985C11.5719 26.9457 11.8361 28.0757 12.2019 29.1745C8.92602 29.565 6.58702 32.5374 6.97754 35.8132C7.36806 39.089 10.3404 41.428 13.6162 41.0375C15.5882 40.8023 17.3144 39.6025 18.2221 37.8361ZM16.676 36.4333C15.9326 38.4998 13.6548 39.5723 11.5883 38.8289C9.52187 38.0855 8.44938 35.8077 9.19271 33.7413C9.76144 32.1604 11.2624 31.1074 12.9424 31.1109C12.9554 31.1109 12.9673 31.1109 12.9803 31.1109C13.8958 33.085 15.1462 34.8857 16.676 36.4333ZM57.3097 21.5175L54.4225 21.1053C52.7895 20.8721 51.2767 22.007 51.0435 23.6398C50.9315 24.424 51.1356 25.2206 51.611 25.8543L53.3602 28.1869L50.1744 30.5763L48.4241 28.2447C47.4345 26.9249 45.5624 26.6572 44.2428 27.6468C43.6091 28.1219 43.1901 28.8294 43.0778 29.6136L42.6746 32.5048L38.7331 31.9412L39.1453 29.0541C39.3791 27.4212 38.2449 25.9079 36.612 25.6742C35.8274 25.5618 35.0304 25.7659 34.3964 26.2415L32.0637 27.9908L29.6743 24.8049L32.006 23.0547C33.3257 22.0651 33.5934 20.193 32.6038 18.8734C32.1287 18.2397 31.4212 17.8207 30.6371 17.7084L27.7499 17.2962L28.3134 13.3547L31.2006 13.7669C32.8334 14.0007 34.3467 12.8665 34.5804 11.2336C34.6928 10.449 34.4887 9.65203 34.0131 9.01797L32.2579 6.68333L35.4437 4.29393L37.194 6.62658C38.1836 7.94635 40.0556 8.21404 41.3753 7.22443C42.009 6.74929 42.428 6.0418 42.5402 5.25766L42.9524 2.37047L46.8939 2.93297L46.4817 5.82016C46.2485 7.45316 47.3832 8.96595 49.0162 9.19917C49.8004 9.31117 50.597 9.10707 51.2307 8.63168L53.5633 6.88245L55.9527 10.0683L53.6201 11.8185C52.3003 12.8082 52.0326 14.6802 53.0222 15.9999C53.4974 16.6336 54.2048 17.0526 54.989 17.1648L57.8762 17.577L57.3097 21.5175Z" fill="#F4F4F4"/>
<path d="M42.8102 9.47099C38.4115 9.47099 34.8456 13.0369 34.8456 17.4357C34.8456 21.8344 38.4115 25.4003 42.8102 25.4003C47.209 25.4003 50.7749 21.8344 50.7749 17.4357C50.7699 13.0389 47.207 9.47585 42.8102 9.47099ZM42.8102 23.4091C39.5111 23.4091 36.8367 20.7348 36.8367 17.4357C36.8367 14.1365 39.5111 11.4622 42.8102 11.4622C46.1093 11.4622 48.7837 14.1365 48.7837 17.4357C48.7799 20.7331 46.1077 23.4053 42.8102 23.4091Z" fill="#F4F4F4"/>
<path d="M25.7758 34.2761C19.6299 31.8753 16.594 24.9468 18.995 18.8009C19.9253 16.4195 21.5951 14.3993 23.7587 13.0374L22.6944 11.3528C16.1813 15.456 14.2276 24.0622 18.3308 30.5753C19.9199 33.0977 22.2759 35.0442 25.053 36.1289C27.5111 37.0707 29.1342 39.4302 29.1349 42.0625H31.126C31.1291 38.6089 29.0008 35.5115 25.7758 34.2761Z" fill="#F4F4F4"/>
<path d="M56.0153 37.0845H49.0462V39.0757H56.0153V37.0845Z" fill="#F4F4F4"/>
<path d="M48.6884 42.2925L47.4138 43.8223L53.3878 48.7994L54.6623 47.2696L48.6884 42.2925Z" fill="#F4F4F4"/>
<path d="M45.0638 45.0491H43.0726V52.0182H45.0638V45.0491Z" fill="#F4F4F4"/>
<path d="M8.98068 15.2111L1.01657 17.202L1.49919 19.1326L9.46329 17.1418L8.98068 15.2111Z" fill="#F4F4F4"/>
<path d="M3.82713 5.41263L2.67044 7.03203L9.63896 12.0094L10.7956 10.39L3.82713 5.41263Z" fill="#F4F4F4"/>
<path d="M13.1298 5.66097e-07L11.2008 0.493212L13.237 8.45725L15.1661 7.96404L13.1298 5.66097e-07Z" fill="#F4F4F4"/>
</svg>
