<svg width="60" height="60" viewBox="0 0 60 60" fill="none" xmlns="http://www.w3.org/2000/svg">
<path d="M5 60H50C50.5522 60 51 59.5522 51 59V33H49V58H5C3.34326 58 2 56.6567 2 55C2 53.3433 3.34326 52 5 52H7C7.55225 52 8 51.5522 8 51V21H24V19H8V12C8 11.4478 7.55225 11 7 11H5C2.23975 11.0034 0.00341798 13.2397 0 16V55C0.00341798 57.7603 2.23975 59.9966 5 60ZM2 20V16C2 14.3433 3.34326 13 5 13H6V50H5C3.91797 49.9985 2.86475 50.3496 2 51V20Z" fill="#F4F4F4"/>
<path d="M23 24H11C10.4478 24 10 24.4478 10 25V33C10 33.5522 10.4478 34 11 34H23C23.5522 34 24 33.5522 24 33V30H28V28H24V25C24 24.4478 23.5522 24 23 24ZM22 32H12V26H22V32Z" fill="#F4F4F4"/>
<path d="M33 52H45C45.5522 52 46 51.5522 46 51V43C46 42.4478 45.5522 42 45 42H40V36H38V42H33C32.4478 42 32 42.4478 32 43V46H24V43C24 42.4478 23.5522 42 23 42H11C10.4478 42 10 42.4478 10 43V51C10 51.5522 10.4478 52 11 52H23C23.5522 52 24 51.5522 24 51V48H32V51C32 51.5522 32.4478 52 33 52ZM34 44H44V50H34V44ZM22 50H12V44H22V50Z" fill="#F4F4F4"/>
<path d="M43 8C38.0293 8 34 12.0293 34 17C34 21.9707 38.0293 26 43 26C47.9707 26 52 21.9707 52 17C51.9946 12.0317 47.9683 8.00537 43 8ZM43 24C39.1338 24 36 20.8662 36 17C36 13.1338 39.1338 10 43 10C46.8662 10 50 13.1338 50 17C49.9956 20.8643 46.8643 23.9956 43 24Z" fill="#F4F4F4"/>
<path d="M59 21C59.5522 21 60 20.5522 60 20V14C60 13.4478 59.5522 13 59 13H55.3569C55.1436 12.3438 54.8789 11.7051 54.5659 11.0898L57.146 8.51904C57.334 8.33154 57.4399 8.07666 57.4399 7.81104C57.4399 7.54541 57.334 7.29053 57.146 7.10303L52.8999 2.85303C52.7124 2.66553 52.458 2.56006 52.1929 2.56006C51.9277 2.56055 51.6733 2.66602 51.4858 2.854L48.9102 5.43408C48.2949 5.12109 47.6562 4.85693 47 4.64307V1C47 0.447754 46.5522 0 46 0H40C39.4478 0 39 0.447754 39 1V4.64307C38.3438 4.85693 37.7051 5.12109 37.0898 5.43408L34.5181 2.854C34.3306 2.66602 34.0762 2.56055 33.811 2.56006C33.5459 2.56006 33.2915 2.66553 33.104 2.85303L28.853 7.1001C28.665 7.2876 28.5591 7.54248 28.5591 7.80811C28.5591 8.07373 28.665 8.32861 28.853 8.51611L31.4331 11.0869C31.1201 11.7031 30.856 12.3428 30.6431 13H27C26.4478 13 26 13.4478 26 14V20C26 20.5522 26.4478 21 27 21H30.6431C30.8564 21.6562 31.1211 22.2949 31.4341 22.9102L28.854 25.481C28.6655 25.6685 28.5596 25.9238 28.5596 26.1895C28.5596 26.4556 28.6655 26.7104 28.854 26.8979L33.1001 31.1372C33.4907 31.5273 34.1235 31.5273 34.5142 31.1372L37.0859 28.5659C37.7026 28.8789 38.3428 29.1431 39 29.3569V33C39 33.5522 39.4478 34 40 34H46C46.5522 34 47 33.5522 47 33V29.3569C47.6567 29.1431 48.2954 28.8789 48.9111 28.5659L51.4829 31.1372C51.8735 31.5269 52.5054 31.5269 52.896 31.1372L57.146 26.897C57.3345 26.7095 57.4404 26.4546 57.4404 26.1885C57.4404 25.9224 57.3345 25.6675 57.146 25.48L54.5659 22.9092C54.8789 22.2944 55.1436 21.6558 55.3569 21H59ZM53.644 19.7451C53.3809 20.7407 52.9849 21.6963 52.4658 22.5859C52.2368 22.979 52.3018 23.4771 52.624 23.7979L55.0239 26.1899L52.1909 29.0171L49.7998 26.623C49.479 26.3018 48.9814 26.2373 48.5889 26.4658C47.6997 26.9849 46.7437 27.3809 45.748 27.6431C45.3076 27.7578 45.0005 28.1553 45 28.6099V32H41V28.6099C41 28.1558 40.6938 27.7588 40.2549 27.6431C39.2593 27.3809 38.3032 26.9849 37.4141 26.4658C37.0215 26.2373 36.5239 26.3018 36.2031 26.623L33.8101 29.0161L30.9771 26.1899L33.377 23.7979C33.6992 23.4771 33.7642 22.979 33.5352 22.5859C33.0161 21.6963 32.6201 20.7407 32.3569 19.7451C32.2412 19.3062 31.8442 19 31.3901 19H28V15H31.3901C31.8437 14.9995 32.2402 14.6938 32.356 14.2549C32.6191 13.2593 33.0151 12.3037 33.5342 11.4141C33.7632 11.021 33.6982 10.5229 33.376 10.2021L30.9761 7.80908L33.8101 4.9751L36.2031 7.375C36.5239 7.69727 37.022 7.76221 37.415 7.5332C38.3042 7.01416 39.2603 6.61816 40.2559 6.35596C40.6943 6.23975 40.9995 5.84326 41 5.39014V2H45V5.39014C45 5.84424 45.3062 6.24121 45.7451 6.35693C46.7407 6.61914 47.6968 7.01514 48.5859 7.53418C48.9795 7.76416 49.4785 7.69922 49.7998 7.37598L52.1929 4.97607L55.0269 7.81006L52.627 10.2031C52.3047 10.5239 52.2397 11.022 52.4692 11.415C52.9878 12.3047 53.3838 13.2603 53.647 14.2559C53.7627 14.6934 54.1577 14.9985 54.6099 15H58V19H54.6099C54.1563 19.0005 53.7598 19.3062 53.644 19.7451V19.7451Z" fill="#F4F4F4"/>
<path d="M43 13C40.791 13 39 14.791 39 17C39 19.209 40.791 21 43 21C45.209 21 47 19.209 47 17C47 14.791 45.209 13 43 13ZM43 19C41.8955 19 41 18.1045 41 17C41 15.8955 41.8955 15 43 15C44.1045 15 45 15.8955 45 17C45 18.1045 44.1045 19 43 19Z" fill="#F4F4F4"/>
</svg>
