<svg width="60" height="60" viewBox="0 0 60 60" fill="none" xmlns="http://www.w3.org/2000/svg">
<path d="M4.54549 33.7273H32.6364C33.1819 33.7273 33.5455 33.3637 33.5455 32.8183V23.7274C33.5455 23.1819 33.0909 22.8184 32.6364 22.8184H4.54549C3.99999 22.8184 3.63644 23.182 3.63644 23.7274V32.8183C3.63644 33.3637 3.99999 33.7273 4.54549 33.7273ZM5.45453 24.6364H31.7273V31.9091H5.45453V24.6364V24.6364Z" fill="#F4F4F4"/>
<path d="M8.90908 35.3635H5.09096C4.54546 35.3635 4.18192 35.7272 4.18192 36.2726V39.9999C4.18192 40.5454 4.54558 40.9089 5.09096 40.9089H8.81828C9.36378 40.9089 9.72732 40.5453 9.72732 39.9999V36.1817C9.81824 35.7272 9.36366 35.3635 8.90908 35.3635ZM6 39.0909V37.0908H7.90912V39.0909H6Z" fill="#F4F4F4"/>
<path d="M8.90908 43H5.09096C4.54546 43 4.18192 43.3637 4.18192 43.909V47.7273C4.18192 48.2728 4.54558 48.6363 5.09096 48.6363H8.81828C9.36378 48.6363 9.72732 48.2727 9.72732 47.7273V43.909C9.81824 43.3637 9.36366 43 8.90908 43ZM6 46.8182V44.8182H7.90912V46.8182H6Z" fill="#F4F4F4"/>
<path d="M8.90908 50.6365H5.09096C4.54546 50.6365 4.18192 51.0001 4.18192 51.5455V55.3638C4.18192 55.9093 4.54558 56.2728 5.09096 56.2728H8.81828C9.36378 56.2728 9.72732 55.9091 9.72732 55.3638V51.5455C9.81824 51.0911 9.36366 50.6365 8.90908 50.6365ZM6 54.4547V52.4547H7.90912V54.4547H6Z" fill="#F4F4F4"/>
<path d="M16.6363 35.3635H12.8181C12.2726 35.3635 11.909 35.7272 11.909 36.2726V39.9999C11.909 40.5454 12.2727 40.9089 12.8181 40.9089H16.6363C17.1818 40.9089 17.5454 40.5453 17.5454 39.9999V36.1817C17.5455 35.7272 17.0909 35.3635 16.6363 35.3635ZM15.7273 39.0909H13.7272V37.0908H15.7273V39.0909Z" fill="#F4F4F4"/>
<path d="M16.6363 43H12.8181C12.2726 43 11.909 43.3637 11.909 43.909V47.7273C11.909 48.2728 12.2727 48.6363 12.8181 48.6363H16.6363C17.1818 48.6363 17.5454 48.2727 17.5454 47.7273V43.909C17.5455 43.3637 17.0909 43 16.6363 43ZM15.7273 46.8182H13.7272V44.8182H15.7273V46.8182Z" fill="#F4F4F4"/>
<path d="M16.6363 50.6365H12.8181C12.2726 50.6365 11.909 51.0001 11.909 51.5455V55.3638C11.909 55.9093 12.2727 56.2728 12.8181 56.2728H16.6363C17.1818 56.2728 17.5454 55.9091 17.5454 55.3638V51.5455C17.5455 51.0911 17.0909 50.6365 16.6363 50.6365ZM15.7273 54.4547H13.7272V52.4547H15.7273V54.4547Z" fill="#F4F4F4"/>
<path d="M24.3639 35.3635H20.6366C20.0911 35.3635 19.7275 35.7272 19.7275 36.2726V39.9999C19.7275 40.5454 20.0912 40.9089 20.6366 40.9089H24.3639C24.9094 40.9089 25.2729 40.5453 25.2729 39.9999V36.1817C25.273 35.7272 24.8185 35.3635 24.3639 35.3635ZM23.4548 39.0909H21.5457V37.0908H23.4548V39.0909Z" fill="#F4F4F4"/>
<path d="M24.3639 43H20.6366C20.0911 43 19.7275 43.3637 19.7275 43.909V47.7273C19.7275 48.2728 20.0912 48.6363 20.6366 48.6363H24.3639C24.9094 48.6363 25.2729 48.2727 25.2729 47.7273V43.909C25.273 43.3637 24.8185 43 24.3639 43ZM23.4548 46.8182H21.5457V44.8182H23.4548V46.8182Z" fill="#F4F4F4"/>
<path d="M24.3639 50.6365H20.6366C20.0911 50.6365 19.7275 51.0001 19.7275 51.5455V55.3638C19.7275 55.9093 20.0912 56.2728 20.6366 56.2728H24.3639C24.9094 56.2728 25.2729 55.9091 25.2729 55.3638V51.5455C25.273 51.0911 24.8185 50.6365 24.3639 50.6365ZM23.4548 54.4547H21.5457V52.4547H23.4548V54.4547Z" fill="#F4F4F4"/>
<path d="M32 35.3635H28.2727C27.7272 35.3635 27.3636 35.7272 27.3636 36.2726V39.9999C27.3636 40.5454 27.7273 40.9089 28.2727 40.9089H32C32.5455 40.9089 32.9091 40.5453 32.9091 39.9999V36.1817C32.9092 35.7272 32.5455 35.3635 32 35.3635ZM31.091 39.0909H29.1819V37.0908H31.091V39.0909Z" fill="#F4F4F4"/>
<path d="M32 43H28.2727C27.7272 43 27.3636 43.3637 27.3636 43.909V55.3636C27.3636 55.9091 27.7273 56.2727 28.2727 56.2727H32C32.5455 56.2727 32.9091 55.909 32.9091 55.3636V43.909C32.9092 43.3637 32.5455 43 32 43ZM31.091 54.4546H29.1819V44.8182H31.091V54.4546Z" fill="#F4F4F4"/>
<path d="M59.7273 15.8182L43.5455 0.272749C43.3637 0.0909162 43.0909 0 42.9091 0H11.6363C11.0908 0 10.7273 0.363665 10.7273 0.909041V18.909H0.909041C0.363544 18.909 0 19.2727 0 19.818V59.0908C0 59.6363 0.363665 59.9999 0.909041 59.9999C1.45442 59.9999 3.27262 59.9999 59.0908 59.9999C59.6363 59.9999 59.9999 59.6362 59.9999 59.0908C59.9999 55.2726 59.9999 67.3636 59.9999 16.4545C60 16.2727 59.9091 15.9091 59.7273 15.8182ZM43.8182 2.99999L56.8182 15.4546H43.8182V2.99999ZM35.3636 58.1818H1.8182V20.7273H35.3636V58.1818ZM58.1818 58.1818H37.1818V19.8182C37.1818 19.2727 36.8182 18.9091 36.2728 18.9091H12.5455V1.8182H42V16.4546C42 17.0001 42.3637 17.3637 42.9091 17.3637H58.1818C58.1818 48.5455 58.1818 57.7273 58.1818 58.1818Z" fill="#F4F4F4"/>
<path d="M35.7272 5.72729H17.4545C16.909 5.72729 16.5454 6.09096 16.5454 6.63634C16.5454 7.18171 16.9091 7.54538 17.4545 7.54538H35.7272C36.2727 7.54538 36.6362 7.18171 36.6362 6.63634C36.6362 6.09096 36.2727 5.72729 35.7272 5.72729Z" fill="#F4F4F4"/>
<path d="M35.7272 11.0911H17.4545C16.909 11.0911 16.5454 11.4547 16.5454 12.0001C16.5454 12.5455 16.9091 12.9091 17.4545 12.9091H35.7272C36.2727 12.9091 36.6362 12.5455 36.6362 12.0001C36.6362 11.4547 36.2727 11.0911 35.7272 11.0911Z" fill="#F4F4F4"/>
<path d="M47.8184 38.3638C43.0002 38.3638 39.0912 42.2728 39.0912 47.1819C39.0912 52.0001 43.0002 56.0001 47.8184 56.0001C52.6366 56.0001 56.5456 52.091 56.5456 47.1819C56.5456 42.2729 52.6366 38.3638 47.8184 38.3638ZM47.8184 54.0911C44.0001 54.0911 40.9092 51.0002 40.9092 47.091C40.9092 43.1818 44.0001 40.0911 47.8184 40.0911C51.6366 40.0911 54.7275 43.182 54.7275 47.091C54.7275 51 51.6366 54.0911 47.8184 54.0911Z" fill="#F4F4F4"/>
<path d="M50.5457 47.2727C50.0911 46.8181 49.3639 46.4546 48.3638 46.2727V43.8182C49.0003 43.9092 49.6365 44.1819 50.182 44.5455L51.0002 43.3637C50.182 42.8182 49.2729 42.4546 48.3638 42.3637V41.7273H47.5457V42.3637C46.7276 42.3637 46.0003 42.6365 45.5457 43.1818C45.0002 43.6364 44.7276 44.2727 44.7276 45C44.7276 45.7272 44.9094 46.2727 45.364 46.7273C45.8186 47.091 46.5458 47.4547 47.4549 47.6364V50.1818C46.7276 50.0909 45.9095 49.7272 45.2731 49.0909L44.364 50.1818C45.2731 50.9999 46.364 51.4545 47.5458 51.6363V52.5454H48.364V51.6363C49.273 51.6363 49.9094 51.3636 50.4549 50.8182C51.0004 50.3636 51.273 49.7273 51.273 49C51.273 48.2728 51.0003 47.6364 50.5457 47.2727ZM47.5457 46C47.0911 45.8182 46.7275 45.7272 46.5458 45.5454C46.3641 45.3636 46.273 45.1818 46.273 44.8182C46.273 44.5455 46.3639 44.2727 46.6367 44.0909C46.8185 43.909 47.1822 43.8181 47.5457 43.7272V46ZM49.273 49.8182C49.0003 50.0001 48.7275 50.1819 48.273 50.1819V47.8183C48.8185 48.0002 49.1821 48.182 49.3639 48.2729C49.5458 48.4547 49.6367 48.7275 49.6367 49.0002C49.6367 49.3637 49.5458 49.6364 49.273 49.8182Z" fill="#F4F4F4"/>
<path d="M41.8186 31.0909C41.7277 31.0909 41.8186 31.0909 41.8186 31.1818L38.0913 39.0909C37.9094 39.4546 38.0003 39.909 38.364 40.1818C38.6367 40.4545 39.0913 40.4545 39.4549 40.2727L46.6367 35.3636L46.7276 35.2727C46.7276 35.2727 46.8185 35.2727 46.8185 35.1818L56.8185 23.4545C58.0003 22.0909 57.8185 20.0909 56.4549 18.9091C55.9094 18.4545 55.1822 18.1819 54.3639 18.1819C53.4549 18.1819 52.5457 18.5455 51.9094 19.2728L41.9094 31C41.9095 31 41.9095 31.0909 41.8186 31.0909ZM53.364 20.4545C53.8186 19.9091 54.7276 19.8181 55.2731 20.2727C55.9095 20.8182 55.9095 21.6363 55.4549 22.2728L46.0004 33.2728L43.9094 31.4546L53.364 20.4545ZM44.6367 34.4546L41.1822 36.8181L43.0004 32.9999L44.6367 34.4546Z" fill="#F4F4F4"/>
</svg>
