<svg width="60" height="59" viewBox="0 0 60 59" fill="none" xmlns="http://www.w3.org/2000/svg">
<path d="M44.5161 0V1.93701H47.9885L28.0634 21.8622L18.3901 12.1772L6.09485 24.4724L7.45312 25.8425L18.3901 14.9173L28.0634 24.5905L49.3586 3.30709V6.76772H51.2956V0H44.5161Z" fill="#F4F4F4"/>
<path d="M58.063 56.1261V13.5474H48.3898V56.1261H46.4528V19.3584H36.7795V56.1379H34.8425V32.9056H25.1575V56.1261H23.2205V27.0946H13.5472V56.1261H11.6102V42.5789H1.93701V56.1261H0V58.0631H60V56.1261H58.063ZM9.68504 56.1261H3.87402V44.5159H9.68504V56.1261ZM21.2953 56.1261H15.4843V29.0316H21.2953V56.1261ZM32.9055 56.1379H27.0945V34.8426H32.9055V56.1379ZM44.5157 56.1379H38.7047V21.2954H44.5157V56.1379ZM56.1378 56.1261H50.3268V15.4844H56.1378V56.1261Z" fill="#F4F4F4"/>
</svg>
