<svg width="60" height="60" viewBox="0 0 60 60" fill="none" xmlns="http://www.w3.org/2000/svg">
<path d="M60 58H0V60H60V58Z" fill="#F4F4F4"/>
<path d="M4 56H14C14.5523 56 15 55.5523 15 55V37C15 36.4478 14.5523 36 14 36H4C3.44775 36 3 36.4478 3 37V55C3 55.5523 3.44775 56 4 56ZM5 38H13V54H5V38Z" fill="#F4F4F4"/>
<path d="M32 56H42C42.5523 56 43 55.5523 43 55V25C43 24.4477 42.5523 24 42 24H32C31.4477 24 31 24.4477 31 25V55C31 55.5523 31.4477 56 32 56ZM33 26H41V54H33V26Z" fill="#F4F4F4"/>
<path d="M18 56H28C28.5523 56 29 55.5523 29 55V13C29 12.4477 28.5523 12 28 12H18C17.4477 12 17 12.4477 17 13V55C17 55.5523 17.4477 56 18 56ZM19 14H27V54H19V14Z" fill="#F4F4F4"/>
<path d="M46 56H56C56.5523 56 57 55.5523 57 55V1C57 0.44775 56.5523 0 56 0H46C45.4477 0 45 0.44775 45 1V55C45 55.5523 45.4477 56 46 56ZM47 2H55V54H47V2Z" fill="#F4F4F4"/>
</svg>
