<svg width="55" height="55" viewBox="0 0 55 55" fill="none" xmlns="http://www.w3.org/2000/svg">
<path d="M42.1893 5.625C43.2248 5.625 44.0643 4.78553 44.0643 3.75C44.0643 2.71447 43.2248 1.875 42.1893 1.875C41.1537 1.875 40.3143 2.71447 40.3143 3.75C40.3143 4.78553 41.1537 5.625 42.1893 5.625Z" fill="#F4F4F4"/>
<path d="M14.0643 3.75C15.0998 3.75 15.9393 2.91053 15.9393 1.875C15.9393 0.839466 15.0998 0 14.0643 0C13.0287 0 12.1893 0.839466 12.1893 1.875C12.1893 2.91053 13.0287 3.75 14.0643 3.75Z" fill="#F4F4F4"/>
<path d="M34.6893 54.375C35.7248 54.375 36.5643 53.5355 36.5643 52.5C36.5643 51.4645 35.7248 50.625 34.6893 50.625C33.6537 50.625 32.8143 51.4645 32.8143 52.5C32.8143 53.5355 33.6537 54.375 34.6893 54.375Z" fill="#F4F4F4"/>
<path d="M43.1268 48.75C44.1623 48.75 45.0018 47.9105 45.0018 46.875C45.0018 45.8395 44.1623 45 43.1268 45C42.0912 45 41.2518 45.8395 41.2518 46.875C41.2518 47.9105 42.0912 48.75 43.1268 48.75Z" fill="#F4F4F4"/>
<path d="M14.0643 54.375C15.0998 54.375 15.9393 53.5355 15.9393 52.5C15.9393 51.4645 15.0998 50.625 14.0643 50.625C13.0287 50.625 12.1893 51.4645 12.1893 52.5C12.1893 53.5355 13.0287 54.375 14.0643 54.375Z" fill="#F4F4F4"/>
<path d="M53.0265 40.2184C54.0236 39.9388 54.6052 38.9039 54.3257 37.9068C54.0461 36.9097 53.0112 36.328 52.0141 36.6076C51.017 36.8871 50.4354 37.9221 50.7149 38.9192C50.9945 39.9162 52.0294 40.4979 53.0265 40.2184Z" fill="#F4F4F4"/>
<path d="M53.02 25.2184C54.017 24.9388 54.5987 23.9039 54.3192 22.9068C54.0396 21.9097 53.0047 21.328 52.0076 21.6076C51.0105 21.8871 50.4288 22.9221 50.7084 23.9192C50.9879 24.9162 52.0229 25.4979 53.02 25.2184Z" fill="#F4F4F4"/>
<path d="M7.43555 15.5139C7.71511 14.5168 7.13344 13.4819 6.13635 13.2023C5.13927 12.9227 4.10434 13.5044 3.82479 14.5015C3.54523 15.4986 4.1269 16.5335 5.12399 16.8131C6.12107 17.0926 7.15599 16.511 7.43555 15.5139Z" fill="#F4F4F4"/>
<path d="M1.95097 27.1876C1.51645 27.17 1.08933 27.3039 0.742706 27.5665C0.396085 27.8292 0.151526 28.2041 0.0508943 28.6272C-0.049737 29.0502 -0.000182586 29.4951 0.191075 29.8857C0.382332 30.2762 0.703397 30.5882 1.09931 30.7681C1.49522 30.948 1.94136 30.9847 2.36134 30.8719C2.78133 30.7591 3.14905 30.5038 3.40155 30.1497C3.65406 29.7957 3.77564 29.3649 3.74549 28.931C3.71534 28.4972 3.53533 28.0874 3.23628 27.7716C2.9003 27.4169 2.43914 27.2074 1.95097 27.1876V27.1876Z" fill="#F4F4F4"/>
<path d="M27.1894 28.125H27.1519C26.9667 28.1325 26.7879 28.1948 26.6381 28.3039C26.4883 28.413 26.3742 28.5641 26.3102 28.738C26.2462 28.9119 26.2352 29.1009 26.2786 29.281C26.3219 29.4612 26.4177 29.6245 26.5538 29.7503C26.6899 29.876 26.8603 29.9587 27.0433 29.9877C27.2263 30.0167 27.4138 29.9908 27.5822 29.9133C27.7505 29.8358 27.8921 29.7101 27.989 29.5522C28.086 29.3942 28.134 29.2111 28.1269 29.0259C28.1174 28.7837 28.0145 28.5545 27.8397 28.3865C27.6649 28.2186 27.4318 28.1248 27.1894 28.125V28.125Z" fill="#F4F4F4"/>
<path d="M30.9393 25.3125H23.4393C23.1906 25.3125 22.9522 25.4113 22.7764 25.5871C22.6005 25.7629 22.5018 26.0014 22.5018 26.25V33.75C22.5018 33.9986 22.6005 34.2371 22.7764 34.4129C22.9522 34.5887 23.1906 34.6875 23.4393 34.6875H30.9393C31.1879 34.6875 31.4264 34.5887 31.6022 34.4129C31.778 34.2371 31.8768 33.9986 31.8768 33.75V26.25C31.8768 26.0014 31.778 25.7629 31.6022 25.5871C31.4264 25.4113 31.1879 25.3125 30.9393 25.3125ZM29.2518 30.9712C28.9418 31.3026 28.5556 31.5533 28.1268 31.7016V33.75H26.2518V31.7081C25.6833 31.5057 25.1952 31.1254 24.86 30.6237C24.5247 30.1219 24.3601 29.5255 24.3906 28.9228C24.4212 28.3201 24.6452 27.7434 25.0294 27.2781C25.4136 26.8128 25.9377 26.4838 26.5237 26.3398C27.1097 26.1959 27.7265 26.2447 28.2826 26.479C28.8387 26.7133 29.3044 27.1207 29.6107 27.6406C29.9169 28.1606 30.0474 28.7654 29.9828 29.3654C29.9181 29.9654 29.6618 30.5285 29.2518 30.9712V30.9712Z" fill="#F4F4F4"/>
<path d="M30.0018 22.5C30.0018 21.7541 29.7055 21.0387 29.178 20.5113C28.6506 19.9838 27.9352 19.6875 27.1893 19.6875C26.4433 19.6875 25.728 19.9838 25.2005 20.5113C24.6731 21.0387 24.3768 21.7541 24.3768 22.5V23.4375H30.0018V22.5Z" fill="#F4F4F4"/>
<path d="M38.4393 35.625V18.75C38.4393 18.0041 38.143 17.2887 37.6155 16.7613C37.0881 16.2338 36.3727 15.9375 35.6268 15.9375H18.7518C18.0058 15.9375 17.2905 16.2338 16.763 16.7613C16.2356 17.2887 15.9393 18.0041 15.9393 18.75V35.625C15.9393 36.3709 16.2356 37.0863 16.763 37.6137C17.2905 38.1412 18.0058 38.4375 18.7518 38.4375H35.6268C36.3727 38.4375 37.0881 38.1412 37.6155 37.6137C38.143 37.0863 38.4393 36.3709 38.4393 35.625ZM33.7518 33.75C33.7518 34.4959 33.4555 35.2113 32.928 35.7387C32.4006 36.2662 31.6852 36.5625 30.9393 36.5625H23.4393C22.6933 36.5625 21.978 36.2662 21.4505 35.7387C20.9231 35.2113 20.6268 34.4959 20.6268 33.75V26.25C20.6292 25.6704 20.8106 25.1057 21.1462 24.6331C21.4819 24.1605 21.9553 23.8032 22.5018 23.61V22.5C22.5018 21.2568 22.9956 20.0645 23.8747 19.1854C24.7538 18.3064 25.9461 17.8125 27.1893 17.8125C28.4325 17.8125 29.6248 18.3064 30.5038 19.1854C31.3829 20.0645 31.8768 21.2568 31.8768 22.5V23.61C32.4232 23.8032 32.8967 24.1605 33.2323 24.6331C33.5679 25.1057 33.7494 25.6704 33.7518 26.25V33.75Z" fill="#F4F4F4"/>
<path d="M27.1893 3.75C27.0039 3.75 26.8226 3.80498 26.6684 3.908C26.5143 4.01101 26.3941 4.15743 26.3231 4.32873C26.2522 4.50004 26.2336 4.68854 26.2698 4.8704C26.306 5.05225 26.3952 5.2193 26.5264 5.35041C26.6575 5.48152 26.8245 5.57081 27.0064 5.60699C27.1882 5.64316 27.3767 5.62459 27.548 5.55364C27.7193 5.48268 27.8658 5.36252 27.9688 5.20835C28.0718 5.05418 28.1268 4.87292 28.1268 4.6875C28.1268 4.43886 28.028 4.2004 27.8522 4.02459C27.6764 3.84877 27.4379 3.75 27.1893 3.75Z" fill="#F4F4F4"/>
<path d="M30.0018 11.25H31.8768V14.0625H30.0018V11.25Z" fill="#F4F4F4"/>
<path d="M22.5018 11.25H24.3768V14.0625H22.5018V11.25Z" fill="#F4F4F4"/>
<path d="M30.0018 40.3125H31.8768V43.125H30.0018V40.3125Z" fill="#F4F4F4"/>
<path d="M22.5018 40.3125H24.3768V45.9375H22.5018V40.3125Z" fill="#F4F4F4"/>
<path d="M48.752 14.0625H48.7145C48.5292 14.0698 48.3502 14.1319 48.2001 14.2409C48.0501 14.35 47.9358 14.5011 47.8717 14.6751C47.8075 14.8491 47.7965 15.0383 47.8399 15.2186C47.8832 15.3989 47.9791 15.5623 48.1154 15.6881C48.2059 15.772 48.3119 15.8372 48.4276 15.88C48.5433 15.9228 48.6663 15.9423 48.7895 15.9375C48.9125 15.9327 49.0335 15.9036 49.1453 15.8521C49.2571 15.8005 49.3577 15.7274 49.4413 15.6369C49.5249 15.5465 49.5898 15.4404 49.6324 15.3249C49.675 15.2093 49.6944 15.0865 49.6895 14.9634C49.68 14.7212 49.5771 14.492 49.4023 14.324C49.2275 14.1561 48.9944 14.0623 48.752 14.0625Z" fill="#F4F4F4"/>
<path d="M40.3143 30H45.0018V31.875H40.3143V30Z" fill="#F4F4F4"/>
<path d="M40.3143 22.5H43.1268V24.375H40.3143V22.5Z" fill="#F4F4F4"/>
<path d="M5.62677 30H14.0643V31.875H5.62677V30Z" fill="#F4F4F4"/>
<path d="M6.49805 42.7136C6.77761 41.7165 6.19593 40.6816 5.19885 40.402C4.20176 40.1225 3.16684 40.7041 2.88729 41.7012C2.60773 42.6983 3.1894 43.7332 4.18649 44.0128C5.18357 44.2923 6.21849 43.7107 6.49805 42.7136Z" fill="#F4F4F4"/>
<path d="M11.2518 26.25H14.0643V28.125H11.2518V26.25Z" fill="#F4F4F4"/>
<path d="M22.5018 7.5H24.3768V9.375H22.5018V7.5Z" fill="#F4F4F4"/>
<path d="M46.8768 30H48.7518V31.875H46.8768V30Z" fill="#F4F4F4"/>
<path d="M30.0018 45H31.8768V46.875H30.0018V45Z" fill="#F4F4F4"/>
<path d="M22.5018 47.8125H24.3768V49.6875H22.5018V47.8125Z" fill="#F4F4F4"/>
<path d="M7.50177 26.25H9.37677V28.125H7.50177V26.25Z" fill="#F4F4F4"/>
<path d="M30.0018 7.5H31.8768V9.375H30.0018V7.5Z" fill="#F4F4F4"/>
<path d="M45.0018 22.5H46.8768V24.375H45.0018V22.5Z" fill="#F4F4F4"/>
<path d="M40.3143 13.125H42.1893V15H40.3143V13.125Z" fill="#F4F4F4"/>
<path d="M12.1893 13.125H14.0643V15H12.1893V13.125Z" fill="#F4F4F4"/>
<path d="M40.3143 39.375H42.1893V41.25H40.3143V39.375Z" fill="#F4F4F4"/>
<path d="M12.1893 39.375H14.0643V41.25H12.1893V39.375Z" fill="#F4F4F4"/>
<path d="M38.9699 5.6438L33.7518 10.8619V14.0625H35.6268V11.6382L40.2955 6.96942C39.7483 6.6472 39.2921 6.19101 38.9699 5.6438V5.6438Z" fill="#F4F4F4"/>
<path d="M26.2518 8.30542V14.0626H28.1268V8.30542C27.5142 8.48165 26.8643 8.48165 26.2518 8.30542V8.30542Z" fill="#F4F4F4"/>
<path d="M17.2838 3.7688C16.9616 4.31601 16.5054 4.7722 15.9582 5.09442L18.7519 7.88817V14.0625H20.6269V7.11192L17.2838 3.7688Z" fill="#F4F4F4"/>
<path d="M45.5324 16.8938L43.6761 18.75H40.3143V20.625H44.4524L46.858 18.2194C46.3108 17.8972 45.8546 17.441 45.5324 16.8938V16.8938Z" fill="#F4F4F4"/>
<path d="M44.7805 26.2499H40.3143V28.1249H45.223L49.6893 25.8928C49.2674 25.4174 48.9743 24.8419 48.838 24.2212L44.7805 26.2499Z" fill="#F4F4F4"/>
<path d="M50.608 35.2181L49.1399 33.75H40.3143V35.625H48.3636L49.2824 36.5438C49.6046 35.9965 50.0608 35.5403 50.608 35.2181V35.2181Z" fill="#F4F4F4"/>
<path d="M39.509 45.9375H35.6268V40.3125H33.7518V47.8125H39.509C39.3327 47.1999 39.3327 46.5501 39.509 45.9375V45.9375Z" fill="#F4F4F4"/>
<path d="M32.113 49.7859L28.1268 47.2931V40.3125H26.2518V48.3319L31.1268 51.3816C31.3145 50.7745 31.6539 50.2253 32.113 49.7859V49.7859Z" fill="#F4F4F4"/>
<path d="M20.6269 40.3125H18.7519V46.4869L15.9582 49.2806C16.5054 49.6029 16.9616 50.059 17.2838 50.6063L20.6269 47.2631V40.3125Z" fill="#F4F4F4"/>
<path d="M8.8752 33.75L5.65582 38.5791C6.27191 38.7407 6.83638 39.0573 7.29551 39.4987L9.87832 35.625H14.0643V33.75H8.8752Z" fill="#F4F4F4"/>
<path d="M8.10014 22.5L3.96295 25.9472C4.48803 26.3051 4.91353 26.7906 5.19951 27.3581L8.77889 24.375H14.0645V22.5H8.10014Z" fill="#F4F4F4"/>
<path d="M10.7026 18.75L8.84632 16.8938C8.5241 17.441 8.0679 17.8972 7.52069 18.2194L9.92632 20.625H14.0644V18.75H10.7026Z" fill="#F4F4F4"/>
</svg>
