<svg width="57" height="59" viewBox="0 0 57 59" fill="none" xmlns="http://www.w3.org/2000/svg">
<path d="M55.4923 45.1172H51.5625V32.4656C51.5584 31.6651 51.4051 30.8724 51.1104 30.1281C51.0819 30.0571 51.0401 29.9866 51.0095 29.9166C50.6498 29.1267 50.1317 28.419 49.4873 27.8375C48.8429 27.256 48.086 26.813 47.2635 26.5359L46.435 26.2438C44.5577 25.6059 42.626 25.1412 40.6641 24.8555V22.724C41.8447 22.0318 42.8365 21.0594 43.5517 19.8926C44.267 18.7258 44.6836 17.4008 44.7647 16.0347C45.3489 15.7918 45.8262 15.3466 46.1091 14.7806C46.3919 14.2146 46.4615 13.5657 46.3051 12.9526C46.2244 12.6249 46.0687 12.3205 45.8502 12.0633C45.6316 11.8061 45.3563 11.6033 45.0459 11.4708L45.1866 9.41614C45.2746 8.2134 45.1116 7.00549 44.708 5.86909C44.3043 4.73269 43.6688 3.6926 42.8419 2.81485C42.0112 1.9265 41.0069 1.21826 39.8912 0.734053C38.7755 0.249849 37.5722 0 36.356 0C35.1398 0 33.9365 0.249849 32.8208 0.734053C31.7052 1.21826 30.7008 1.9265 29.8702 2.81485C29.0431 3.69264 28.4076 4.73279 28.0039 5.86929C27.6003 7.00578 27.4374 8.21379 27.5255 9.41661L27.6676 11.4689C27.3564 11.601 27.0803 11.804 26.8613 12.0616C26.6423 12.3192 26.4865 12.6244 26.4062 12.9529C26.2546 13.5696 26.3296 14.2202 26.6176 14.7862C26.9056 15.3522 27.3873 15.7959 27.9751 16.0364C28.0627 17.4051 28.4856 18.7312 29.2065 19.8979C29.9275 21.0646 30.9244 22.036 32.1094 22.7265V24.854C30.1332 25.1265 28.1885 25.592 26.3031 26.2438L25.4523 26.5361C25.048 26.6763 24.6581 26.8552 24.2882 27.0703H7.65961C6.3859 27.0703 5.39062 28.1592 5.39062 29.4329V41.7804C5.03906 41.8241 4.6875 42.1192 4.6875 42.4774V43.7813C4.69677 44.2557 4.83772 44.7182 5.09461 45.1172H0.757734C0.369492 45.1172 0 45.4409 0 45.8291V49.708C0 50.0963 0.369492 50.3902 0.757734 50.3902H2.69531V58.1245C2.69334 58.2159 2.70958 58.3068 2.74311 58.3918C2.77663 58.4769 2.82676 58.5544 2.89057 58.6198C2.95438 58.6853 3.03059 58.7374 3.11475 58.7731C3.19891 58.8088 3.28933 58.8273 3.38074 58.8277H52.869C52.9604 58.8273 53.0508 58.8088 53.135 58.7732C53.2191 58.7375 53.2953 58.6855 53.3592 58.6201C53.423 58.5547 53.4732 58.4772 53.5067 58.3922C53.5403 58.3072 53.5566 58.2164 53.5547 58.125V50.3906H55.4923C55.8805 50.3906 56.25 50.0967 56.25 49.7085V45.8296C56.25 45.4409 55.8805 45.1172 55.4923 45.1172ZM42.0586 32.4062L42.7969 26.6788C43.8643 26.9179 44.9175 27.2164 45.9517 27.5729L46.7977 27.8651C47.4368 28.0788 48.0252 28.4217 48.5263 28.8722C49.0275 29.3228 49.4307 29.8716 49.7109 30.4845C49.7351 30.5392 49.7821 30.5943 49.8018 30.6434C50.0318 31.2215 50.152 31.8375 50.1561 32.4598V45.1172H46.1719V37.3727C46.1719 37.1863 46.0978 37.0074 45.9659 36.8756C45.8341 36.7437 45.6552 36.6696 45.4688 36.6696C45.2823 36.6696 45.1034 36.7437 44.9716 36.8756C44.8397 37.0074 44.7656 37.1863 44.7656 37.3727V45.1172H39.9825L38.8023 33.93L39.3308 32.1669L41.0712 32.9565C41.1714 33.002 41.2808 33.0233 41.3907 33.0187C41.5006 33.0142 41.608 32.9839 41.7041 32.9303C41.8001 32.8768 41.8823 32.8014 41.944 32.7103C42.0056 32.6192 42.0451 32.5149 42.0591 32.4057L42.0586 32.4062ZM41.4151 26.4013L40.7856 31.283L37.5895 29.8329L39.4614 28.0415C39.9681 27.5556 40.3293 26.938 40.5043 26.2581C40.8086 26.3015 41.1125 26.3482 41.4156 26.4013H41.4151ZM38.0379 31.581L37.5691 33.145L35.3603 33.1098L34.9557 31.4495L36.3524 30.8159L38.0379 31.581ZM34.2361 27.0254C34.0082 26.8055 33.8269 26.5419 33.7032 26.2504C33.5794 25.9589 33.5156 25.6454 33.5156 25.3287V23.387C34.4343 23.7242 35.4061 23.8934 36.3847 23.8864C37.3639 23.8832 38.3353 23.7138 39.2578 23.3855V25.3259C39.2533 25.6447 39.1848 25.9594 39.0564 26.2513C38.928 26.5432 38.7422 26.8063 38.5102 27.0251L36.3633 29.0698L34.2361 27.0254ZM35.4219 34.5175L37.4531 34.5496L38.5684 45.1172H33.9942L35.4219 34.5175ZM30.8981 3.77415C31.5972 3.02684 32.4423 2.43107 33.3811 2.02376C34.3199 1.61645 35.3323 1.40628 36.3556 1.40628C37.3789 1.40628 38.3913 1.61645 39.3301 2.02376C40.2689 2.43107 41.114 3.02684 41.8131 3.77415C42.5078 4.51142 43.0417 5.3851 43.3808 6.3397C43.7199 7.29431 43.8568 8.309 43.7829 9.31934L43.6043 11.8964V11.9009L43.2432 12.0689L43.0717 11.3672C42.4958 9.00309 41.0582 6.93908 39.0404 5.5793C38.8887 5.47688 38.703 5.43767 38.5228 5.47001C38.3426 5.50235 38.1821 5.6037 38.0755 5.75251C37.3951 6.70025 36.4755 7.45067 35.4106 7.92732C34.3457 8.40396 33.1735 8.58979 32.0134 8.46587L31.4 8.40036L31.3753 8.3979C31.2419 8.38692 31.1076 8.40234 30.9801 8.44327C30.8526 8.48421 30.7344 8.54985 30.6323 8.63647C30.5302 8.72308 30.4461 8.82895 30.3849 8.94805C30.3237 9.06715 30.2866 9.19714 30.2756 9.33059L30.0627 11.9821C29.7765 11.9262 29.4273 11.8518 29.098 11.7768L28.9277 9.31934C28.8539 8.30896 28.9909 7.29425 29.3301 6.33965C29.6693 5.38504 30.2033 4.51139 30.8981 3.77415V3.77415ZM29.3566 15.5079C29.3566 15.3422 29.2982 15.1819 29.1915 15.0552C29.0848 14.9284 28.9369 14.8434 28.7736 14.8151C28.6047 14.7863 28.4436 14.7231 28.3002 14.6293C28.1569 14.5355 28.0344 14.4132 27.9404 14.27C27.8464 14.1267 27.7829 13.9657 27.7538 13.7968C27.7248 13.628 27.7309 13.455 27.7717 13.2886C27.8196 13.0931 27.9422 12.9241 28.1132 12.8179C28.2061 12.9081 28.3119 12.9842 28.427 13.0437C28.4776 13.0695 28.5311 13.0892 28.5864 13.1023C30.7453 13.6069 30.8536 13.5281 31.1147 13.3378C31.1975 13.2769 31.2664 13.199 31.3168 13.1093C31.3671 13.0197 31.3978 12.9203 31.4068 12.8179L31.6459 9.84129L31.8639 9.86473C33.1518 10.002 34.4538 9.82492 35.6583 9.34876C36.8628 8.8726 37.9339 8.11153 38.7798 7.13075C40.2361 8.28653 41.2655 9.89471 41.7055 11.7011L42.0796 13.235C42.1042 13.3361 42.1509 13.4303 42.2164 13.5111C42.2819 13.5919 42.3644 13.6572 42.4581 13.7022C42.5518 13.7472 42.6544 13.7709 42.7583 13.7716C42.8623 13.7722 42.9651 13.7498 43.0594 13.7059L44.3535 13.1034C44.4199 13.0726 44.4811 13.0315 44.5348 12.9816C44.5756 12.9433 44.6143 12.9028 44.6505 12.8602C44.7917 12.9662 44.8919 13.1177 44.9344 13.2891C44.9751 13.455 44.9813 13.6275 44.9526 13.796C44.9239 13.9644 44.8609 14.1252 44.7675 14.2683C44.6741 14.4113 44.5523 14.5337 44.4097 14.6278C44.267 14.7218 44.1066 14.7856 43.9383 14.8151C43.7756 14.8438 43.6284 14.929 43.5225 15.0558C43.4166 15.1825 43.3588 15.3425 43.3594 15.5077V15.5201C43.3594 19.3582 40.2172 22.481 36.3582 22.481C34.5055 22.4834 32.7275 21.7505 31.4147 20.443C30.102 19.1356 29.3618 17.3606 29.3566 15.5079V15.5079ZM32.2098 26.2567C32.3838 26.9362 32.7438 27.5538 33.2493 28.04L35.117 29.8323L31.9196 31.283L31.2902 26.4015C31.596 26.3481 31.9025 26.2998 32.2098 26.2567V26.2567ZM30.3516 30.1172L30.6468 32.4061C30.6608 32.5152 30.7002 32.6195 30.7618 32.7106C30.8235 32.8017 30.9057 32.8771 31.0017 32.9306C31.0978 32.9842 31.2051 33.0145 31.315 33.019C31.4249 33.0236 31.5344 33.0023 31.6345 32.9569L33.6529 32.0412L34.0935 33.8497L32.5753 45.1172H30.6623C30.9145 44.7169 31.0503 44.2543 31.0547 43.7813V42.4774C31.0547 42.1192 30.7031 41.8241 30.3516 41.7804V30.1172ZM29.9081 26.6786L30.1337 28.4273C29.9762 28.063 29.7253 27.7467 29.4064 27.5104C29.0874 27.2742 28.7117 27.1264 28.3173 27.0819C28.8436 26.9329 29.3739 26.7985 29.9081 26.6787V26.6786ZM6.79688 29.4329C6.79688 28.9347 7.16133 28.4766 7.65961 28.4766H28.0971C28.5955 28.4766 28.9451 28.9347 28.9451 29.4329V41.7188H6.79688V29.4329ZM6.09375 43.125H29.6484V43.7813C29.6421 44.1327 29.5 44.4681 29.2519 44.7171C29.0038 44.9662 28.669 45.1095 28.3175 45.1172H7.43953C7.08651 45.1101 6.74977 44.9674 6.49918 44.7187C6.2486 44.4699 6.10341 44.1342 6.09375 43.7813V43.125ZM52.1484 57.4219H4.10156V50.3906H52.1484V57.4219ZM54.8438 48.9844H1.40625V46.5234H45.3633C45.4333 46.5352 45.5049 46.5352 45.5749 46.5234H54.8438V48.9844Z" fill="#F4F4F4"/>
</svg>
