<svg width="26" height="26" viewBox="0 0 26 26" fill="none" xmlns="http://www.w3.org/2000/svg">
<path d="M13.0146 0.5C6.13215 0.5 0.529355 6.09797 0.526855 12.9805C0.525605 15.1805 1.10184 17.3282 2.19434 19.2207L0.5 25.5L7.04053 23.9546C8.86428 24.9496 10.9173 25.4719 13.0073 25.4731H13.0122C19.8935 25.4731 25.4938 19.8739 25.4976 12.9927C25.5001 9.65643 24.2027 6.51967 21.8452 4.15967C19.4877 1.80092 16.3546 0.50125 13.0146 0.5ZM13.0122 3C15.6822 3.00125 18.1914 4.04225 20.0776 5.92725C21.9639 7.81475 23.0001 10.3227 22.9976 12.9902C22.9951 18.4952 18.5173 22.9731 13.0098 22.9731C11.3435 22.9719 9.69301 22.5535 8.23926 21.7598L7.39697 21.3008L6.4668 21.5205L4.00586 22.1016L4.60645 19.8701L4.87744 18.8691L4.35986 17.9707C3.48736 16.4607 3.02561 14.7342 3.02686 12.9805C3.02936 7.47797 7.50846 3 13.0122 3ZM8.5957 7.21875C8.38695 7.21875 8.04943 7.29688 7.76318 7.60938C7.47693 7.92063 6.66943 8.67447 6.66943 10.2095C6.66943 11.7445 7.7876 13.2283 7.94385 13.437C8.09885 13.6445 10.1022 16.894 13.2734 18.144C15.9084 19.1828 16.4436 18.9778 17.0161 18.9253C17.5886 18.874 18.863 18.1721 19.123 17.4434C19.383 16.7146 19.3837 16.0877 19.3062 15.959C19.2287 15.829 19.0205 15.7515 18.708 15.5952C18.3968 15.439 16.8629 14.6858 16.5767 14.582C16.2904 14.4783 16.081 14.4258 15.8735 14.7383C15.666 15.0508 15.0697 15.7515 14.8872 15.959C14.7047 16.1677 14.5234 16.1958 14.2109 16.0396C13.8984 15.8821 12.8937 15.5518 11.7012 14.4893C10.7737 13.663 10.1478 12.6436 9.96533 12.3311C9.78408 12.0198 9.94824 11.8488 10.1045 11.6938C10.2445 11.5538 10.4145 11.3295 10.5708 11.147C10.7258 10.9645 10.7796 10.8345 10.8833 10.627C10.9871 10.4195 10.9339 10.2363 10.8564 10.0801C10.7789 9.92383 10.172 8.38313 9.89453 7.76563C9.66078 7.24688 9.41391 7.23482 9.19141 7.22607C9.01016 7.21858 8.8032 7.21875 8.5957 7.21875Z" fill="#40C351"/>
</svg>
